<svg xmlns="http://www.w3.org/2000/svg" viewBox="0 0 1368 512"><defs><style>.cls-1{font-size:36px;font-family:Montserrat-ExtraBold, Montserrat;font-weight:800;}.cls-2{letter-spacing:-0.02em;}.cls-3{letter-spacing:0.01em;}.cls-4{letter-spacing:0em;}.cls-5{fill:#f2ad68;}.cls-6{fill:#fff;}.cls-7{fill:#8cc63f;}.cls-8{fill:#93278f;}.cls-9{fill:#ffe471;}.cls-10{fill:#29abe2;}.cls-11{fill:#fcee21;}.cls-12{fill:#80d1ed;}.cls-13{fill:#f7931e;}</style></defs><title>maskotcomponent</title><g id="Layer_1" data-name="Layer 1"><text class="cls-1" transform="translate(627.13 415.17)">Gu<tspan class="cls-2" x="52.63" y="0">t</tspan><tspan x="68.15" y="0">es</tspan><tspan x="-48.08" y="36">Mess</tspan><tspan class="cls-3" x="48.76" y="36">a</tspan><tspan class="cls-4" x="71.66" y="36">gi</tspan><tspan class="cls-3" x="108.31" y="36">n</tspan><tspan x="133.65" y="36">g</tspan></text><path d="M194.76,402h6.3v10.44a16.45,16.45,0,0,1-5,2.37,19.52,19.52,0,0,1-5.62.83,15.12,15.12,0,0,1-7.13-1.67,12.52,12.52,0,0,1-5-4.66,13.63,13.63,0,0,1,0-13.54,12.36,12.36,0,0,1,5-4.66,15.37,15.37,0,0,1,7.24-1.68,16.12,16.12,0,0,1,6.33,1.19,12.2,12.2,0,0,1,4.68,3.42l-4.53,4.11a8,8,0,0,0-6.12-2.81,6.77,6.77,0,0,0-7.2,7.2,7.59,7.59,0,0,0,.9,3.72,6.4,6.4,0,0,0,2.52,2.56,7.39,7.39,0,0,0,3.7.92,9.17,9.17,0,0,0,3.86-.83Z"/><path d="M225.79,395.66v19.51h-6.52v-2.09a7,7,0,0,1-2.59,1.8,8.43,8.43,0,0,1-3.2.61,8.18,8.18,0,0,1-6-2.23q-2.25-2.24-2.25-6.7v-10.9H212v9.79a5,5,0,0,0,.82,3.2,3,3,0,0,0,2.42,1,3.4,3.4,0,0,0,2.64-1.13,5,5,0,0,0,1-3.48v-9.39Z"/><path d="M243.64,414.38a6.82,6.82,0,0,1-2.1.82,11.27,11.27,0,0,1-2.65.29,8.41,8.41,0,0,1-5.87-1.87A7.18,7.18,0,0,1,231,408v-6.55h-2.84v-5.11H231V391.3h6.84v5.08h4.46v5.11h-4.46V408a2.33,2.33,0,0,0,.56,1.64,2,2,0,0,0,1.49.59,3.62,3.62,0,0,0,2.09-.61Z"/><path d="M265.53,407.14H251.35a4,4,0,0,0,1.67,2.32,5.61,5.61,0,0,0,3.12.81,6.79,6.79,0,0,0,2.42-.39,7.33,7.33,0,0,0,2.08-1.3l3.59,3.74c-1.89,2.12-4.66,3.17-8.31,3.17a13.33,13.33,0,0,1-6-1.29,10,10,0,0,1-4-14,9.65,9.65,0,0,1,3.83-3.58,12.25,12.25,0,0,1,10.8-.09,9.1,9.1,0,0,1,3.76,3.49,10.19,10.19,0,0,1,1.39,5.42C265.64,405.5,265.6,406.06,265.53,407.14Zm-12.94-6.05a4.05,4.05,0,0,0-1.35,2.45h8a4.05,4.05,0,0,0-1.35-2.45,4.34,4.34,0,0,0-5.29,0Z"/><path d="M271.07,414.93a12.7,12.7,0,0,1-3.81-1.45l2.05-4.68a11.49,11.49,0,0,0,3.17,1.31,14.28,14.28,0,0,0,3.63.49,5.76,5.76,0,0,0,2.36-.35,1.05,1.05,0,0,0,.7-1c0-.43-.28-.73-.84-.91a17.77,17.77,0,0,0-2.68-.53,26.54,26.54,0,0,1-4-.75,6.14,6.14,0,0,1-2.83-1.73,5,5,0,0,1-1.19-3.53,5.35,5.35,0,0,1,1.12-3.33,7.35,7.35,0,0,1,3.26-2.3,13.85,13.85,0,0,1,5.13-.85,21.33,21.33,0,0,1,4.21.43,12,12,0,0,1,3.49,1.23l-2.05,4.64a11.39,11.39,0,0,0-5.62-1.44,5.58,5.58,0,0,0-2.37.38,1.12,1.12,0,0,0-.76,1c0,.46.28.77.83.95a18.44,18.44,0,0,0,2.74.56,30.41,30.41,0,0,1,4,.83,6.07,6.07,0,0,1,2.76,1.71,4.87,4.87,0,0,1,1.17,3.47,5.31,5.31,0,0,1-1.12,3.3,7.24,7.24,0,0,1-3.29,2.28,14.63,14.63,0,0,1-5.24.83A20.7,20.7,0,0,1,271.07,414.93Z"/><path d="M166.23,426h11.91a16.61,16.61,0,0,1,7.35,1.55,11.6,11.6,0,0,1,5,4.39,13.41,13.41,0,0,1,0,13.32,11.66,11.66,0,0,1-5,4.39,16.75,16.75,0,0,1-7.35,1.55H166.23Zm11.62,19.51a7.31,7.31,0,0,0,5.21-1.84,7.55,7.55,0,0,0,0-10.15,7.34,7.34,0,0,0-5.21-1.83h-4.5v13.82Z"/><path d="M215.47,443.14H201.29a4,4,0,0,0,1.67,2.32,5.61,5.61,0,0,0,3.12.81,6.88,6.88,0,0,0,2.43-.39,7.43,7.43,0,0,0,2.07-1.3l3.6,3.74c-1.9,2.12-4.67,3.17-8.32,3.17a13.33,13.33,0,0,1-6-1.29,9.57,9.57,0,0,1-5.44-8.82,9.81,9.81,0,0,1,1.39-5.17,9.65,9.65,0,0,1,3.83-3.58,11.55,11.55,0,0,1,5.51-1.3,11.41,11.41,0,0,1,5.29,1.21A9.19,9.19,0,0,1,214.2,436a10.28,10.28,0,0,1,1.38,5.42C215.58,441.5,215.55,442.06,215.47,443.14Zm-12.94-6.05a4.05,4.05,0,0,0-1.35,2.45h8a4.05,4.05,0,0,0-1.35-2.45,4.34,4.34,0,0,0-5.29,0Z"/><path d="M221,450.93a12.66,12.66,0,0,1-3.82-1.45l2.05-4.68a11.62,11.62,0,0,0,3.17,1.31,14.42,14.42,0,0,0,3.64.49,5.79,5.79,0,0,0,2.36-.35,1.07,1.07,0,0,0,.7-1c0-.43-.28-.73-.85-.91a17.51,17.51,0,0,0-2.68-.53,26.54,26.54,0,0,1-4-.75,6.11,6.11,0,0,1-2.82-1.73,4.91,4.91,0,0,1-1.19-3.53,5.34,5.34,0,0,1,1.11-3.33,7.41,7.41,0,0,1,3.26-2.3,13.85,13.85,0,0,1,5.13-.85,21.25,21.25,0,0,1,4.21.43,12.12,12.12,0,0,1,3.5,1.23l-2.06,4.64a11.35,11.35,0,0,0-5.61-1.44,5.66,5.66,0,0,0-2.38.38,1.12,1.12,0,0,0-.75,1c0,.46.27.77.82.95a19,19,0,0,0,2.74.56,30.61,30.61,0,0,1,4,.83,6.09,6.09,0,0,1,2.75,1.71,4.87,4.87,0,0,1,1.17,3.47,5.25,5.25,0,0,1-1.12,3.3,7.24,7.24,0,0,1-3.29,2.28,14.59,14.59,0,0,1-5.24.83A20.55,20.55,0,0,1,221,450.93Z"/><path d="M238.84,428.45a3.49,3.49,0,0,1,0-5.18,4.3,4.3,0,0,1,3-1,4.49,4.49,0,0,1,3,1,3.23,3.23,0,0,1,1.15,2.54,3.5,3.5,0,0,1-1.15,2.68,4.85,4.85,0,0,1-6,0Zm-.4,3.21h6.84v19.51h-6.84Z"/><path d="M270.7,431.66V447.6c0,3.63-1,6.35-2.95,8.16s-4.8,2.72-8.5,2.72a21.71,21.71,0,0,1-5.4-.65,12.66,12.66,0,0,1-4.28-1.91l2.48-4.79a8.61,8.61,0,0,0,3,1.53,12.19,12.19,0,0,0,3.58.56,5.63,5.63,0,0,0,4-1.19,4.62,4.62,0,0,0,1.26-3.53v-.64a7.24,7.24,0,0,1-5.8,2.3,10,10,0,0,1-4.79-1.17,9,9,0,0,1-3.49-3.31,10.08,10.08,0,0,1,0-9.87,9,9,0,0,1,3.49-3.31,10,10,0,0,1,4.79-1.17q4.19,0,6.12,2.7v-2.37Zm-8,11.95a4,4,0,0,0,0-5.74,4.29,4.29,0,0,0-3.06-1.1,4.37,4.37,0,0,0-3.08,1.1,3.69,3.69,0,0,0-1.2,2.86,3.75,3.75,0,0,0,1.22,2.88,4.4,4.4,0,0,0,3.06,1.11A4.3,4.3,0,0,0,262.72,443.61Z"/><path d="M293.65,433.49q2.21,2.16,2.21,6.52v11.16H289V441.12q0-4-3.2-4a3.66,3.66,0,0,0-2.83,1.15,4.94,4.94,0,0,0-1.06,3.46v9.43h-6.84V431.66h6.51v2.12a7.78,7.78,0,0,1,2.74-1.82,9.3,9.3,0,0,1,3.46-.63A8,8,0,0,1,293.65,433.49Z"/><path d="M1098.32,402h6.3v10.44a16.45,16.45,0,0,1-5,2.37,19.52,19.52,0,0,1-5.62.83,15.12,15.12,0,0,1-7.13-1.67,12.52,12.52,0,0,1-5-4.66,13.63,13.63,0,0,1,0-13.54,12.36,12.36,0,0,1,5-4.66,15.37,15.37,0,0,1,7.24-1.68,16.12,16.12,0,0,1,6.33,1.19,12.2,12.2,0,0,1,4.68,3.42l-4.53,4.11a8,8,0,0,0-6.12-2.81,6.77,6.77,0,0,0-7.2,7.2,7.59,7.59,0,0,0,.9,3.72,6.4,6.4,0,0,0,2.52,2.56,7.39,7.39,0,0,0,3.7.92,9.17,9.17,0,0,0,3.86-.83Z"/><path d="M1129.35,395.66v19.51h-6.52v-2.09a7,7,0,0,1-2.59,1.8,8.43,8.43,0,0,1-3.2.61,8.16,8.16,0,0,1-6-2.23q-2.25-2.24-2.25-6.7v-10.9h6.84v9.79a5,5,0,0,0,.82,3.2,3,3,0,0,0,2.42,1,3.4,3.4,0,0,0,2.64-1.13,5,5,0,0,0,1-3.48v-9.39Z"/><path d="M1147.2,414.38a6.82,6.82,0,0,1-2.1.82,11.27,11.27,0,0,1-2.65.29,8.41,8.41,0,0,1-5.87-1.87,7.18,7.18,0,0,1-2-5.58v-6.55h-2.84v-5.11h2.84V391.3h6.84v5.08h4.46v5.11h-4.46V408a2.33,2.33,0,0,0,.56,1.64,2,2,0,0,0,1.49.59,3.62,3.62,0,0,0,2.09-.61Z"/><path d="M1169.09,407.14h-14.18a3.91,3.91,0,0,0,1.67,2.32,5.6,5.6,0,0,0,3.11.81,6.8,6.8,0,0,0,2.43-.39,7.16,7.16,0,0,0,2.07-1.3l3.6,3.74c-1.89,2.12-4.66,3.17-8.31,3.17a13.3,13.3,0,0,1-6-1.29,10,10,0,0,1-4-14,9.65,9.65,0,0,1,3.83-3.58,12.25,12.25,0,0,1,10.8-.09,9.16,9.16,0,0,1,3.76,3.49,10.19,10.19,0,0,1,1.39,5.42C1169.2,405.5,1169.16,406.06,1169.09,407.14Zm-12.94-6.05a4.05,4.05,0,0,0-1.35,2.45h8a4.05,4.05,0,0,0-1.35-2.45,4.34,4.34,0,0,0-5.29,0Z"/><path d="M1174.63,414.93a12.7,12.7,0,0,1-3.81-1.45l2-4.68a11.49,11.49,0,0,0,3.17,1.31,14.28,14.28,0,0,0,3.63.49,5.76,5.76,0,0,0,2.36-.35,1.05,1.05,0,0,0,.7-1c0-.43-.28-.73-.84-.91a17.77,17.77,0,0,0-2.68-.53,26.54,26.54,0,0,1-4-.75,6.14,6.14,0,0,1-2.83-1.73,5,5,0,0,1-1.19-3.53,5.35,5.35,0,0,1,1.12-3.33,7.35,7.35,0,0,1,3.26-2.3,13.85,13.85,0,0,1,5.13-.85,21.33,21.33,0,0,1,4.21.43,12,12,0,0,1,3.49,1.23l-2.05,4.64a11.39,11.39,0,0,0-5.62-1.44,5.58,5.58,0,0,0-2.37.38,1.12,1.12,0,0,0-.76,1c0,.46.28.77.83.95a18.44,18.44,0,0,0,2.74.56,30.41,30.41,0,0,1,4,.83,6.07,6.07,0,0,1,2.76,1.71,4.87,4.87,0,0,1,1.17,3.47,5.31,5.31,0,0,1-1.12,3.3,7.24,7.24,0,0,1-3.29,2.28,14.63,14.63,0,0,1-5.24.83A20.7,20.7,0,0,1,1174.63,414.93Z"/><path d="M1031.43,450a12.56,12.56,0,0,1-5-4.66,13.63,13.63,0,0,1,0-13.54,12.49,12.49,0,0,1,5-4.66,14.87,14.87,0,0,1,7.11-1.68,15.23,15.23,0,0,1,6.23,1.23,11.89,11.89,0,0,1,4.6,3.53l-4.53,4.1a7.45,7.45,0,0,0-5.94-2.95,7.35,7.35,0,0,0-3.66.9,6.26,6.26,0,0,0-2.48,2.54,8.47,8.47,0,0,0,0,7.52,6.32,6.32,0,0,0,2.48,2.54,7.35,7.35,0,0,0,3.66.9,7.48,7.48,0,0,0,5.94-2.95l4.53,4.1a12,12,0,0,1-4.6,3.53,15.39,15.39,0,0,1-6.23,1.22A15,15,0,0,1,1031.43,450Z"/><path d="M1055.75,450.2a9.63,9.63,0,0,1-5.37-8.82,9.6,9.6,0,0,1,5.35-8.77,13.24,13.24,0,0,1,11.36,0,9.59,9.59,0,0,1,3.92,3.56,9.89,9.89,0,0,1-3.92,14,13.11,13.11,0,0,1-11.34,0Zm8.6-5.39a4.82,4.82,0,0,0,1.15-3.43,4.75,4.75,0,0,0-1.15-3.39,4.18,4.18,0,0,0-5.9,0,4.76,4.76,0,0,0-1.16,3.39,4.83,4.83,0,0,0,1.16,3.43,4.11,4.11,0,0,0,5.9,0Z"/><path d="M1094.14,433.49c1.48,1.44,2.21,3.61,2.21,6.52v11.16h-6.84V441.12c0-2.66-1.06-4-3.2-4a3.66,3.66,0,0,0-2.83,1.15,5,5,0,0,0-1.06,3.46v9.43h-6.84V431.66h6.52v2.12a7.83,7.83,0,0,1,2.73-1.82,9.3,9.3,0,0,1,3.46-.63A8,8,0,0,1,1094.14,433.49Z"/><path d="M1119.2,433.49q2.21,2.16,2.21,6.52v11.16h-6.84V441.12q0-4-3.2-4a3.66,3.66,0,0,0-2.83,1.15,4.94,4.94,0,0,0-1.06,3.46v9.43h-6.84V431.66h6.51v2.12a7.78,7.78,0,0,1,2.74-1.82,9.3,9.3,0,0,1,3.46-.63A8,8,0,0,1,1119.2,433.49Z"/><path d="M1145.82,443.14h-14.19a4,4,0,0,0,1.68,2.32,5.58,5.58,0,0,0,3.11.81,6.8,6.8,0,0,0,2.43-.39,7.16,7.16,0,0,0,2.07-1.3l3.6,3.74c-1.89,2.12-4.67,3.17-8.31,3.17a13.37,13.37,0,0,1-6-1.29,9.85,9.85,0,0,1-.21-17.57,12.25,12.25,0,0,1,10.8-.09,9.16,9.16,0,0,1,3.76,3.49,10.28,10.28,0,0,1,1.39,5.42C1145.93,441.5,1145.89,442.06,1145.82,443.14Zm-12.94-6.05a4.05,4.05,0,0,0-1.35,2.45h8a4.05,4.05,0,0,0-1.35-2.45,4.34,4.34,0,0,0-5.29,0Z"/><path d="M1153.27,450.2a9.58,9.58,0,0,1-5.4-8.82,9.47,9.47,0,0,1,5.4-8.77,12.82,12.82,0,0,1,5.8-1.28,11.16,11.16,0,0,1,5.72,1.42,7.88,7.88,0,0,1,3.42,3.95l-5.29,2.7a4.19,4.19,0,0,0-3.89-2.63,4.11,4.11,0,0,0-3,1.22,4.61,4.61,0,0,0-1.21,3.39,4.68,4.68,0,0,0,1.21,3.43,4.06,4.06,0,0,0,3,1.25,4.21,4.21,0,0,0,3.89-2.63l5.29,2.7a7.86,7.86,0,0,1-3.42,3.94,11.06,11.06,0,0,1-5.72,1.42A12.69,12.69,0,0,1,1153.27,450.2Z"/><path d="M1184.59,450.38a6.88,6.88,0,0,1-2.11.82,11.19,11.19,0,0,1-2.64.29,8.39,8.39,0,0,1-5.87-1.87,7.18,7.18,0,0,1-2-5.58v-6.55h-2.85v-5.11h2.85V427.3h6.84v5.08h4.46v5.11h-4.46V444a2.28,2.28,0,0,0,.56,1.64,2,2,0,0,0,1.49.59,3.62,3.62,0,0,0,2.09-.61Z"/><path d="M1187.61,428.45a3.49,3.49,0,0,1,0-5.18,4.33,4.33,0,0,1,3-1,4.48,4.48,0,0,1,3,1,3.19,3.19,0,0,1,1.15,2.54,3.47,3.47,0,0,1-1.15,2.68,4.85,4.85,0,0,1-6.05,0Zm-.39,3.21h6.84v19.51h-6.84Z"/><path d="M1202.62,450.2a9.87,9.87,0,0,1-3.94-3.6,9.83,9.83,0,0,1,3.93-14,12.27,12.27,0,0,1,5.67-1.28,12.4,12.4,0,0,1,5.68,1.28,9.62,9.62,0,0,1,3.93,3.56,9.88,9.88,0,0,1-3.93,14,13.11,13.11,0,0,1-11.34,0Zm8.61-5.39a4.82,4.82,0,0,0,1.15-3.43,4.75,4.75,0,0,0-1.15-3.39,4.19,4.19,0,0,0-5.91,0,4.8,4.8,0,0,0-1.15,3.39,4.87,4.87,0,0,0,1.15,3.43,4.12,4.12,0,0,0,5.91,0Z"/><path d="M1241,433.49q2.2,2.16,2.21,6.52v11.16h-6.84V441.12q0-4-3.2-4a3.66,3.66,0,0,0-2.83,1.15,4.94,4.94,0,0,0-1.06,3.46v9.43h-6.84V431.66H1229v2.12a7.74,7.74,0,0,1,2.73-1.82,9.3,9.3,0,0,1,3.46-.63A8,8,0,0,1,1241,433.49Z"/></g><g id="Layer_2" data-name="Layer 2"><path class="cls-5" d="M1003,76.32c-2.66-.14-5.48-.24-7.8,1.05-5.29,2.94-4.78,10.58-3.56,16.5q28.44,137.32,56.89,274.66c97.54-49,183.9-175.53,251.9-251.53C1300.44,117,1094.2,81.22,1003,76.32Z"/><path class="cls-5" d="M1003,71.32C995,71,988,74,986.27,82.54c-1.67,8.23,1.53,17.34,3.18,25.32l13.11,63.31q13.13,63.3,26.23,126.61l14.92,72.08c.7,3.34,4.66,4.34,7.35,3,41.34-20.89,76.79-52.28,109-85.19,34.22-35,65.23-73,96.31-110.75,15.63-19,31.26-38,47.66-56.36,2.27-2.55,1.75-7.67-2.21-8.36-25.17-4.37-50.39-8.47-75.63-12.47-49.8-7.89-99.69-15.35-149.75-21.39-24.39-2.95-48.84-5.66-73.38-7-6.43-.35-6.41,9.65,0,10,46.69,2.55,93.23,9.18,139.48,15.79q65.21,9.31,130.16,20.24,13.23,2.19,26.46,4.47l-2.2-8.36c-62.24,69.67-115.86,147.7-187.85,208.16-19.46,16.34-40.33,31.11-63,42.59l7.35,3q-24-115.9-48-231.8l-6.86-33.12c-.93-4.51-2.3-9.14-2.59-13.75-.11-1.7-.27-4.17.71-5.66,1.37-2.08,4.19-1.64,6.4-1.55C1009.45,81.6,1009.44,71.6,1003,71.32Z"/><path class="cls-6" d="M1017.36,167.81c-17.25-.44-46.36-17.38-42.88-47.51,3.22-27.86,58.22-43.48,80.44-39.06,21.54,4.3,42.58,26.18,41.24,53-1.16,23.17-23.56,28.94-35.56,32.57,22.26,16.54,31.35,41.18,36.73,68.38.34,1.7.64,3.59-.3,5-1.12,1.72-3.45,2.05-5.49,2.21a1084.42,1084.42,0,0,1-117.94,2.76,6.22,6.22,0,0,1-3.26-.71,3.93,3.93,0,0,1-2-3.24C973.32,185.19,1017.36,167.81,1017.36,167.81Z"/><path d="M1017.36,162.81c-15.86-.64-32.32-12.79-36.8-28.08-2.34-8-2-16.74,2.92-23.63,4.52-6.28,11.38-10.72,18.15-14.24,14.21-7.37,31.63-12.18,47.75-11.28,19.81,1.11,36.83,18.48,40.91,37.27,2.34,10.8.62,22.07-8.37,29.23-6.53,5.2-14.8,7.52-22.65,9.88-4.46,1.34-4.52,6.62-1.19,9.14,17.27,13.09,26.45,32.73,31.71,53.27.64,2.5,1.22,5,1.77,7.53.27,1.25,1.09,3.32,1,4.59s-.14,1,.19.73c-1.39,1.16-7,.62-9,.76q-5.88.42-11.77.77-20.62,1.23-41.28,1.68t-41.31.1q-4.92-.08-9.83-.2c-1.15,0-3.89.4-4.92-.14-1.47-.78-1.11.46-.92-2.08a74.48,74.48,0,0,1,3.28-15.62,82.66,82.66,0,0,1,24.23-38.17,76.24,76.24,0,0,1,12.56-9.07c1.42-.83,2.88-1.57,4.35-2.31,1-.52,1.93-.83.61-.31,5.9-2.35,3.33-12-2.66-9.64-25.09,10-43.41,35.3-49.83,60.82-1.35,5.39-3.05,11.8-2.86,17.4.24,7,6.43,8.81,12.22,9,16.38.56,32.79.59,49.18.32s32.78-.9,49.14-1.91c6.9-.43,14.77,0,21.48-1.76,6.37-1.69,7.83-7.18,6.8-13-4.88-27.55-16.29-54.13-39-71.37l-1.2,9.13c8.62-2.59,17.43-5.3,24.78-10.69a34.68,34.68,0,0,0,14.47-27.47c.91-25.48-17.87-50-42.45-56.45-18.54-4.84-40.54,1.34-57.46,9-18.52,8.35-34.4,22.6-31.71,44.55,2.81,23,25,41.38,47.8,42.3C1023.79,173.07,1023.78,163.07,1017.36,162.81Z"/><path class="cls-7" d="M1194.66,197.94c-17.25-.44-46.35-17.38-42.88-47.51,3.22-27.86,58.22-43.48,80.44-39.06,21.54,4.29,42.58,26.18,41.24,53-1.16,23.17-23.56,28.94-35.56,32.57,22.26,16.54,31.35,41.18,36.74,68.38.33,1.7.63,3.59-.31,5-1.12,1.72-3.45,2.05-5.49,2.21a1084.42,1084.42,0,0,1-117.94,2.76,6.22,6.22,0,0,1-3.26-.71,3.93,3.93,0,0,1-2-3.24C1150.62,215.32,1194.66,197.94,1194.66,197.94Z"/><path d="M1194.66,192.94c-15.86-.64-32.32-12.79-36.8-28.08-2.34-8-2-16.74,2.92-23.63,4.53-6.28,11.38-10.72,18.15-14.24,14.21-7.37,31.64-12.18,47.75-11.28,19.81,1.11,36.84,18.48,40.91,37.27,2.34,10.8.62,22.07-8.37,29.23-6.53,5.2-14.8,7.51-22.65,9.88-4.45,1.34-4.52,6.62-1.19,9.14,17.27,13.09,26.45,32.73,31.71,53.27.64,2.5,1.22,5,1.77,7.53.27,1.25,1.09,3.32,1,4.59s-.14,1,.19.73c-1.39,1.16-7,.62-9,.76q-5.88.42-11.77.77-20.62,1.23-41.28,1.68t-41.31.1q-4.92-.07-9.83-.2c-1.15,0-3.89.4-4.92-.14-1.47-.78-1.11.46-.92-2.08a75.12,75.12,0,0,1,3.28-15.62,82.61,82.61,0,0,1,24.23-38.17,76.24,76.24,0,0,1,12.56-9.07c1.43-.83,2.88-1.57,4.35-2.31,1-.52,1.93-.83.61-.31,5.9-2.35,3.33-12-2.66-9.64-25.09,10-43.41,35.3-49.83,60.81-1.35,5.4-3,11.81-2.86,17.41.24,7,6.44,8.81,12.22,9,16.38.56,32.79.58,49.18.32s32.78-.9,49.14-1.91c6.9-.43,14.77,0,21.48-1.76,6.37-1.69,7.83-7.18,6.8-13-4.88-27.54-16.29-54.12-39-71.37l-1.2,9.14c8.62-2.59,17.44-5.3,24.78-10.69a34.69,34.69,0,0,0,14.48-27.47c.91-25.48-17.88-50-42.46-56.45-18.54-4.85-40.53,1.34-57.46,9-18.52,8.35-34.4,22.6-31.71,44.55,2.81,23,25,41.38,47.8,42.3C1201.09,203.2,1201.08,193.2,1194.66,192.94Z"/><path class="cls-8" d="M1092.68,268.63c-17.24-.44-46.35-17.38-42.88-47.51,3.22-27.86,58.23-43.48,80.44-39.06,21.54,4.29,42.58,26.18,41.24,53-1.16,23.18-23.56,29-35.55,32.58,22.26,16.53,31.34,41.18,36.73,68.38.33,1.69.63,3.59-.31,5-1.12,1.72-3.45,2.05-5.49,2.2A1081.84,1081.84,0,0,1,1048.92,346a6.12,6.12,0,0,1-3.25-.72,3.91,3.91,0,0,1-2-3.23C1048.65,286,1092.68,268.63,1092.68,268.63Z"/><path d="M1092.68,263.63c-15.85-.64-32.32-12.79-36.8-28.08-2.34-8-2-16.74,2.93-23.63,4.52-6.28,11.37-10.72,18.14-14.24,14.21-7.38,31.64-12.19,47.76-11.28,19.8,1.11,36.83,18.48,40.9,37.27,2.35,10.8.62,22.07-8.37,29.23-6.53,5.19-14.8,7.51-22.64,9.88-4.46,1.34-4.52,6.62-1.2,9.14,17.27,13.09,26.45,32.73,31.71,53.27q1,3.75,1.78,7.53c.27,1.25,1.09,3.32.95,4.59s-.14,1,.19.73c-1.39,1.16-7,.62-9,.76q-5.89.42-11.78.77-20.62,1.23-41.28,1.68t-41.31.1q-4.9-.08-9.83-.21c-1.15,0-3.89.41-4.92-.13-1.47-.78-1.1.46-.92-2.08a75.12,75.12,0,0,1,3.28-15.62,82.61,82.61,0,0,1,24.23-38.17,76.67,76.67,0,0,1,12.56-9.07c1.43-.83,2.89-1.57,4.35-2.31,1-.52,1.93-.83.61-.31,5.91-2.35,3.33-12-2.66-9.64-25.08,10-43.41,35.3-49.82,60.81-1.36,5.4-3.06,11.81-2.87,17.41.25,7,6.44,8.81,12.23,9,16.38.56,32.79.58,49.17.32s32.78-.9,49.14-1.91c6.9-.43,14.78,0,21.48-1.76,6.37-1.69,7.84-7.18,6.8-13-4.87-27.54-16.28-54.12-39-71.37l-1.2,9.14c8.62-2.6,17.44-5.3,24.78-10.69a34.66,34.66,0,0,0,14.48-27.48c.91-25.47-17.87-50-42.46-56.44-18.54-4.85-40.53,1.34-57.45,9-18.53,8.35-34.4,22.6-31.72,44.55,2.81,23,25,41.38,47.8,42.3C1099.12,273.89,1099.11,263.89,1092.68,263.63Z"/><path class="cls-9" d="M104.09,118.82c-7.51,3.37-15.54,7.21-19.44,14.46-4.5,8.34-2.17,18.55.25,27.71,13.69,51.62,37.22,137.26,50.91,188.89,1,3.92,2.24,8.1,5.38,10.66s11.22,2.55,15.1,1.93c61.75-9.84,135.87-29.35,189.37-44.67,3.08-.88,6.29-1.83,8.67-4,5.25-4.73,4.52-13,3.88-20C351.31,217.57,313,133,301.27,57.3,301.27,57.3,153.42,96.66,104.09,118.82Z"/><path class="cls-9" d="M101.57,114.5c-10.71,4.84-21.41,11.14-23.87,23.61-2.23,11.3,2,23,4.93,33.8q8.88,33.26,17.92,66.46,9.61,35.47,19.21,71,4.36,16.14,8.67,32.28c2.42,9.06,3.81,21.95,14.24,25.11,10.86,3.28,23.92-.84,34.65-2.81,13.11-2.4,26.17-5.06,39.19-7.9,26.85-5.86,53.54-12.46,80.11-19.49q18.76-5,37.44-10.23c10.13-2.84,24-4.33,28.13-15.58,2-5.39,1.53-11.29,1-16.89-.59-6.5-1.4-13-2.36-19.45-1.92-13-4.55-25.88-7.57-38.67C339,175.45,315.72,117.31,306.09,56c-.42-2.69-3.77-4.12-6.15-3.49-51.53,13.72-103,28.27-153.57,45.21-15.12,5.06-30.24,10.3-44.8,16.81-5.87,2.62-.79,11.24,5,8.63,28.17-12.58,58.33-21.24,87.79-30.19,29.79-9,59.74-17.58,89.77-25.82,6.14-1.68,12.28-3.36,18.43-5l-6.15-3.49c8,50.83,25.49,99.56,39.22,149,6.64,23.91,12.65,48.12,16,72.73.8,5.9,1.54,11.86,1.87,17.81s0,11.43-6.14,13.88c-10.36,4.12-22,6.31-32.7,9.25-48.4,13.27-97.25,25.49-146.7,34.18-5.33.94-10.83,2.3-16.26,2.34-2,0-4.58.08-6.43-.72-2.74-1.2-3.53-4.38-4.3-7.05-2.69-9.27-5-18.67-7.49-28Q124.83,289.6,116,257.18,106.2,221,96.45,184.82c-2.83-10.54-6.11-21.08-8.33-31.77-1.39-6.63-2-14.13,2.49-19.77,3.92-4.95,10.42-7.63,16-10.15C112.47,120.49,107.39,111.87,101.57,114.5Z"/><path class="cls-10" d="M133.53,274.75c3.27,1.72,17.11,73.12,16.47,74.17-.86,1.41-67.48,9.54-68.47,8.84-1.45-1-9.74-60.43-11-72.73C70.51,285,131.19,273.52,133.53,274.75Z"/><path d="M131,279.07c-.48-.34-1.81-1.11-1.23-1,.32,0,0-.1.06.13.28,1.07.73,2.12,1,3.18,1,3.19,1.76,6.42,2.54,9.65,2.12,8.75,4,17.56,5.8,26.38,1.65,8.07,3.24,16.15,4.68,24.26.23,1.29.45,2.57.66,3.86l.27,1.66c.16,1,.57,1.19.08.47.63.92-1.26,3.56,1.27-.89,1.54-2.71,3-2.47.42-2-15.52,2.6-31.14,4.56-46.78,6.35-3.67.43-7.34.84-11,1.2-1.82.19-4.75-.14-6.45.54-.1,0-.52-.07-.58,0,.69-.82,4.61,2.58,4.3,3a13.46,13.46,0,0,0-.65-2.69c-.67-3.21-1.19-6.45-1.72-9.68-3.18-19.38-6.15-38.9-8.21-58.44l-3.67,4.82q14.8-2.81,29.63-5.42c7-1.25,14.1-2.47,21.17-3.56,2.36-.36,4.56-.71,6.81-1,.87-.09,1.75-.1,2.61-.23,1.1-.17,1.32.33.14-.11,6.05,2.23,8.65-7.43,2.66-9.64-3.54-1.31-9,.43-12.54.94-7.19,1.06-14.35,2.3-21.51,3.56Q85,277.22,69.18,280.21A5,5,0,0,0,65.51,285c2.06,19.53,5,39,8.13,58.41.62,3.87,1.23,7.75,2,11.6.43,2.11.75,4.66,2.36,6.25,3.44,3.43,12.62.79,16.69.34,17.82-2,35.92-3.69,53.54-7.09,2.27-.44,4.83-.89,6.09-3.1s.53-4.52.2-6.73c-1.13-7.45-2.63-14.85-4.09-22.24-2.2-11.13-4.5-22.26-7.16-33.31-1.29-5.39-2.22-15.24-7.22-18.73C130.77,266.74,125.76,275.41,131,279.07Z"/><path class="cls-6" d="M196.25,190.83c-14.38-14.88-33.86-48.7-23.53-66.62S205,96.13,225.5,99s38.53,18.1,45.64,37.53c4,11,4.68,23.61.05,34.41s-15,19.38-26.73,20.19c1.33,8.32,17.25,6.38,25.61,7.43,16.64,2.09,64.31,8.39,66.11,18.73,2.17,12.44,2.33,19-9.91,22-17.63,4.41-54,2.13-55,3.52-1.38,2-1.19,4.67-.95,7.09l6.36,63.41c.53,5.31,1,11-1.72,15.64-3.44,5.87-10.74,8-17.35,9.59-5,1.21-10.35,2.38-15,.3-11.94-5.33-8.93-40.05-15.54-46.66-1.1,5.51-22.19,39.09-31.66,41.64s-21,.24-26.34-8-3.23-28.47-1.5-38.06c2-11.15,15-45.67,6.61-50.68-16.53-9.92-45.63-2-49.59-30.86-.27-2,0-14.32,9.13-16C141,188.88,196.25,190.83,196.25,190.83Z"/><path d="M199.78,187.29a99.74,99.74,0,0,1-22.4-37c-2-6.11-3.54-13-2-19.36,1.7-6.93,7.66-13,13.17-17.27A49,49,0,0,1,234,106.15a53.91,53.91,0,0,1,32.92,33.28c6,18.11.18,44.48-22.41,46.68-3.29.32-5.62,2.93-4.83,6.33,2.78,11.85,18.72,10.25,27.94,10.88,9.56.65,19.21,2.42,28.63,4.11,10.17,1.82,21.22,3.56,30.63,8a23,23,0,0,1,3.72,2.15,3.1,3.1,0,0,1,.75.76,15.36,15.36,0,0,0,.4,2.25c.57,3.66,1.87,9.14-1.52,11.8-3.89,3.05-11,3.3-15.69,3.76-6.24.62-12.53.85-18.8,1-5.6.11-11.2.09-16.81.15-2.73,0-6.11-.28-8.75.6-6.94,2.33-4.72,12.67-4.18,18l3,29.72c.95,9.51,2,19,2.86,28.54.77,8.39-.26,14.57-8.81,17.71-5.24,1.93-16.1,6.08-20.23.71-3-3.89-3.72-9.94-4.53-14.61-1.58-9.08-1-22-7.59-29.28-2.5-2.75-7.5-1.35-8.35,2.21-.64,2.67-2.81,6-4.53,8.91-2.88,4.86-6,9.59-9.33,14.17a84,84,0,0,1-10.33,12.19c-3.78,3.53-8,4.24-13.41,3.49-16-2.21-14.62-19.41-13.45-31.71,1-10.77,4.45-20.86,7.12-31.28,2.2-8.59,6.74-22.17,1.65-30.55-2.49-4.1-8-5.83-12.34-7.16-5-1.53-10.18-2.32-15.28-3.41-10.74-2.27-20.1-6.07-22.47-17.91-.68-3.37-.44-7.9,1.87-10.65s4.09-2,7.8-2.13c18.86-.52,37.82.34,56.67,1,6.43.22,6.42-9.78,0-10-18.51-.65-37.09-1.42-55.61-1-3.85.08-8,0-11.52,1.73-5.3,2.59-8.15,8.11-9.1,13.72a29.18,29.18,0,0,0,14.11,29.59c10.38,5.91,22.71,5.37,33.63,9.65,4.5,1.77,4.48,2.6,4.14,7.9-.4,6.38-2.16,12.72-3.79,18.88-3.16,11.91-6.43,23.23-7.2,35.62-.92,15,.88,31,17.21,36.42,6.56,2.17,15.71,2.51,21.88-1.07,5.17-3,9.23-8.1,12.86-12.72a181.09,181.09,0,0,0,12.5-18c2.42-4,5.46-8.42,6.56-13l-8.36,2.21c1.76,1.94,2.42,7.78,2.92,11,.88,5.51,1.5,11.07,2.59,16.55,2.21,11.11,7,22.08,20.11,21.73,14.56-.38,31.88-7.14,32.88-23.58.58-9.46-1.49-19.48-2.44-28.89l-3.08-30.71-.79-7.92c-.09-.91.09-6.41-.57-6.93-.15-.12-3,.48-2.58.55a13.1,13.1,0,0,0,2.41-.14c5-.19,10.05-.09,15.06-.14,12.7-.13,26.55.22,38.83-3.45,5.22-1.56,10.05-4.41,12.15-9.65s1.18-11.4.19-16.83c-1.65-9-12.16-12.11-19.78-14.4-12.79-3.84-26.14-5.9-39.34-7.76-5.37-.76-10.77-1.65-16.19-1.91-3.44-.17-15.62.94-16.65-3.45l-4.82,6.33C266.24,194,280.06,174,279.39,153c-.66-20.79-13-40.06-30.56-50.77a58.85,58.85,0,0,0-56.05-2.71C176.69,107.1,163,122.34,165.12,141c2.2,19.68,14.15,39.25,27.59,53.37C197.15,199,204.22,192,199.78,187.29Z"/><path class="cls-11" d="M288.64,161.58c32.6,5.26,101.74,2.3,102.49,1.09s-34-69.43-50.83-92.37C340.3,70.3,295.13,135.31,288.64,161.58Z"/><path d="M287.31,166.4c17.76,2.8,35.9,3.15,53.84,3.2,15,0,30-.1,45-1.27,3.5-.27,8.74-.07,9.85-4.37.85-3.28-1.73-7.13-3-9.94-6.36-13.53-13.42-26.75-20.55-39.88-8.56-15.76-17.16-31.85-27.74-46.36-2.29-3.14-6.37-3.27-8.63,0-8.24,11.86-16.11,24-23.71,36.28-6.15,9.94-12.12,20-17.54,30.39-4.28,8.21-8.61,16.78-10.92,25.8-1.6,6.24,8.05,8.9,9.64,2.66,2.29-8.93,6.66-17.3,11-25.39,5.32-10,11.13-19.77,17.11-29.4,7.41-11.94,15.07-23.75,23.09-35.3H336c8.55,11.74,15.67,24.57,22.72,37.24q11.27,20.23,21.65,41c1.76,3.54,4,8.84,5.49,11.47-.39-.7.23.74.3.79,1.74,1.16,4-4.09,3.27-5.28,0,0-.6.13-.65.11.36.12,1.08,0,.38-.05-.9,0-1.86.18-2.75.25-13.34,1.08-26.8,1.23-40.17,1.28-18.67.08-37.77.08-56.26-2.83C283.68,155.76,281,165.4,287.31,166.4Z"/><path class="cls-12" d="M551.61,97.37c-35.1,32.65-37.82,133.51-26.56,170.74,12.33,40.79,74.93,97.7,137.69,92.56,59.81-4.9,111.78-25.21,139.28-57.46,21.66-25.4,46.48-62.61,43.87-120.31C842.54,108.86,740.07,50,701.48,49,668.78,48.17,592.4,59.43,551.61,97.37Z"/><path class="cls-12" d="M548.07,93.84c-21.92,20.77-28.37,55.39-31.77,84a311.52,311.52,0,0,0-1.9,49.89c.55,13.21,1.73,26.75,5.21,39.54,4,14.82,12.59,28.09,22.27,39.83a175.13,175.13,0,0,0,44,37.89c16.74,10.17,35.37,17.5,54.86,20,21.39,2.78,43.92-1.12,64.82-5.71,37-8.14,75.57-23.84,100.66-53.4,23.37-27.53,39.69-59.37,43.78-95.59,2.08-18.38,1.69-37.36-4.59-54.92-5.58-15.6-14.59-29.64-25.28-42.22C799.5,88.92,772.26,69.29,743.33,56c-11-5-22.59-9.56-34.63-11.34s-24.47-.48-36.39.89c-35.57,4.11-72.18,13.47-103,32.29a136.57,136.57,0,0,0-21.27,16c-4.75,4.36,2.34,11.42,7.07,7.07,25.52-23.45,60.69-35,94.08-41.66,23.42-4.64,48.86-8.68,72.06-1.22,26.83,8.62,52.1,24.56,73.06,43.2,22.32,19.85,43.09,46.3,46.21,77,3.74,36.8-7.44,73.67-28.35,103.78-8.64,12.43-18.47,24.26-30.47,33.59-14.5,11.27-31.36,19.5-48.63,25.57a275.52,275.52,0,0,1-61.62,13.66c-19.55,2.11-38,.4-56.45-6.57-32.29-12.17-62.88-37.23-79.34-67.81-12.36-22.95-12.28-52-11.33-77.38,1.1-29.46,5-62.11,19.95-88.11a60.72,60.72,0,0,1,10.83-14.06C559.82,96.47,552.75,89.41,548.07,93.84Z"/><path class="cls-6" d="M848,200.75c-12.37.35-30.45-4.86-35.11-16.33s7.41-102.6-1.63-111.06c-7.47-7-187.94-7.35-201.7,4.9S600.57,193,615.24,200.75s93,3.15,109,3.6C730.83,204.54,848,200.75,848,200.75Z"/><path d="M848,195.75c-9,.13-19.54-1.94-26.54-8-4.47-3.89-4.46-6.6-4.62-11.52-.45-13.57.73-27.24,1.47-40.78.81-14.92,1.82-29.93,1.31-44.88-.25-7.09.18-19.47-8-22.54-6.11-2.32-13.52-2.33-20-2.8C779.48,64.33,767.25,64,755,63.73c-30.11-.57-60.28-.26-90.36,1.35-12.3.66-24.62,1.52-36.84,3.2-6.55.9-14.61,1.55-20.32,5.26-7.86,5.12-8.83,18.34-9.81,26.63-1.79,15-1.65,30.29-.75,45.35.84,14.08,2.22,28.52,6,42.17,2.46,9,5.71,16.93,15.36,19.43,13.47,3.49,28.37,3.08,42.16,3.16,16.31.1,32.61-.37,48.92-.76q66.78-1.58,133.57-3.61l5-.16c6.42-.21,6.45-10.21,0-10-41,1.33-82.15,3.73-123.18,3.61-27.24-.08-54.47,1.71-81.71.53a137.42,137.42,0,0,1-18.89-1.71,36.44,36.44,0,0,1-5.92-1.51,3.15,3.15,0,0,1-1.53-1.24c-5.67-8-6.78-20.94-8-30.59a302.59,302.59,0,0,1-2.27-46c.27-10.69.5-24.31,4.54-33.68a13.86,13.86,0,0,1,1.8-3.09c1-1.07-.87.63.18-.12.31-.22,2-1,.64-.38a47.72,47.72,0,0,1,9.55-2.47c10.32-1.9,20.86-2.67,31.31-3.37,29-2,58.2-2.4,87.29-2.15,13,.11,26.08.38,39.1,1,4.87.24,9.73.53,14.59,1a92.47,92.47,0,0,1,9.77,1.17c1,.19,2,.43,2.94.68,1.42.37-1-.71-.7-.82s.9,2.25,1.19,3.62a48.31,48.31,0,0,1,.74,6.43c.91,14,0,28.24-.77,42.26s-1.82,28.29-1.88,42.45c0,4.21-.15,8.76.85,12.89,1.73,7.21,8.07,12.62,14.45,15.81A56.47,56.47,0,0,0,848,205.75C854.39,205.66,854.41,195.66,848,195.75Z"/><path class="cls-13" d="M517.25,342c12.38.35,30.46-4.86,35.11-16.33S545,187.16,554,178.7c7.47-7,224.68-7.35,238.44,4.9s8.95,150.68-5.71,158.42-93,3.15-109,3.6C671.13,345.81,517.25,342,517.25,342Z"/><path d="M517.25,347c16.38.24,39.21-6.8,40.9-25.81,1.21-13.63.05-27.66-.47-41.3-.72-18.67-1.6-37.33-2-56-.26-12.71-1.38-28,1.33-39.62.18-.78.44-1.53.66-2.3-.36,1.27-.1.1,0,.14-.15-.09.28,0-.12.12-1.68.51.35.58-1.2.75.47-.05,1-.31,1.43-.41,1.4-.3,2.8-.55,4.21-.75-1.23.17,1.1-.13,1.57-.18,1.11-.13,2.23-.24,3.34-.34,12.74-1.19,25.56-1.58,38.35-1.92q53.63-1.41,107.32.43c16,.53,32,1.25,47.89,2.66,9.42.83,18.63,1.32,27.68,4.39,1.42.48-.78-.31.64.28s-.12-.32.34.17c.68.72-.25-.61.52.75a5.54,5.54,0,0,1,.84,1.78,70.3,70.3,0,0,1,3.28,15.87c2,17,2.1,34.25,1.72,51.33-.41,17.94-1.4,36-4,53.79a139.22,139.22,0,0,1-3.88,19.2,29.08,29.08,0,0,1-2.08,5.68c-.38.71-.87,1.37-1.25,2.07.23-.43.1-.17,0-.09a37.3,37.3,0,0,1-6.78,1.81,105.48,105.48,0,0,1-10.94,1.22c-9.66.7-19.37.83-29.05.84-18.16,0-36.3-.78-54.45-1-23.23-.24-46.45-.75-69.68-1.29q-45.31-1.05-90.63-2.17l-5.42-.13c-6.44-.16-6.43,9.84,0,10q35.82.89,71.65,1.73c28.91.68,57.84,1.69,86.76,1.87,32.51.2,65.68,3.27,98-.56,5.46-.65,13-1.09,17.29-5,3.2-2.91,4.75-7.51,6-11.52,4.53-14.71,5.79-30.7,7-46a530.51,530.51,0,0,0,1.44-57.37c-.41-13.74-.55-28.93-5-42.11-2.85-8.5-8.26-11-16.6-12.63C771.4,173,758.63,172.2,746,171.39c-36.3-2.33-72.77-2.75-109.14-2.5-16.3.11-32.6.39-48.88,1.09-10.32.45-20.92.7-31.11,2.58-8.76,1.63-9.85,8.76-10.63,16.68-1.54,15.71-.73,31.74-.24,47.48.59,18.87,1.54,37.74,2.12,56.62.22,7.09.42,14.2.29,21.3,0,2.34-.13,4.67-.33,7-.13,1.55.27-.13-.18,1.32a10.31,10.31,0,0,1-.87,2.23c-5.15,9.44-20.17,12-29.81,11.84C510.81,336.93,510.81,346.93,517.25,347Z"/></g></svg>