<svg xmlns="http://www.w3.org/2000/svg" viewBox="0 0 492.95 106.89"><defs><style>.cls-1{font-size:41.21px;fill:#231f20;font-family:Arial-BoldMT, Arial;}.cls-1,.cls-3{font-weight:700;}.cls-2{font-size:82px;fill:#333;font-family:Heebo-Regular, Heebo;}.cls-3{font-family:Heebo-Bold, Heebo;}.cls-4{fill:none;stroke:#a7a6a6;}.cls-4,.cls-6,.cls-7,.cls-8{stroke-miterlimit:10;}.cls-4,.cls-5,.cls-6,.cls-7,.cls-8{stroke-width:0.96px;}.cls-5{fill:#ffcd05;stroke:#cca42c;}.cls-6{fill:#28baed;stroke:#0b89b2;}.cls-7{fill:#ed1c6c;stroke:#cc1d59;}.cls-8{fill:#6bb545;stroke:#50883e;}</style></defs><title>registerd_newLogo_SciencEd</title><g id="Layer_2" data-name="Layer 2"><g id="heebo"><g id="standard"><text class="cls-1" transform="translate(461.86 39.68)">®</text><text class="cls-2" transform="translate(118.52 79.38)">Scienc<tspan class="cls-3" x="243.36" y="0">Ed</tspan></text><path class="cls-4" d="M13.19,52.58h44.5"/><path class="cls-4" d="M35.44,13.24,57.69,51.92"/><path class="cls-4" d="M79.94,13.24,57.69,51.92"/><path class="cls-4" d="M102.19,52.58H57.69"/><path class="cls-4" d="M79.94,90.6,57.69,51.92"/><path class="cls-4" d="M35.44,90.59,57.69,51.92"/><path class="cls-5" d="M57.69,74.89a23,23,0,1,0-22.88-23A22.94,22.94,0,0,0,57.69,74.89Z"/><path class="cls-6" d="M13.19,64.68A12.76,12.76,0,1,0,.48,51.92,12.74,12.74,0,0,0,13.19,64.68Z"/><path class="cls-7" d="M35.44,26A12.76,12.76,0,1,0,22.73,13.24,12.74,12.74,0,0,0,35.44,26Z"/><path class="cls-6" d="M79.94,26A12.76,12.76,0,1,0,67.23,13.24,12.73,12.73,0,0,0,79.94,26Z"/><path class="cls-8" d="M102.19,64.68A12.76,12.76,0,1,0,89.48,51.92,12.75,12.75,0,0,0,102.19,64.68Z"/><path class="cls-6" d="M79.94,103.36A12.77,12.77,0,1,0,67.23,90.59,12.75,12.75,0,0,0,79.94,103.36Z"/><path class="cls-6" d="M35.44,103.36A12.77,12.77,0,1,0,22.73,90.59,12.74,12.74,0,0,0,35.44,103.36Z"/></g></g></g></svg>