<svg xmlns="http://www.w3.org/2000/svg" viewBox="0 0 1200.38 241.88"><defs><style>.cls-1{font-size:96px;fill:#231f20;font-family:Arial-BoldMT, Arial;font-weight:700;}.cls-2{fill:none;stroke:#a7a6a6;}.cls-2,.cls-4,.cls-5,.cls-6{stroke-miterlimit:10;}.cls-2,.cls-3,.cls-4,.cls-5,.cls-6{stroke-width:2.23px;}.cls-3{fill:#ffcd05;stroke:#cca42c;}.cls-4{fill:#28baed;stroke:#0b89b2;}.cls-5{fill:#ed1c6c;stroke:#cc1d59;}.cls-6{fill:#6bb545;stroke:#50883e;}.cls-7{fill:#333;}</style></defs><title>registered_ScienceEd</title><g id="Layer_2" data-name="Layer 2"><g id="Layer_2-2" data-name="Layer 2"><text class="cls-1" transform="translate(1127.94 92.44)">®</text><path class="cls-2" d="M30.73,122.49H134.4"/><path class="cls-2" d="M82.56,30.84,134.39,121"/><path class="cls-2" d="M186.23,30.84l-51.83,90.1"/><path class="cls-2" d="M238.06,122.49H134.4"/><path class="cls-2" d="M186.23,211.05,134.4,121"/><path class="cls-2" d="M82.56,211l51.83-90.1"/><path class="cls-3" d="M134.4,174.45A53.51,53.51,0,1,0,81.08,121,53.4,53.4,0,0,0,134.4,174.45Z"/><path class="cls-4" d="M30.73,150.67A29.73,29.73,0,1,0,1.11,121,29.67,29.67,0,0,0,30.73,150.67Z"/><path class="cls-5" d="M82.56,60.57A29.73,29.73,0,1,0,52.94,30.84,29.67,29.67,0,0,0,82.56,60.57Z"/><path class="cls-4" d="M186.23,60.57a29.73,29.73,0,1,0-29.62-29.73A29.67,29.67,0,0,0,186.23,60.57Z"/><path class="cls-6" d="M238.06,150.67a29.73,29.73,0,1,0-29.62-29.73A29.67,29.67,0,0,0,238.06,150.67Z"/><path class="cls-4" d="M186.23,240.77A29.73,29.73,0,1,0,156.61,211,29.67,29.67,0,0,0,186.23,240.77Z"/><path class="cls-4" d="M82.57,240.77A29.73,29.73,0,1,0,53,211,29.67,29.67,0,0,0,82.57,240.77Z"/><path class="cls-7" d="M435,149.24q0,17.43-12.6,27.47t-35,10q-23.73,0-36.69-6.3V164.39a97.29,97.29,0,0,0,18.53,5.75,93.36,93.36,0,0,0,18.89,2.1q15,0,22.55-5.75t7.57-15.79a20,20,0,0,0-2.74-11q-2.73-4.29-9.22-8t-19.44-8.49q-18.53-6.75-26.47-15.88t-7.94-23.73q0-15.61,11.68-24.83T395,49.56a89.32,89.32,0,0,1,36.78,7.49l-5.2,14.42q-17.16-7.12-32-7.12-11.86,0-18.62,5.11t-6.66,14.33a21.48,21.48,0,0,0,2.55,10.95,25.16,25.16,0,0,0,8.4,7.85q5.85,3.57,18.26,8.13,14.88,5.48,22.18,10.68a32.91,32.91,0,0,1,10.77,11.86A34.24,34.24,0,0,1,435,149.24Z"/><path class="cls-7" d="M499.8,186.75q-21.63,0-33.68-13.23t-12.05-38.16q0-25.19,12.14-38.79T501,82.88a67.1,67.1,0,0,1,14.42,1.55,46.89,46.89,0,0,1,11.87,3.83l-5,13.69q-12.69-4.74-21.64-4.74-15.15,0-22.36,9.58t-7.21,28.39q0,18.16,7.21,27.84t21.36,9.58a61.87,61.87,0,0,0,26-5.84v14.6Q515.24,186.76,499.8,186.75Z"/><path class="cls-7" d="M565.89,184.92H549.46V84.7h16.43ZM548.18,57.59q0-5.48,2.74-7.94a10.21,10.21,0,0,1,6.94-2.46,9.84,9.84,0,0,1,6.66,2.46q2.93,2.46,2.92,7.94t-2.92,7.94a9.6,9.6,0,0,1-6.66,2.56,10,10,0,0,1-6.94-2.56Q548.18,63,548.18,57.59Z"/><path class="cls-7" d="M640.28,186.75q-22.54,0-35.42-13.6t-12.78-37.61q0-24.09,12-38.33t32.31-14.33q18.9,0,30.13,12.23t11.22,33V138H609.06q.47,17.07,8.67,25.92T641,172.78a81.82,81.82,0,0,0,15.24-1.36,90.56,90.56,0,0,0,16.89-5.57v14.42a79.5,79.5,0,0,1-15.61,5A89.34,89.34,0,0,1,640.28,186.75Zm-4.11-90.46q-11.77,0-18.62,7.58T609.43,125h51q-.18-14.07-6.48-21.36T636.17,96.29Z"/><path class="cls-7" d="M771.44,184.92V120.85q0-12.24-5.47-18.17t-17-6q-15.42,0-22.45,8.58T719.6,133v51.93H703.17V84.7H716.4l2.47,13.69h.91A30.73,30.73,0,0,1,732.83,87a41.73,41.73,0,0,1,18.53-4.1q18.45,0,27.39,8.94t8.94,27.84v65.26Z"/><path class="cls-7" d="M858.89,186.75q-21.63,0-33.68-13.23t-12.05-38.16q0-25.19,12.14-38.79t34.78-13.69a67.24,67.24,0,0,1,14.42,1.55,46.81,46.81,0,0,1,11.86,3.83l-5,13.69q-12.69-4.74-21.63-4.74-15.15,0-22.36,9.58t-7.21,28.39q0,18.16,7.21,27.84t21.36,9.58a61.9,61.9,0,0,0,26-5.84v14.6Q874.31,186.76,858.89,186.75Z"/><path class="cls-7" d="M985.94,184.92H910.05V51.45h75.89v20H934v34h48.61v20H934v39.26h52Z"/><path class="cls-7" d="M1045.5,186.79q-17.57,0-28.6-13.08-10.85-13.28-10.84-39.26,0-26.17,11-39.44t29-13.27q11.22,0,18.32,4.3A36.22,36.22,0,0,1,1076,96.5h1.13c-.38-1.74-.75-4.36-1.13-7.85a101.12,101.12,0,0,1-.56-10.28V42.85H1099V184.92h-18.32l-4.3-13.27h-.94a37.86,37.86,0,0,1-11.4,10.84Q1056.9,186.8,1045.5,186.79Zm7.11-19.06q13.08,0,18.32-7.48,5.41-7.49,5.6-22.62v-3q0-16.26-5.23-24.86-5-8.79-19.07-8.79-10.85,0-16.63,9-5.61,8.79-5.61,24.87t5.79,24.48Q1041.59,167.72,1052.61,167.73Z"/></g></g></svg>