<?xml version="1.0" encoding="utf-8"?>
<!-- Generator: Adobe Illustrator 23.0.1, SVG Export Plug-In . SVG Version: 6.00 Build 0)  -->
<svg version="1.1" id="Layer_1" xmlns="http://www.w3.org/2000/svg" xmlns:xlink="http://www.w3.org/1999/xlink" x="0px" y="0px"
	 viewBox="0 0 493 106.9" style="enable-background:new 0 0 493 106.9;" xml:space="preserve">
<style type="text/css">
	.st0{enable-background:new    ;}
	.st1{fill:#231F20;}
	.st2{fill:#333333;}
	.st3{fill:none;stroke:#A7A6A6;stroke-width:0.96;stroke-miterlimit:10;}
	.st4{fill:#FFCD05;stroke:#CCA42C;stroke-width:0.96;}
	.st5{fill:#28BAED;stroke:#0B89B2;stroke-width:0.96;stroke-miterlimit:10;}
	.st6{fill:#ED1C6C;stroke:#CC1D59;stroke-width:0.96;stroke-miterlimit:10;}
	.st7{fill:#6BB545;stroke:#50883E;stroke-width:0.96;stroke-miterlimit:10;}
</style>
<title>registerd_newLogo_SciencEd</title>
<g>
	<g id="heebo">
		<g id="standard">
			<g class="st0">
				<path class="st1" d="M477.1,9.6c2.6,0,5.2,0.7,7.6,2c2.4,1.3,4.3,3.2,5.7,5.7c1.4,2.5,2.1,5.1,2.1,7.7c0,2.7-0.7,5.2-2,7.7
					c-1.4,2.4-3.3,4.3-5.7,5.7c-2.4,1.4-5,2-7.7,2c-2.7,0-5.2-0.7-7.7-2s-4.3-3.3-5.7-5.7c-1.4-2.4-2-5-2-7.7c0-2.7,0.7-5.3,2.1-7.7
					c1.4-2.5,3.3-4.4,5.7-5.7S474.4,9.6,477.1,9.6z M477.1,12.6c-2.1,0-4.2,0.5-6.1,1.6c-1.9,1.1-3.5,2.6-4.6,4.6s-1.7,4.1-1.7,6.2
					c0,2.2,0.5,4.2,1.6,6.2c1.1,2,2.6,3.5,4.6,4.6c2,1.1,4,1.7,6.2,1.7c2.2,0,4.2-0.5,6.2-1.7c2-1.1,3.5-2.6,4.6-4.6
					c1.1-2,1.7-4,1.7-6.2c0-2.2-0.6-4.3-1.7-6.2c-1.1-2-2.7-3.5-4.6-4.6C481.3,13.1,479.2,12.6,477.1,12.6z M470.1,33.2V16.9h3.3
					c3.1,0,4.9,0,5.2,0c1.1,0.1,2,0.3,2.6,0.7c0.6,0.3,1.1,0.9,1.5,1.6c0.4,0.7,0.6,1.5,0.6,2.3c0,1.2-0.4,2.2-1.2,3
					c-0.8,0.8-1.9,1.4-3.2,1.6c0.5,0.2,0.9,0.4,1.1,0.6c0.3,0.2,0.6,0.6,1.1,1.3c0.1,0.2,0.5,0.8,1.2,2l1.9,3.3h-4.1l-1.4-2.7
					c-0.9-1.8-1.7-2.9-2.3-3.4s-1.4-0.7-2.3-0.7h-0.9v6.7H470.1z M473.5,23.9h1.3c1.9,0,3.1-0.1,3.6-0.2c0.5-0.1,0.8-0.4,1.1-0.8
					s0.4-0.8,0.4-1.3c0-0.5-0.1-0.9-0.4-1.2c-0.3-0.4-0.6-0.6-1.1-0.8c-0.5-0.2-1.7-0.2-3.6-0.2h-1.3V23.9z"/>
			</g>
			<g class="st0">
				<path class="st2" d="M156.3,64.6c0-1.8-0.4-3.4-1.2-4.7c-0.8-1.3-2.2-2.4-4.2-3.5s-4.8-2.1-8.5-3.2c-2.9-0.8-5.5-1.8-7.8-2.8
					c-2.3-1.1-4.3-2.3-5.9-3.6c-1.7-1.4-2.9-2.9-3.8-4.7s-1.3-3.8-1.3-6c0-3,0.8-5.8,2.5-8.1c1.6-2.4,3.9-4.3,6.9-5.6
					s6.4-2.1,10.4-2.1c4.4,0,8.1,0.8,11.2,2.5c3.1,1.7,5.4,3.8,7,6.5c1.6,2.7,2.4,5.5,2.4,8.6h-7.8c0-2.2-0.5-4.1-1.4-5.8
					c-0.9-1.7-2.3-3-4.2-4c-1.9-1-4.3-1.5-7.2-1.5c-2.7,0-5,0.4-6.7,1.2c-1.8,0.8-3.1,1.9-3.9,3.4c-0.9,1.4-1.3,3-1.3,4.8
					c0,1.6,0.5,3.1,1.4,4.3c0.9,1.3,2.4,2.4,4.4,3.4c2,1,4.6,2,7.8,2.9c4.4,1.2,8,2.7,10.9,4.3c2.8,1.6,4.9,3.6,6.3,5.8
					c1.3,2.2,2,4.8,2,7.8c0,3.2-0.8,5.9-2.5,8.2c-1.7,2.3-4,4.2-7.1,5.4s-6.6,1.9-10.7,1.9c-2.7,0-5.3-0.4-7.9-1.1s-5-1.9-7.1-3.4
					c-2.1-1.5-3.8-3.3-5.1-5.5c-1.3-2.2-1.9-4.8-1.9-7.7h7.8c0,2,0.4,3.7,1.2,5.2c0.8,1.4,1.8,2.6,3.2,3.6c1.3,0.9,2.9,1.6,4.6,2.1
					c1.7,0.4,3.5,0.7,5.4,0.7c2.7,0,5-0.4,6.8-1.1c1.9-0.8,3.3-1.8,4.2-3.2C155.8,68.2,156.3,66.5,156.3,64.6z"/>
				<path class="st2" d="M190.2,74.2c1.8,0,3.4-0.4,4.9-1.1c1.5-0.7,2.7-1.7,3.7-3s1.5-2.7,1.6-4.4h7.1c-0.1,2.6-1,4.9-2.6,7.1
					c-1.6,2.2-3.7,4-6.2,5.3c-2.6,1.3-5.4,2-8.4,2c-4.4,0-8-1-10.8-3c-2.9-2-5-4.6-6.4-7.9s-2.1-6.9-2.1-10.7v-1.7
					c0-3.9,0.7-7.5,2.1-10.8c1.4-3.3,3.5-5.9,6.4-7.9c2.9-2,6.4-3,10.8-3c3.4,0,6.4,0.7,8.9,2.1c2.5,1.4,4.6,3.2,6,5.6
					c1.5,2.4,2.2,5,2.4,8h-7.1c-0.1-1.8-0.6-3.4-1.5-4.9c-0.9-1.5-2-2.6-3.5-3.5c-1.5-0.9-3.2-1.3-5.2-1.3c-3,0-5.4,0.8-7.1,2.3
					c-1.7,1.5-2.9,3.5-3.6,5.9c-0.7,2.4-1.1,4.9-1.1,7.4v1.7c0,2.5,0.3,5,1,7.4c0.7,2.4,1.9,4.4,3.6,5.9
					C184.8,73.4,187.1,74.2,190.2,74.2z"/>
				<path class="st2" d="M215.9,24.5c0-1.2,0.4-2.2,1.1-3c0.7-0.8,1.8-1.2,3.3-1.2s2.5,0.4,3.3,1.2c0.8,0.8,1.1,1.8,1.1,3
					c0,1.1-0.4,2.1-1.1,2.9s-1.9,1.2-3.3,1.2s-2.5-0.4-3.3-1.2C216.2,26.7,215.9,25.7,215.9,24.5z M223.9,79.4h-7.5V36.1h7.5V79.4z"
					/>
				<path class="st2" d="M253.7,80.2c-4,0-7.5-0.9-10.5-2.7c-3-1.8-5.3-4.3-6.9-7.4c-1.6-3.1-2.5-6.8-2.5-10.8v-1.7
					c0-4.7,0.9-8.7,2.7-12c1.8-3.3,4.2-5.9,7-7.6c2.9-1.7,6-2.6,9.2-2.6c4.2,0,7.6,0.9,10.2,2.8s4.6,4.4,5.8,7.6
					c1.2,3.2,1.9,6.8,1.9,10.8v3.3h-32.4v-6h24.9v-0.6c-0.1-1.9-0.5-3.8-1.2-5.6c-0.7-1.8-1.7-3.3-3.2-4.5c-1.5-1.2-3.5-1.8-6-1.8
					c-2.2,0-4.2,0.6-5.9,1.9s-3.1,3.1-4,5.5c-1,2.4-1.5,5.4-1.5,8.8v1.7c0,2.8,0.5,5.3,1.5,7.5c1,2.3,2.5,4.1,4.4,5.4
					c1.9,1.3,4.2,2,6.9,2c2.6,0,4.8-0.5,6.6-1.6c1.8-1.1,3.4-2.5,4.8-4.3l4.5,3.5c-1.4,2.1-3.4,4.1-6,5.8
					C261.5,79.3,258,80.2,253.7,80.2z"/>
				<path class="st2" d="M286.7,79.4h-7.5V36.1h7.1l0.4,9.2V79.4z M281.8,55.9c0.1-4,0.8-7.5,2.3-10.6c1.5-3.1,3.5-5.6,6.1-7.4
					c2.6-1.8,5.7-2.7,9.2-2.7c2.9,0,5.3,0.5,7.4,1.6s3.7,2.7,4.8,5c1.1,2.3,1.7,5.3,1.7,9.1v28.4h-7.5V50.9c0-2.3-0.3-4.1-1-5.5
					c-0.7-1.4-1.6-2.4-2.9-3c-1.3-0.6-2.9-0.9-4.7-0.9c-1.8,0-3.5,0.4-5,1.2c-1.5,0.8-2.8,1.8-3.9,3.2c-1.1,1.4-1.9,2.9-2.5,4.7
					c-0.6,1.7-0.9,3.6-0.9,5.5L281.8,55.9z"/>
				<path class="st2" d="M341.9,74.2c1.8,0,3.4-0.4,4.9-1.1c1.5-0.7,2.7-1.7,3.7-3s1.5-2.7,1.6-4.4h7.1c-0.1,2.6-1,4.9-2.6,7.1
					c-1.6,2.2-3.7,4-6.2,5.3c-2.6,1.3-5.4,2-8.4,2c-4.4,0-8-1-10.8-3c-2.9-2-5-4.6-6.4-7.9s-2.1-6.9-2.1-10.7v-1.7
					c0-3.9,0.7-7.5,2.1-10.8c1.4-3.3,3.6-5.9,6.4-7.9c2.9-2,6.4-3,10.8-3c3.4,0,6.4,0.7,8.9,2.1s4.6,3.2,6,5.6c1.5,2.4,2.2,5,2.4,8
					h-7.1c-0.1-1.8-0.6-3.4-1.5-4.9c-0.9-1.5-2-2.6-3.5-3.5c-1.5-0.9-3.2-1.3-5.2-1.3c-3,0-5.4,0.8-7.1,2.3
					c-1.7,1.5-2.9,3.5-3.6,5.9c-0.7,2.4-1.1,4.9-1.1,7.4v1.7c0,2.5,0.3,5,1,7.4c0.7,2.4,1.9,4.4,3.6,5.9
					C336.5,73.4,338.9,74.2,341.9,74.2z"/>
			</g>
			<g class="st0">
				<path class="st2" d="M379.5,79.4h-12.6V21.1h12.6V79.4z M406.2,31.3h-30.8V21.1h30.8V31.3z M402.2,54.3h-26.8v-9.8h26.8V54.3z
					 M406.2,79.4h-30.8V69.3h30.8V79.4z"/>
				<path class="st2" d="M410.5,57.4c0-4.4,0.7-8.3,2-11.6c1.3-3.3,3.2-5.9,5.8-7.8s5.6-2.8,9.2-2.8c3.4,0,6.2,1,8.5,2.9
					c2.3,1.9,4.1,4.6,5.4,7.9c1.3,3.4,2.2,7.1,2.7,11.4v1c-0.5,4-1.4,7.7-2.7,11s-3.1,5.9-5.4,7.8s-5.1,2.9-8.6,2.9
					c-3.6,0-6.6-1-9.1-2.9c-2.5-1.9-4.4-4.5-5.8-7.8c-1.3-3.3-2-7.1-2-11.3V57.4z M422.6,58.2c0,2.2,0.3,4.3,0.8,6.1
					s1.3,3.3,2.5,4.4c1.1,1.1,2.7,1.6,4.6,1.6c1.9,0,3.5-0.4,4.7-1.3c1.2-0.9,2.2-2.1,2.8-3.6c0.6-1.5,1-3.3,1.1-5.4v-4.2
					c-0.1-1.7-0.3-3.3-0.7-4.6c-0.4-1.3-0.9-2.5-1.6-3.4c-0.7-0.9-1.5-1.6-2.6-2.1c-1.1-0.5-2.3-0.7-3.7-0.7c-1.9,0-3.5,0.5-4.6,1.6
					c-1.2,1.1-2,2.5-2.5,4.4s-0.8,4-0.8,6.3V58.2z M437.7,17.9h12.2v61.5h-10.9l-1.2-9.6V17.9z"/>
			</g>
			<path class="st3" d="M13.2,52.6h44.5"/>
			<path class="st3" d="M35.4,13.2l22.3,38.7"/>
			<path class="st3" d="M79.9,13.2L57.7,51.9"/>
			<path class="st3" d="M102.2,52.6H57.7"/>
			<path class="st3" d="M79.9,90.6L57.7,51.9"/>
			<path class="st3" d="M35.4,90.6l22.3-38.7"/>
			<path class="st4" d="M57.7,74.9C70.4,75,80.7,64.7,80.8,52S70.6,29,57.9,28.9c-12.7-0.1-23.1,10.2-23.1,22.9c0,0,0,0.1,0,0.1
				C34.8,64.6,45,74.9,57.7,74.9C57.7,74.9,57.7,74.9,57.7,74.9z"/>
			<path class="st5" d="M13.2,64.7C20.2,64.7,26,59,26,52s-5.7-12.8-12.7-12.8S0.5,44.8,0.5,51.9c0,0,0,0,0,0
				C0.5,59,6.2,64.7,13.2,64.7z"/>
			<path class="st6" d="M35.4,26c7,0,12.8-5.7,12.8-12.7S42.6,0.5,35.5,0.5c-7,0-12.8,5.7-12.8,12.7c0,0,0,0,0,0
				C22.7,20.3,28.4,26,35.4,26z"/>
			<path class="st5" d="M79.9,26c7,0,12.8-5.7,12.8-12.7c0-7-5.7-12.8-12.7-12.8c-7,0-12.8,5.7-12.8,12.7c0,0,0,0,0,0
				C67.2,20.3,72.9,26,79.9,26C79.9,26,79.9,26,79.9,26z"/>
			<path class="st7" d="M102.2,64.7c7,0,12.8-5.7,12.8-12.7c0-7-5.7-12.8-12.7-12.8c-7,0-12.8,5.7-12.8,12.7c0,0,0,0,0,0
				C89.5,58.9,95.2,64.7,102.2,64.7z"/>
			<path class="st5" d="M79.9,103.4c7.1,0,12.8-5.7,12.8-12.7c0-7.1-5.7-12.8-12.7-12.8s-12.8,5.7-12.8,12.7c0,0,0,0,0,0.1
				C67.2,97.6,72.9,103.3,79.9,103.4z"/>
			<path class="st5" d="M35.4,103.4c7.1,0,12.8-5.7,12.8-12.7c0-7.1-5.7-12.8-12.7-12.8s-12.8,5.7-12.8,12.7c0,0,0,0,0,0.1
				C22.7,97.6,28.4,103.3,35.4,103.4C35.4,103.4,35.4,103.4,35.4,103.4z"/>
		</g>
	</g>
</g>
</svg>
