<?xml version="1.0" encoding="utf-8"?>
<!-- Generator: Adobe Illustrator 23.0.1, SVG Export Plug-In . SVG Version: 6.00 Build 0)  -->
<svg version="1.1" id="Layer_1" xmlns="http://www.w3.org/2000/svg" xmlns:xlink="http://www.w3.org/1999/xlink" x="0px" y="0px"
	 viewBox="0 0 1125.3 630.5" style="enable-background:new 0 0 1125.3 630.5;" xml:space="preserve">
<style type="text/css">
	.st0{enable-background:new    ;}
	.st1{fill:#231F20;}
	.st2{fill:#333333;}
	.st3{fill:none;stroke:#A7A6A6;stroke-width:0.96;stroke-miterlimit:10;}
	.st4{fill:#FFCD05;stroke:#CCA42C;stroke-width:0.96;}
	.st5{fill:#28BAED;stroke:#0B89B2;stroke-width:0.96;stroke-miterlimit:10;}
	.st6{fill:#ED1C6C;stroke:#CC1D59;stroke-width:0.96;stroke-miterlimit:10;}
	.st7{fill:#6BB545;stroke:#50883E;stroke-width:0.96;stroke-miterlimit:10;}
	.st8{fill:#FFCD05;stroke:#CCA42C;stroke-width:0.64;}
	.st9{fill:#ED1C6C;}
	.st10{fill:none;stroke:#CC1D59;stroke-width:0.96;stroke-miterlimit:10;}
	.st11{fill:#FFCD05;}
	.st12{fill:none;stroke:#CCA42C;stroke-width:0.96;}
	.st13{fill:#6BB545;}
	.st14{fill:none;stroke:#50883E;stroke-width:0.96;stroke-miterlimit:10;}
	.st15{fill:#28BAED;}
	.st16{fill:none;stroke:#0B89B2;stroke-width:0.96;stroke-miterlimit:10;}
</style>
<title>sciencedlogos_1</title>
<g id="heebo">
	<g id="Green_Stem">
		<g id="standard">
			<g class="st0">
				<path class="st1" d="M1069.7,444.6c2.6,0,5.2,0.7,7.6,2c2.4,1.3,4.3,3.2,5.7,5.7c1.4,2.5,2.1,5.1,2.1,7.7c0,2.7-0.7,5.2-2,7.7
					s-3.3,4.3-5.7,5.7s-5,2-7.7,2s-5.2-0.7-7.7-2c-2.4-1.4-4.3-3.3-5.7-5.7s-2-5-2-7.7c0-2.7,0.7-5.3,2.1-7.7
					c1.4-2.5,3.3-4.4,5.7-5.7C1064.5,445.2,1067,444.6,1069.7,444.6z M1069.7,447.6c-2.1,0-4.2,0.5-6.1,1.6
					c-1.9,1.1-3.5,2.6-4.6,4.6s-1.7,4.1-1.7,6.2c0,2.2,0.5,4.2,1.6,6.2c1.1,2,2.6,3.5,4.6,4.6c2,1.1,4,1.7,6.2,1.7
					c2.2,0,4.2-0.5,6.2-1.7c2-1.1,3.5-2.6,4.6-4.6c1.1-2,1.7-4,1.7-6.2c0-2.2-0.6-4.3-1.7-6.2s-2.7-3.5-4.6-4.6
					C1073.8,448.1,1071.8,447.6,1069.7,447.6z M1062.7,468.3v-16.4h3.3c3.1,0,4.9,0,5.2,0c1.1,0.1,2,0.3,2.6,0.7
					c0.6,0.3,1.1,0.9,1.5,1.6c0.4,0.7,0.6,1.5,0.6,2.3c0,1.2-0.4,2.2-1.2,3c-0.8,0.8-1.9,1.4-3.3,1.6c0.5,0.2,0.9,0.4,1.1,0.6
					c0.3,0.2,0.6,0.6,1.1,1.3c0.1,0.2,0.5,0.8,1.2,2l1.9,3.3h-4.1l-1.4-2.7c-0.9-1.8-1.7-2.9-2.3-3.4s-1.4-0.7-2.3-0.7h-0.9v6.7
					H1062.7z M1066,459h1.3c1.9,0,3.1-0.1,3.6-0.2c0.5-0.1,0.8-0.4,1.1-0.8c0.3-0.4,0.4-0.8,0.4-1.3c0-0.5-0.1-0.9-0.4-1.2
					s-0.6-0.6-1.1-0.8c-0.5-0.2-1.7-0.2-3.6-0.2h-1.3V459z"/>
			</g>
			<g class="st0">
				<path class="st2" d="M748.9,499.7c0-1.8-0.4-3.4-1.2-4.7s-2.2-2.4-4.2-3.5s-4.8-2.1-8.5-3.2c-2.9-0.8-5.5-1.8-7.8-2.8
					c-2.3-1.1-4.3-2.3-5.9-3.6s-2.9-2.9-3.8-4.7s-1.3-3.8-1.3-6c0-3,0.8-5.8,2.5-8.1c1.6-2.4,3.9-4.3,6.9-5.6s6.4-2.1,10.4-2.1
					c4.4,0,8.1,0.8,11.2,2.5c3.1,1.7,5.4,3.8,7,6.5c1.6,2.7,2.4,5.5,2.4,8.6h-7.8c0-2.2-0.5-4.1-1.4-5.8c-0.9-1.7-2.3-3-4.2-4
					s-4.3-1.5-7.2-1.5c-2.7,0-5,0.4-6.7,1.2c-1.8,0.8-3.1,1.9-3.9,3.4c-0.9,1.4-1.3,3-1.3,4.8c0,1.6,0.5,3.1,1.4,4.3
					s2.4,2.4,4.4,3.4c2,1,4.6,2,7.8,2.9c4.4,1.2,8,2.7,10.9,4.3c2.8,1.6,4.9,3.6,6.3,5.8c1.3,2.2,2,4.8,2,7.8c0,3.2-0.8,5.9-2.5,8.2
					c-1.7,2.3-4,4.2-7.1,5.4s-6.6,1.9-10.7,1.9c-2.7,0-5.3-0.4-7.9-1.1s-5-1.9-7.1-3.4c-2.1-1.5-3.8-3.3-5.1-5.5
					c-1.3-2.2-1.9-4.8-1.9-7.7h7.8c0,2,0.4,3.7,1.2,5.2s1.8,2.6,3.2,3.6c1.3,0.9,2.9,1.6,4.6,2.1c1.7,0.4,3.5,0.7,5.4,0.7
					c2.7,0,5-0.4,6.8-1.1c1.9-0.8,3.3-1.8,4.2-3.2C748.4,503.2,748.9,501.6,748.9,499.7z"/>
				<path class="st2" d="M782.8,509.2c1.8,0,3.4-0.4,4.9-1.1c1.5-0.7,2.7-1.7,3.7-3s1.5-2.7,1.6-4.4h7.1c-0.1,2.6-1,4.9-2.6,7.1
					c-1.6,2.2-3.7,4-6.2,5.3c-2.6,1.3-5.4,2-8.4,2c-4.4,0-8-1-10.8-3s-5-4.6-6.4-7.9s-2.1-6.9-2.1-10.7v-1.7c0-3.9,0.7-7.5,2.1-10.8
					s3.5-5.9,6.4-7.9c2.9-2,6.4-3,10.8-3c3.4,0,6.4,0.7,8.9,2.1c2.5,1.4,4.6,3.2,6,5.6c1.5,2.4,2.2,5,2.4,8H793
					c-0.1-1.8-0.6-3.4-1.5-4.9c-0.9-1.5-2-2.6-3.5-3.5c-1.5-0.9-3.2-1.3-5.2-1.3c-3,0-5.4,0.8-7.1,2.3c-1.7,1.5-2.9,3.5-3.6,5.9
					c-0.7,2.4-1.1,4.9-1.1,7.4v1.7c0,2.5,0.3,5,1,7.4s1.9,4.4,3.6,5.9C777.3,508.4,779.7,509.2,782.8,509.2z"/>
				<path class="st2" d="M808.4,459.5c0-1.2,0.4-2.2,1.1-3c0.7-0.8,1.8-1.2,3.3-1.2s2.5,0.4,3.3,1.2c0.8,0.8,1.1,1.8,1.1,3
					c0,1.1-0.4,2.1-1.1,2.9s-1.9,1.2-3.3,1.2s-2.5-0.4-3.3-1.2C808.8,461.7,808.4,460.7,808.4,459.5z M816.5,514.4H809v-43.3h7.5
					V514.4z"/>
				<path class="st2" d="M846.3,515.2c-4,0-7.5-0.9-10.5-2.7c-3-1.8-5.3-4.3-6.9-7.4c-1.6-3.1-2.5-6.8-2.5-10.8v-1.7
					c0-4.7,0.9-8.7,2.7-12c1.8-3.3,4.2-5.9,7-7.6c2.9-1.7,6-2.6,9.2-2.6c4.2,0,7.6,0.9,10.2,2.8c2.6,1.9,4.6,4.4,5.8,7.6
					c1.2,3.2,1.9,6.8,1.9,10.8v3.3h-32.4v-6h24.9v-0.6c-0.1-1.9-0.5-3.8-1.2-5.6s-1.7-3.3-3.2-4.5c-1.5-1.2-3.5-1.8-6-1.8
					c-2.2,0-4.2,0.6-5.9,1.9s-3.1,3.1-4,5.5c-1,2.4-1.5,5.4-1.5,8.8v1.7c0,2.8,0.5,5.3,1.5,7.5c1,2.3,2.5,4.1,4.4,5.4s4.2,2,6.9,2
					c2.6,0,4.8-0.5,6.6-1.6c1.8-1.1,3.4-2.5,4.8-4.3l4.5,3.5c-1.4,2.1-3.4,4.1-6,5.8C854,514.3,850.6,515.2,846.3,515.2z"/>
				<path class="st2" d="M879.3,514.4h-7.5v-43.3h7.1l0.4,9.2V514.4z M874.4,490.9c0.1-4,0.8-7.5,2.3-10.6s3.5-5.6,6.1-7.4
					c2.6-1.8,5.7-2.7,9.2-2.7c2.9,0,5.3,0.5,7.4,1.6c2.1,1.1,3.7,2.7,4.8,5c1.1,2.3,1.7,5.3,1.7,9.1v28.4h-7.5v-28.5
					c0-2.3-0.3-4.1-1-5.5c-0.7-1.4-1.6-2.4-2.9-3c-1.3-0.6-2.9-0.9-4.7-0.9c-1.8,0-3.5,0.4-5,1.2c-1.5,0.8-2.8,1.8-3.9,3.2
					s-1.9,2.9-2.5,4.7c-0.6,1.7-0.9,3.6-0.9,5.5L874.4,490.9z"/>
				<path class="st2" d="M934.5,509.2c1.8,0,3.4-0.4,4.9-1.1c1.5-0.7,2.7-1.7,3.7-3s1.5-2.7,1.6-4.4h7.1c-0.1,2.6-1,4.9-2.6,7.1
					c-1.6,2.2-3.7,4-6.2,5.3c-2.6,1.3-5.4,2-8.4,2c-4.4,0-8-1-10.8-3s-5-4.6-6.4-7.9s-2.1-6.9-2.1-10.7v-1.7c0-3.9,0.7-7.5,2.1-10.8
					s3.5-5.9,6.4-7.9c2.9-2,6.4-3,10.8-3c3.4,0,6.4,0.7,8.9,2.1c2.5,1.4,4.6,3.2,6,5.6c1.5,2.4,2.2,5,2.4,8h-7.1
					c-0.1-1.8-0.6-3.4-1.5-4.9c-0.9-1.5-2-2.6-3.5-3.5c-1.5-0.9-3.2-1.3-5.2-1.3c-3,0-5.4,0.8-7.1,2.3c-1.7,1.5-2.9,3.5-3.6,5.9
					c-0.7,2.4-1.1,4.9-1.1,7.4v1.7c0,2.5,0.3,5,1,7.4s1.9,4.4,3.6,5.9C929,508.4,931.4,509.2,934.5,509.2z"/>
			</g>
			<g class="st0">
				<path class="st2" d="M972.1,514.4h-12.6v-58.3h12.6V514.4z M998.8,466.3H968v-10.2h30.8V466.3z M994.8,489.3H968v-9.8h26.8
					V489.3z M998.8,514.4H968v-10.1h30.8V514.4z"/>
				<path class="st2" d="M1003.1,492.4c0-4.4,0.7-8.3,2-11.6c1.3-3.3,3.2-5.9,5.8-7.8s5.6-2.8,9.2-2.8c3.4,0,6.2,1,8.5,2.9
					c2.3,1.9,4.1,4.6,5.4,7.9c1.3,3.4,2.2,7.1,2.7,11.4v1c-0.5,4-1.4,7.7-2.7,11s-3.1,5.9-5.4,7.8s-5.1,2.9-8.6,2.9
					c-3.6,0-6.6-1-9.1-2.9c-2.5-1.9-4.4-4.5-5.8-7.8c-1.3-3.3-2-7.1-2-11.3V492.4z M1015.1,493.2c0,2.2,0.3,4.3,0.8,6.1
					c0.5,1.8,1.3,3.3,2.5,4.4c1.1,1.1,2.7,1.6,4.6,1.6c1.9,0,3.5-0.4,4.7-1.3c1.2-0.9,2.2-2.1,2.8-3.6c0.6-1.5,1-3.3,1.1-5.4v-4.2
					c-0.1-1.7-0.3-3.3-0.7-4.6c-0.4-1.3-0.9-2.5-1.6-3.4c-0.7-0.9-1.5-1.6-2.6-2.1s-2.3-0.7-3.7-0.7c-1.9,0-3.5,0.5-4.6,1.6
					c-1.2,1.1-2,2.5-2.5,4.4s-0.8,4-0.8,6.3V493.2z M1030.2,452.9h12.2v61.5h-10.9l-1.2-9.6V452.9z"/>
			</g>
			<path class="st3" d="M605.8,487.6h44.5"/>
			<path class="st3" d="M628,448.3l22.3,38.7"/>
			<path class="st3" d="M672.5,448.3l-22.3,38.7"/>
			<path class="st3" d="M694.8,487.6h-44.5"/>
			<path class="st3" d="M672.5,525.6l-22.3-38.7"/>
			<path class="st3" d="M628,525.6l22.3-38.7"/>
			<path class="st4" d="M650.3,509.9c12.7,0.1,23-10.2,23.1-22.9c0.1-12.7-10.2-23-22.9-23.1c-12.7-0.1-23,10.2-23.1,22.9
				c0,0,0,0.1,0,0.1C627.3,499.6,637.6,509.9,650.3,509.9C650.2,509.9,650.2,509.9,650.3,509.9z"/>
			<path class="st5" d="M605.8,499.7c7,0,12.8-5.7,12.8-12.8s-5.7-12.8-12.8-12.8c-7,0-12.8,5.7-12.8,12.8
				C593,494,598.7,499.7,605.8,499.7C605.7,499.7,605.7,499.7,605.8,499.7z"/>
			<path class="st6" d="M628,461c7,0,12.8-5.7,12.8-12.7c0-7-5.7-12.8-12.7-12.8c-7,0-12.8,5.7-12.8,12.7c0,0,0,0,0,0
				C615.3,455.3,620.9,461,628,461C628,461,628,461,628,461z"/>
			<path class="st5" d="M672.5,461c7,0,12.8-5.7,12.8-12.7c0-7-5.7-12.8-12.7-12.8c-7,0-12.8,5.7-12.8,12.7c0,0,0,0,0,0
				C659.8,455.3,665.5,461,672.5,461L672.5,461z"/>
			<path class="st7" d="M694.8,499.7c7.1,0,12.8-5.7,12.8-12.8c0-7.1-5.7-12.8-12.8-12.8c-7.1,0-12.8,5.7-12.8,12.8c0,0,0,0,0,0
				C682,494,687.7,499.7,694.8,499.7C694.7,499.7,694.7,499.7,694.8,499.7z"/>
			<path class="st5" d="M672.5,538.4c7,0,12.8-5.7,12.8-12.7c0-7-5.7-12.8-12.7-12.8c-7,0-12.8,5.7-12.8,12.7c0,0,0,0,0,0
				C659.8,532.6,665.5,538.3,672.5,538.4C672.5,538.4,672.5,538.4,672.5,538.4z"/>
			<path class="st5" d="M628,538.4c7,0,12.8-5.7,12.8-12.7c0-7-5.7-12.8-12.7-12.8c-7,0-12.8,5.7-12.8,12.7c0,0,0,0,0,0.1
				C615.3,532.6,621,538.3,628,538.4C628,538.4,628,538.4,628,538.4z"/>
		</g>
		<path class="st7" d="M859.3,545.1c-0.6,0.6-1.2,1.2-1.9,1.6c-1,0.6-2.1,1.1-3.3,1.5c-1.6,0.4-3.3,0.7-4.9,0.6
			c-2.1,0-4.2-0.5-6-1.5c-1.7-1-3.1-2.5-4-4.3c-1-2.2-1.5-4.5-1.4-6.9v-1.5c-0.1-2.4,0.4-4.8,1.4-6.9c0.8-1.8,2.2-3.3,3.9-4.4
			c1.8-1,3.8-1.5,5.8-1.5c2-0.1,3.9,0.3,5.7,1.1c1.4,0.7,2.6,1.8,3.4,3.1c0.8,1.4,1.3,3,1.4,4.6h-5.5c-0.1-0.8-0.3-1.6-0.7-2.3
			c-0.4-0.6-0.9-1.1-1.5-1.5c-0.8-0.4-1.7-0.6-2.6-0.5c-1.1,0-2.1,0.3-3,0.9c-0.9,0.7-1.5,1.7-1.9,2.7c-0.5,1.5-0.7,3-0.6,4.5v1.5
			c0,1.5,0.2,3.1,0.7,4.5c0.4,1.1,1.1,2.1,2,2.8c1,0.6,2.2,1,3.3,0.9c0.7,0,1.3-0.1,2-0.2c0.5-0.1,0.9-0.3,1.3-0.5
			c0.3-0.1,0.5-0.3,0.8-0.5v-4.4h-4.8v-4.1h10.5L859.3,545.1z"/>
		<path class="st7" d="M873.7,528.5c-0.3,0-0.6,0-0.9,0c-1.1,0-2.2,0.4-3.1,1.1c-0.5,0.5-0.9,1-1.2,1.6l-0.2-2.3h-5.1v19.5h5.5
			v-12.7c0-0.1,0-0.1,0.1-0.2c0.3-0.6,0.8-1,1.4-1.3c0.7-0.3,1.5-0.5,2.3-0.5c0.3,0,0.6,0,1,0s0.7,0.1,0.9,0.1l0.1-5.3
			C874.2,528.6,874,528.5,873.7,528.5z"/>
		<path class="st7" d="M894.1,538.1c0-1.7-0.3-3.5-1-5.1c-0.6-1.4-1.6-2.6-2.9-3.3c-3-1.6-6.7-1.6-9.7,0.1c-1.4,0.9-2.5,2.1-3.2,3.6
			c-0.8,1.6-1.2,3.4-1.1,5.2v0.7c0,1.6,0.4,3.3,1.2,4.7c0.8,1.4,1.9,2.6,3.4,3.4c1.6,0.9,3.4,1.3,5.3,1.3c1.7,0.1,3.3-0.3,4.8-1.1
			c1.1-0.6,2.1-1.4,2.8-2.4l-2.6-3c-0.5,0.7-1.2,1.3-2.1,1.6c-0.8,0.4-1.7,0.5-2.6,0.5c-0.9,0-1.8-0.2-2.5-0.6
			c-0.7-0.4-1.3-1-1.6-1.8c-0.2-0.5-0.4-1-0.5-1.5h12.3V538.1z M888.8,536.7h-6.9c0.1-0.4,0.1-0.7,0.2-1.1c0.2-0.8,0.6-1.5,1.2-2
			c0.6-0.5,1.4-0.8,2.2-0.8c0.7,0,1.3,0.1,1.9,0.4c0.5,0.3,0.9,0.7,1.1,1.2c0.2,0.6,0.4,1.2,0.4,1.8V536.7z"/>
		<path class="st7" d="M914.3,538.1c0-1.7-0.3-3.5-1-5.1c-0.6-1.4-1.6-2.6-2.9-3.3c-1.4-0.8-3.1-1.2-4.8-1.2c-1.7,0-3.4,0.4-4.9,1.3
			c-1.4,0.9-2.5,2.1-3.2,3.6c-0.8,1.6-1.1,3.4-1.1,5.2v0.7c0,1.7,0.4,3.3,1.2,4.8c0.8,1.4,1.9,2.6,3.4,3.4c1.6,0.9,3.4,1.3,5.3,1.3
			c1.7,0.1,3.3-0.3,4.8-1.1c1.1-0.6,2.1-1.4,2.8-2.4l-2.6-3c-0.5,0.7-1.2,1.3-2.1,1.6c-0.8,0.4-1.7,0.5-2.6,0.5
			c-0.9,0-1.8-0.2-2.5-0.6c-0.7-0.4-1.3-1-1.6-1.8c-0.2-0.5-0.4-1-0.5-1.5h12.3L914.3,538.1z M908.9,536.7H902
			c0.1-0.4,0.1-0.7,0.2-1.1c0.2-0.8,0.6-1.5,1.2-2c0.6-0.5,1.4-0.8,2.2-0.8c0.7,0,1.3,0.1,1.9,0.4c0.5,0.3,0.9,0.7,1.1,1.2
			c0.2,0.6,0.4,1.2,0.4,1.8L908.9,536.7z"/>
		<path class="st7" d="M933.3,531.6c-0.4-1-1.2-1.8-2.2-2.4c-1-0.5-2.1-0.7-3.2-0.7c-1.4,0-2.8,0.4-4,1.2c-0.6,0.4-1.1,0.9-1.6,1.4
			l-0.2-2.2h-5.1v19.5h5.5v-13.7c0.1-0.1,0.1-0.2,0.2-0.3c0.3-0.4,0.7-0.8,1.2-1.1c0.5-0.3,1.1-0.4,1.7-0.4c0.6,0,1.1,0.1,1.7,0.3
			c0.4,0.2,0.8,0.5,1,0.9c0.3,0.6,0.4,1.2,0.3,1.9v12.4h5.5V536C934.2,534.5,933.9,533,933.3,531.6z"/>
		<path class="st2" d="M961.2,541.5c0-0.5-0.1-1.1-0.4-1.5c-0.4-0.5-0.9-1-1.5-1.2c-1-0.5-2.1-0.9-3.2-1.3c-1.1-0.4-2.3-0.8-3.4-1.3
			c-1-0.5-2-1-2.9-1.7c-0.8-0.6-1.4-1.4-1.9-2.3c-0.5-0.9-0.7-2-0.7-3c0-1.4,0.4-2.8,1.3-3.9c0.9-1.2,2.1-2,3.5-2.6
			c1.6-0.6,3.3-1,5.1-0.9c1.8-0.1,3.5,0.3,5.1,1c1.4,0.6,2.5,1.6,3.4,2.9c0.8,1.3,1.2,2.7,1.2,4.2h-5.7c0-0.7-0.1-1.3-0.5-1.9
			c-0.3-0.6-0.8-1-1.4-1.3c-0.7-0.3-1.5-0.5-2.3-0.5c-0.8,0-1.5,0.1-2.3,0.4c-0.5,0.2-1,0.5-1.3,1c-0.3,0.4-0.4,0.9-0.4,1.5
			c0,0.6,0.2,1.1,0.6,1.5c0.5,0.5,1.1,0.9,1.7,1.2c0.9,0.4,1.8,0.7,2.8,1c1.7,0.5,3.3,1.2,4.8,2c1.2,0.7,2.2,1.6,2.9,2.8
			c0.7,1.1,1,2.5,1,3.8c0,1.4-0.4,2.8-1.2,4c-0.8,1.1-2,2-3.3,2.5c-1.6,0.6-3.3,0.9-5.1,0.9c-1.3,0-2.6-0.2-3.9-0.5
			c-1.2-0.3-2.4-0.9-3.5-1.6c-1-0.7-1.9-1.6-2.5-2.7c-0.6-1.2-1-2.5-0.9-3.9h5.7c0,0.7,0.1,1.4,0.3,2c0.2,0.5,0.6,1,1,1.3
			c0.5,0.4,1,0.6,1.6,0.7c0.7,0.2,1.4,0.2,2.1,0.2c0.8,0,1.5-0.1,2.2-0.4c0.5-0.2,1-0.5,1.3-1C961.1,542.5,961.2,542,961.2,541.5z"
			/>
		<path class="st2" d="M990.5,526.7H969v-4.6h21.5L990.5,526.7z M982.5,548.4h-5.7v-26.3h5.7V548.4z"/>
		<path class="st2" d="M999.3,548.4h-5.7v-26.3h5.7V548.4z M1011.3,526.7h-13.9v-4.6h13.9V526.7z M1009.6,537.1h-12.1v-4.4h12.1
			V537.1z M1011.4,548.4h-13.9v-4.6h13.9V548.4z"/>
		<path class="st2" d="M1019.3,522.1l0.9,19.5v6.8h-5.7v-26.3H1019.3z M1021.9,522.1l6.5,18.8l6.5-18.8h4.8l-9.4,26.3h-3.9
			l-9.4-26.3H1021.9z M1042.3,522.1v26.3h-5.7v-6.8l0.9-19.5H1042.3z"/>
	</g>
	<g id="stem-2">
		<g id="standard-2">
			<g class="st0">
				<path class="st1" d="M1069.7,321.3c2.6,0,5.2,0.7,7.6,2c2.4,1.3,4.3,3.2,5.7,5.7c1.4,2.5,2.1,5.1,2.1,7.7c0,2.7-0.7,5.2-2,7.7
					s-3.3,4.3-5.7,5.7s-5,2-7.7,2s-5.2-0.7-7.7-2c-2.4-1.4-4.3-3.3-5.7-5.7s-2-5-2-7.7c0-2.7,0.7-5.3,2.1-7.7
					c1.4-2.5,3.3-4.4,5.7-5.7C1064.5,321.9,1067,321.3,1069.7,321.3z M1069.7,324.3c-2.1,0-4.2,0.5-6.1,1.6
					c-1.9,1.1-3.5,2.6-4.6,4.6s-1.7,4.1-1.7,6.2c0,2.2,0.5,4.2,1.6,6.2c1.1,2,2.6,3.5,4.6,4.6c2,1.1,4,1.7,6.2,1.7
					c2.2,0,4.2-0.5,6.2-1.7c2-1.1,3.5-2.6,4.6-4.6c1.1-2,1.7-4,1.7-6.2c0-2.2-0.6-4.3-1.7-6.2s-2.7-3.5-4.6-4.6
					C1073.8,324.8,1071.8,324.3,1069.7,324.3z M1062.7,344.9v-16.4h3.3c3.1,0,4.9,0,5.2,0c1.1,0.1,2,0.3,2.6,0.7
					c0.6,0.3,1.1,0.9,1.5,1.6c0.4,0.7,0.6,1.5,0.6,2.3c0,1.2-0.4,2.2-1.2,3c-0.8,0.8-1.9,1.4-3.3,1.6c0.5,0.2,0.9,0.4,1.1,0.6
					c0.3,0.2,0.6,0.6,1.1,1.3c0.1,0.2,0.5,0.8,1.2,2l1.9,3.3h-4.1l-1.4-2.7c-0.9-1.8-1.7-2.9-2.3-3.4s-1.4-0.7-2.3-0.7h-0.9v6.7
					H1062.7z M1066,335.6h1.3c1.9,0,3.1-0.1,3.6-0.2c0.5-0.1,0.8-0.4,1.1-0.8c0.3-0.4,0.4-0.8,0.4-1.3c0-0.5-0.1-0.9-0.4-1.2
					s-0.6-0.6-1.1-0.8c-0.5-0.2-1.7-0.2-3.6-0.2h-1.3V335.6z"/>
			</g>
			<g class="st0">
				<path class="st2" d="M748.9,376.3c0-1.8-0.4-3.4-1.2-4.7s-2.2-2.4-4.2-3.5s-4.8-2.1-8.5-3.2c-2.9-0.8-5.5-1.8-7.8-2.8
					c-2.3-1.1-4.3-2.3-5.9-3.6s-2.9-2.9-3.8-4.7s-1.3-3.8-1.3-6c0-3,0.8-5.8,2.5-8.1c1.6-2.4,3.9-4.3,6.9-5.6S732,332,736,332
					c4.4,0,8.1,0.8,11.2,2.5c3.1,1.7,5.4,3.8,7,6.5c1.6,2.7,2.4,5.5,2.4,8.6h-7.8c0-2.2-0.5-4.1-1.4-5.8c-0.9-1.7-2.3-3-4.2-4
					s-4.3-1.5-7.2-1.5c-2.7,0-5,0.4-6.7,1.2c-1.8,0.8-3.1,1.9-3.9,3.4c-0.9,1.4-1.3,3-1.3,4.8c0,1.6,0.5,3.1,1.4,4.3
					s2.4,2.4,4.4,3.4c2,1,4.6,2,7.8,2.9c4.4,1.2,8,2.7,10.9,4.3c2.8,1.6,4.9,3.6,6.3,5.8c1.3,2.2,2,4.8,2,7.8c0,3.2-0.8,5.9-2.5,8.2
					c-1.7,2.3-4,4.2-7.1,5.4s-6.6,1.9-10.7,1.9c-2.7,0-5.3-0.4-7.9-1.1s-5-1.9-7.1-3.4c-2.1-1.5-3.8-3.3-5.1-5.5
					c-1.3-2.2-1.9-4.8-1.9-7.7h7.8c0,2,0.4,3.7,1.2,5.2s1.8,2.6,3.2,3.6c1.3,0.9,2.9,1.6,4.6,2.1c1.7,0.4,3.5,0.7,5.4,0.7
					c2.7,0,5-0.4,6.8-1.1c1.9-0.8,3.3-1.8,4.2-3.2C748.4,379.9,748.9,378.2,748.9,376.3z"/>
				<path class="st2" d="M782.8,385.9c1.8,0,3.4-0.4,4.9-1.1c1.5-0.7,2.7-1.7,3.7-3s1.5-2.7,1.6-4.4h7.1c-0.1,2.6-1,4.9-2.6,7.1
					c-1.6,2.2-3.7,4-6.2,5.3c-2.6,1.3-5.4,2-8.4,2c-4.4,0-8-1-10.8-3s-5-4.6-6.4-7.9s-2.1-6.9-2.1-10.7v-1.7c0-3.9,0.7-7.5,2.1-10.8
					s3.5-5.9,6.4-7.9c2.9-2,6.4-3,10.8-3c3.4,0,6.4,0.7,8.9,2.1c2.5,1.4,4.6,3.2,6,5.6c1.5,2.4,2.2,5,2.4,8H793
					c-0.1-1.8-0.6-3.4-1.5-4.9c-0.9-1.5-2-2.6-3.5-3.5c-1.5-0.9-3.2-1.3-5.2-1.3c-3,0-5.4,0.8-7.1,2.3c-1.7,1.5-2.9,3.5-3.6,5.9
					c-0.7,2.4-1.1,4.9-1.1,7.4v1.7c0,2.5,0.3,5,1,7.4s1.9,4.4,3.6,5.9C777.3,385.1,779.7,385.9,782.8,385.9z"/>
				<path class="st2" d="M808.4,336.2c0-1.2,0.4-2.2,1.1-3c0.7-0.8,1.8-1.2,3.3-1.2s2.5,0.4,3.3,1.2c0.8,0.8,1.1,1.8,1.1,3
					c0,1.1-0.4,2.1-1.1,2.9s-1.9,1.2-3.3,1.2s-2.5-0.4-3.3-1.2C808.8,338.4,808.4,337.4,808.4,336.2z M816.5,391.1H809v-43.3h7.5
					V391.1z"/>
				<path class="st2" d="M846.3,391.9c-4,0-7.5-0.9-10.5-2.7c-3-1.8-5.3-4.3-6.9-7.4c-1.6-3.1-2.5-6.8-2.5-10.8v-1.7
					c0-4.7,0.9-8.7,2.7-12c1.8-3.3,4.2-5.9,7-7.6c2.9-1.7,6-2.6,9.2-2.6c4.2,0,7.6,0.9,10.2,2.8c2.6,1.9,4.6,4.4,5.8,7.6
					c1.2,3.2,1.9,6.8,1.9,10.8v3.3h-32.4v-6h24.9v-0.6c-0.1-1.9-0.5-3.8-1.2-5.6s-1.7-3.3-3.2-4.5c-1.5-1.2-3.5-1.8-6-1.8
					c-2.2,0-4.2,0.6-5.9,1.9s-3.1,3.1-4,5.5c-1,2.4-1.5,5.4-1.5,8.8v1.7c0,2.8,0.5,5.3,1.5,7.5c1,2.3,2.5,4.1,4.4,5.4s4.2,2,6.9,2
					c2.6,0,4.8-0.5,6.6-1.6c1.8-1.1,3.4-2.5,4.8-4.3l4.5,3.5c-1.4,2.1-3.4,4.1-6,5.8C854,391,850.6,391.9,846.3,391.9z"/>
				<path class="st2" d="M879.3,391.1h-7.5v-43.3h7.1l0.4,9.2V391.1z M874.4,367.6c0.1-4,0.8-7.5,2.3-10.6s3.5-5.6,6.1-7.4
					c2.6-1.8,5.7-2.7,9.2-2.7c2.9,0,5.3,0.5,7.4,1.6c2.1,1.1,3.7,2.7,4.8,5c1.1,2.3,1.7,5.3,1.7,9.1v28.4h-7.5v-28.5
					c0-2.3-0.3-4.1-1-5.5c-0.7-1.4-1.6-2.4-2.9-3c-1.3-0.6-2.9-0.9-4.7-0.9c-1.8,0-3.5,0.4-5,1.2c-1.5,0.8-2.8,1.8-3.9,3.2
					s-1.9,2.9-2.5,4.7c-0.6,1.7-0.9,3.6-0.9,5.5L874.4,367.6z"/>
				<path class="st2" d="M934.5,385.9c1.8,0,3.4-0.4,4.9-1.1c1.5-0.7,2.7-1.7,3.7-3s1.5-2.7,1.6-4.4h7.1c-0.1,2.6-1,4.9-2.6,7.1
					c-1.6,2.2-3.7,4-6.2,5.3c-2.6,1.3-5.4,2-8.4,2c-4.4,0-8-1-10.8-3s-5-4.6-6.4-7.9s-2.1-6.9-2.1-10.7v-1.7c0-3.9,0.7-7.5,2.1-10.8
					s3.5-5.9,6.4-7.9c2.9-2,6.4-3,10.8-3c3.4,0,6.4,0.7,8.9,2.1c2.5,1.4,4.6,3.2,6,5.6c1.5,2.4,2.2,5,2.4,8h-7.1
					c-0.1-1.8-0.6-3.4-1.5-4.9c-0.9-1.5-2-2.6-3.5-3.5c-1.5-0.9-3.2-1.3-5.2-1.3c-3,0-5.4,0.8-7.1,2.3c-1.7,1.5-2.9,3.5-3.6,5.9
					c-0.7,2.4-1.1,4.9-1.1,7.4v1.7c0,2.5,0.3,5,1,7.4s1.9,4.4,3.6,5.9C929,385.1,931.4,385.9,934.5,385.9z"/>
			</g>
			<g class="st0">
				<path class="st2" d="M972.1,391.1h-12.6v-58.3h12.6V391.1z M998.8,343H968v-10.2h30.8V343z M994.8,366H968v-9.8h26.8V366z
					 M998.8,391.1H968V381h30.8V391.1z"/>
				<path class="st2" d="M1003.1,369.1c0-4.4,0.7-8.3,2-11.6c1.3-3.3,3.2-5.9,5.8-7.8s5.6-2.8,9.2-2.8c3.4,0,6.2,1,8.5,2.9
					c2.3,1.9,4.1,4.6,5.4,7.9c1.3,3.4,2.2,7.1,2.7,11.4v1c-0.5,4-1.4,7.7-2.7,11s-3.1,5.9-5.4,7.8s-5.1,2.9-8.6,2.9
					c-3.6,0-6.6-1-9.1-2.9c-2.5-1.9-4.4-4.5-5.8-7.8c-1.3-3.3-2-7.1-2-11.3V369.1z M1015.1,369.9c0,2.2,0.3,4.3,0.8,6.1
					c0.5,1.8,1.3,3.3,2.5,4.4c1.1,1.1,2.7,1.6,4.6,1.6c1.9,0,3.5-0.4,4.7-1.3c1.2-0.9,2.2-2.1,2.8-3.6c0.6-1.5,1-3.3,1.1-5.4v-4.2
					c-0.1-1.7-0.3-3.3-0.7-4.6c-0.4-1.3-0.9-2.5-1.6-3.4c-0.7-0.9-1.5-1.6-2.6-2.1s-2.3-0.7-3.7-0.7c-1.9,0-3.5,0.5-4.6,1.6
					c-1.2,1.1-2,2.5-2.5,4.4s-0.8,4-0.8,6.3V369.9z M1030.2,329.6h12.2v61.5h-10.9l-1.2-9.6V329.6z"/>
			</g>
			<path class="st3" d="M605.8,364.3h44.5"/>
			<path class="st3" d="M628,324.9l22.3,38.7"/>
			<path class="st3" d="M672.5,324.9l-22.3,38.7"/>
			<path class="st3" d="M694.8,364.3h-44.5"/>
			<path class="st3" d="M672.5,402.3l-22.3-38.7"/>
			<path class="st3" d="M628,402.3l22.3-38.7"/>
			<path class="st4" d="M650.3,386.6c12.7,0.1,23-10.2,23.1-22.9c0.1-12.7-10.2-23-22.9-23.1c-12.7-0.1-23,10.2-23.1,22.9
				c0,0,0,0.1,0,0.1C627.3,376.3,637.6,386.6,650.3,386.6C650.2,386.6,650.2,386.6,650.3,386.6z"/>
			<path class="st5" d="M605.8,376.4c7,0,12.8-5.7,12.8-12.8s-5.7-12.8-12.8-12.8c-7,0-12.8,5.7-12.8,12.8
				C593,370.7,598.7,376.4,605.8,376.4C605.7,376.4,605.7,376.4,605.8,376.4z"/>
			<path class="st6" d="M628,337.7c7,0,12.8-5.7,12.8-12.7c0-7-5.7-12.8-12.7-12.8c-7,0-12.8,5.7-12.8,12.7c0,0,0,0,0,0
				C615.3,332,620.9,337.7,628,337.7C628,337.7,628,337.7,628,337.7z"/>
			<path class="st5" d="M672.5,337.7c7,0,12.8-5.7,12.8-12.7c0-7-5.7-12.8-12.7-12.8c-7,0-12.8,5.7-12.8,12.7c0,0,0,0,0,0
				C659.8,332,665.5,337.7,672.5,337.7C672.5,337.7,672.5,337.7,672.5,337.7z"/>
			<path class="st7" d="M694.8,376.4c7,0,12.8-5.7,12.8-12.8s-5.7-12.8-12.8-12.8c-7,0-12.8,5.7-12.8,12.8
				C682,370.7,687.7,376.4,694.8,376.4C694.7,376.4,694.7,376.4,694.8,376.4z"/>
			<path class="st5" d="M672.5,415c7,0,12.8-5.7,12.8-12.7c0-7-5.7-12.8-12.7-12.8c-7,0-12.8,5.7-12.8,12.7c0,0,0,0,0,0
				C659.8,409.3,665.5,415,672.5,415C672.5,415,672.5,415,672.5,415z"/>
			<path class="st5" d="M628,415c7,0,12.8-5.7,12.8-12.7c0-7-5.7-12.8-12.7-12.8c-7,0-12.8,5.7-12.8,12.7c0,0,0,0,0,0
				C615.3,409.3,621,415,628,415C628,415,628,415,628,415z"/>
		</g>
		<g class="st0">
			<path class="st2" d="M961.2,418.1c0-0.6-0.1-1.1-0.4-1.5c-0.3-0.4-0.7-0.8-1.5-1.2c-0.7-0.4-1.8-0.8-3.2-1.3
				c-1.2-0.4-2.3-0.8-3.4-1.3c-1.1-0.5-2-1.1-2.8-1.7s-1.5-1.4-1.9-2.3c-0.5-0.9-0.7-1.9-0.7-3c0-1.5,0.4-2.8,1.3-3.9
				c0.8-1.1,2-2,3.5-2.6c1.5-0.6,3.2-0.9,5.1-0.9c2,0,3.7,0.3,5.1,1c1.5,0.7,2.6,1.6,3.4,2.9s1.2,2.6,1.2,4.2h-5.7
				c0-0.7-0.2-1.3-0.5-1.9c-0.3-0.5-0.8-1-1.4-1.3c-0.6-0.3-1.4-0.5-2.3-0.5c-0.9,0-1.7,0.1-2.3,0.4c-0.6,0.3-1.1,0.6-1.3,1
				s-0.4,0.9-0.4,1.5c0,0.6,0.2,1.1,0.6,1.5c0.4,0.4,1,0.8,1.7,1.2c0.8,0.4,1.7,0.7,2.8,1c1.9,0.6,3.5,1.3,4.8,2
				c1.3,0.8,2.3,1.7,2.9,2.8c0.7,1.1,1,2.3,1,3.8c0,1.5-0.4,2.9-1.2,4c-0.8,1.1-1.9,1.9-3.3,2.5c-1.4,0.6-3.1,0.9-5.1,0.9
				c-1.3,0-2.6-0.2-3.9-0.5c-1.3-0.3-2.4-0.9-3.5-1.6c-1-0.7-1.9-1.6-2.5-2.7c-0.6-1.1-0.9-2.4-0.9-3.9h5.7c0,0.8,0.1,1.4,0.4,2
				c0.2,0.5,0.6,1,1,1.3c0.4,0.3,1,0.6,1.6,0.7c0.6,0.2,1.3,0.2,2.1,0.2c0.9,0,1.6-0.1,2.2-0.4c0.6-0.2,1-0.6,1.3-1
				C961.1,419.2,961.2,418.7,961.2,418.1z"/>
			<path class="st2" d="M990.4,403.4h-21.5v-4.6h21.5V403.4z M982.4,425.1h-5.7v-26.3h5.7V425.1z"/>
			<path class="st2" d="M999.1,425.1h-5.7v-26.3h5.7V425.1z M1011.1,403.4h-13.9v-4.6h13.9V403.4z M1009.4,413.8h-12.1v-4.4h12.1
				V413.8z M1011.2,425.1h-13.9v-4.6h13.9V425.1z"/>
			<path class="st2" d="M1019,398.8l0.9,19.5v6.8h-5.7v-26.3H1019z M1021.6,398.8l6.5,18.8l6.5-18.8h4.8l-9.4,26.3h-3.9l-9.4-26.3
				H1021.6z M1042.1,398.8v26.3h-5.7v-6.8l0.9-19.5H1042.1z"/>
		</g>
	</g>
	<g id="ecokids">
		<g class="st0">
			<path class="st1" d="M1069.7,191.5c2.6,0,5.2,0.7,7.6,2c2.4,1.3,4.3,3.2,5.7,5.7c1.4,2.5,2.1,5.1,2.1,7.7c0,2.7-0.7,5.2-2,7.7
				s-3.3,4.3-5.7,5.7s-5,2-7.7,2s-5.2-0.7-7.7-2c-2.4-1.4-4.3-3.3-5.7-5.7s-2-5-2-7.7c0-2.7,0.7-5.3,2.1-7.7
				c1.4-2.5,3.3-4.4,5.7-5.7C1064.5,192.2,1067,191.5,1069.7,191.5z M1069.7,194.5c-2.1,0-4.2,0.5-6.1,1.6c-1.9,1.1-3.5,2.6-4.6,4.6
				s-1.7,4.1-1.7,6.2c0,2.2,0.5,4.2,1.6,6.2c1.1,2,2.6,3.5,4.6,4.6c2,1.1,4,1.7,6.2,1.7c2.2,0,4.2-0.5,6.2-1.7
				c2-1.1,3.5-2.6,4.6-4.6c1.1-2,1.7-4,1.7-6.2c0-2.2-0.6-4.3-1.7-6.2s-2.7-3.5-4.6-4.6C1073.8,195.1,1071.8,194.5,1069.7,194.5z
				 M1062.7,215.2v-16.4h3.3c3.1,0,4.9,0,5.2,0c1.1,0.1,2,0.3,2.6,0.7c0.6,0.3,1.1,0.9,1.5,1.6c0.4,0.7,0.6,1.5,0.6,2.3
				c0,1.2-0.4,2.2-1.2,3c-0.8,0.8-1.9,1.4-3.3,1.6c0.5,0.2,0.9,0.4,1.1,0.6c0.3,0.2,0.6,0.6,1.1,1.3c0.1,0.2,0.5,0.8,1.2,2l1.9,3.3
				h-4.1l-1.4-2.7c-0.9-1.8-1.7-2.9-2.3-3.4s-1.4-0.7-2.3-0.7h-0.9v6.7H1062.7z M1066,205.9h1.3c1.9,0,3.1-0.1,3.6-0.2
				c0.5-0.1,0.8-0.4,1.1-0.8c0.3-0.4,0.4-0.8,0.4-1.3c0-0.5-0.1-0.9-0.4-1.2s-0.6-0.6-1.1-0.8c-0.5-0.2-1.7-0.2-3.6-0.2h-1.3V205.9z
				"/>
		</g>
		<g id="flower">
			<path class="st3" d="M605.7,233.7h44.6"/>
			<path class="st3" d="M628,194.3l22.3,38.7"/>
			<path class="st3" d="M672.5,194.3L650.3,233"/>
			<path class="st3" d="M694.8,233.7h-44.6"/>
			<path class="st3" d="M672.5,271.8L650.3,233"/>
			<path class="st3" d="M628,271.8l22.3-38.8"/>
			<path class="st4" d="M650.3,256c12.7,0,23-10.2,23.1-22.9s-10.2-23-22.9-23.1s-23,10.2-23.1,22.9c0,0,0,0.1,0,0.1
				C627.3,245.7,637.6,256,650.3,256z"/>
			<path class="st5" d="M605.7,245.8c7.1,0,12.8-5.6,12.9-12.7c0-7.1-5.6-12.8-12.7-12.9c-7.1,0-12.8,5.6-12.9,12.7c0,0,0,0,0,0.1
				C593,240,598.7,245.8,605.7,245.8C605.7,245.8,605.7,245.8,605.7,245.8z"/>
			<path class="st6" d="M628,207.1c7.1,0,12.8-5.7,12.8-12.7s-5.7-12.8-12.7-12.8s-12.8,5.7-12.8,12.7c0,0,0,0,0,0
				C615.2,201.3,620.9,207.1,628,207.1C628,207.1,628,207.1,628,207.1z"/>
			<path class="st5" d="M672.5,207.1c7.1,0,12.8-5.7,12.8-12.7c0-7.1-5.7-12.8-12.7-12.8c-7.1,0-12.8,5.7-12.8,12.7c0,0,0,0,0,0
				C659.8,201.3,665.5,207.1,672.5,207.1C672.5,207.1,672.5,207.1,672.5,207.1z"/>
			<path class="st7" d="M694.8,245.8c7.1,0,12.8-5.7,12.8-12.7c0-7.1-5.7-12.8-12.7-12.8c-7.1,0-12.8,5.7-12.8,12.7c0,0,0,0,0,0
				C682.1,240,687.7,245.8,694.8,245.8C694.8,245.8,694.8,245.8,694.8,245.8z"/>
			<path class="st5" d="M672.5,284.5c7.1,0,12.8-5.7,12.8-12.7c0-7.1-5.7-12.8-12.7-12.8s-12.8,5.7-12.8,12.7c0,0,0,0,0,0.1
				C659.8,278.8,665.5,284.5,672.5,284.5L672.5,284.5z"/>
			<path class="st5" d="M628,284.5c7.1,0,12.8-5.7,12.8-12.7c0-7.1-5.7-12.8-12.7-12.8s-12.8,5.7-12.8,12.7c0,0,0,0,0,0.1
				C615.3,278.8,621,284.5,628,284.5L628,284.5z"/>
		</g>
		<g class="st0">
			<path class="st2" d="M748.9,246.4c0-1.8-0.4-3.4-1.2-4.7s-2.2-2.4-4.2-3.5s-4.8-2.1-8.5-3.2c-2.9-0.8-5.5-1.8-7.8-2.8
				c-2.3-1.1-4.3-2.3-5.9-3.6s-2.9-2.9-3.8-4.7s-1.3-3.8-1.3-6c0-3,0.8-5.8,2.5-8.1c1.6-2.4,3.9-4.3,6.9-5.6s6.4-2.1,10.4-2.1
				c4.4,0,8.1,0.8,11.2,2.5c3.1,1.7,5.4,3.8,7,6.5c1.6,2.7,2.4,5.5,2.4,8.6h-7.8c0-2.2-0.5-4.1-1.4-5.8c-0.9-1.7-2.3-3-4.2-4
				s-4.3-1.5-7.2-1.5c-2.7,0-5,0.4-6.7,1.2c-1.8,0.8-3.1,1.9-3.9,3.4c-0.9,1.4-1.3,3-1.3,4.8c0,1.6,0.5,3.1,1.4,4.3s2.4,2.4,4.4,3.4
				c2,1,4.6,2,7.8,2.9c4.4,1.2,8,2.7,10.9,4.3c2.8,1.6,4.9,3.6,6.3,5.8c1.3,2.2,2,4.8,2,7.8c0,3.2-0.8,5.9-2.5,8.2
				c-1.7,2.3-4,4.2-7.1,5.4s-6.6,1.9-10.7,1.9c-2.7,0-5.3-0.4-7.9-1.1s-5-1.9-7.1-3.4c-2.1-1.5-3.8-3.3-5.1-5.5
				c-1.3-2.2-1.9-4.8-1.9-7.7h7.8c0,2,0.4,3.7,1.2,5.2s1.8,2.6,3.2,3.6c1.3,0.9,2.9,1.6,4.6,2.1c1.7,0.4,3.5,0.7,5.4,0.7
				c2.7,0,5-0.4,6.8-1.1c1.9-0.8,3.3-1.8,4.2-3.2C748.4,250,748.9,248.3,748.9,246.4z"/>
			<path class="st2" d="M782.8,256c1.8,0,3.4-0.4,4.9-1.1c1.5-0.7,2.7-1.7,3.7-3s1.5-2.7,1.6-4.4h7.1c-0.1,2.6-1,4.9-2.6,7.1
				c-1.6,2.2-3.7,4-6.2,5.3c-2.6,1.3-5.4,2-8.4,2c-4.4,0-8-1-10.8-3s-5-4.6-6.4-7.9s-2.1-6.9-2.1-10.7v-1.7c0-3.9,0.7-7.5,2.1-10.8
				s3.5-5.9,6.4-7.9c2.9-2,6.4-3,10.8-3c3.4,0,6.4,0.7,8.9,2.1c2.5,1.4,4.6,3.2,6,5.6c1.5,2.4,2.2,5,2.4,8H793
				c-0.1-1.8-0.6-3.4-1.5-4.9c-0.9-1.5-2-2.6-3.5-3.5c-1.5-0.9-3.2-1.3-5.2-1.3c-3,0-5.4,0.8-7.1,2.3c-1.7,1.5-2.9,3.5-3.6,5.9
				c-0.7,2.4-1.1,4.9-1.1,7.4v1.7c0,2.5,0.3,5,1,7.4s1.9,4.4,3.6,5.9C777.3,255.2,779.7,256,782.8,256z"/>
			<path class="st2" d="M808.4,206.3c0-1.2,0.4-2.2,1.1-3c0.7-0.8,1.8-1.2,3.3-1.2s2.5,0.4,3.3,1.2c0.8,0.8,1.1,1.8,1.1,3
				c0,1.1-0.4,2.1-1.1,2.9s-1.9,1.2-3.3,1.2s-2.5-0.4-3.3-1.2C808.8,208.4,808.4,207.5,808.4,206.3z M816.5,261.2H809v-43.3h7.5
				V261.2z"/>
			<path class="st2" d="M846.3,262c-4,0-7.5-0.9-10.5-2.7c-3-1.8-5.3-4.3-6.9-7.4c-1.6-3.1-2.5-6.8-2.5-10.8v-1.7
				c0-4.7,0.9-8.7,2.7-12c1.8-3.3,4.2-5.9,7-7.6c2.9-1.7,6-2.6,9.2-2.6c4.2,0,7.6,0.9,10.2,2.8c2.6,1.9,4.6,4.4,5.8,7.6
				c1.2,3.2,1.9,6.8,1.9,10.8v3.3h-32.4v-6h24.9V235c-0.1-1.9-0.5-3.8-1.2-5.6s-1.7-3.3-3.2-4.5c-1.5-1.2-3.5-1.8-6-1.8
				c-2.2,0-4.2,0.6-5.9,1.9s-3.1,3.1-4,5.5c-1,2.4-1.5,5.4-1.5,8.8v1.7c0,2.8,0.5,5.3,1.5,7.5c1,2.3,2.5,4.1,4.4,5.4s4.2,2,6.9,2
				c2.6,0,4.8-0.5,6.6-1.6c1.8-1.1,3.4-2.5,4.8-4.3l4.5,3.5c-1.4,2.1-3.4,4.1-6,5.8C854,261.1,850.6,262,846.3,262z"/>
			<path class="st2" d="M879.3,261.2h-7.5v-43.3h7.1l0.4,9.2V261.2z M874.4,237.7c0.1-4,0.8-7.5,2.3-10.6s3.5-5.6,6.1-7.4
				c2.6-1.8,5.7-2.7,9.2-2.7c2.9,0,5.3,0.5,7.4,1.6c2.1,1.1,3.7,2.7,4.8,5c1.1,2.3,1.7,5.3,1.7,9.1v28.4h-7.5v-28.5
				c0-2.3-0.3-4.1-1-5.5c-0.7-1.4-1.6-2.4-2.9-3c-1.3-0.6-2.9-0.9-4.7-0.9c-1.8,0-3.5,0.4-5,1.2c-1.5,0.8-2.8,1.8-3.9,3.2
				s-1.9,2.9-2.5,4.7c-0.6,1.7-0.9,3.6-0.9,5.5L874.4,237.7z"/>
			<path class="st2" d="M934.5,256c1.8,0,3.4-0.4,4.9-1.1c1.5-0.7,2.7-1.7,3.7-3s1.5-2.7,1.6-4.4h7.1c-0.1,2.6-1,4.9-2.6,7.1
				c-1.6,2.2-3.7,4-6.2,5.3c-2.6,1.3-5.4,2-8.4,2c-4.4,0-8-1-10.8-3s-5-4.6-6.4-7.9s-2.1-6.9-2.1-10.7v-1.7c0-3.9,0.7-7.5,2.1-10.8
				s3.5-5.9,6.4-7.9c2.9-2,6.4-3,10.8-3c3.4,0,6.4,0.7,8.9,2.1c2.5,1.4,4.6,3.2,6,5.6c1.5,2.4,2.2,5,2.4,8h-7.1
				c-0.1-1.8-0.6-3.4-1.5-4.9c-0.9-1.5-2-2.6-3.5-3.5c-1.5-0.9-3.2-1.3-5.2-1.3c-3,0-5.4,0.8-7.1,2.3c-1.7,1.5-2.9,3.5-3.6,5.9
				c-0.7,2.4-1.1,4.9-1.1,7.4v1.7c0,2.5,0.3,5,1,7.4s1.9,4.4,3.6,5.9C929,255.2,931.4,256,934.5,256z"/>
		</g>
		<g class="st0">
			<path class="st2" d="M972.1,261.2h-12.6v-58.3h12.6V261.2z M998.8,213H968v-10.2h30.8V213z M994.8,236.1H968v-9.8h26.8V236.1z
				 M998.8,261.2H968V251h30.8V261.2z"/>
			<path class="st2" d="M1003.1,239.2c0-4.4,0.7-8.3,2-11.6c1.3-3.3,3.2-5.9,5.8-7.8s5.6-2.8,9.2-2.8c3.4,0,6.2,1,8.5,2.9
				c2.3,1.9,4.1,4.6,5.4,7.9c1.3,3.4,2.2,7.1,2.7,11.4v1c-0.5,4-1.4,7.7-2.7,11s-3.1,5.9-5.4,7.8s-5.1,2.9-8.6,2.9
				c-3.6,0-6.6-1-9.1-2.9c-2.5-1.9-4.4-4.5-5.8-7.8c-1.3-3.3-2-7.1-2-11.3V239.2z M1015.1,240c0,2.2,0.3,4.3,0.8,6.1
				c0.5,1.8,1.3,3.3,2.5,4.4c1.1,1.1,2.7,1.6,4.6,1.6c1.9,0,3.5-0.4,4.7-1.3c1.2-0.9,2.2-2.1,2.8-3.6c0.6-1.5,1-3.3,1.1-5.4v-4.2
				c-0.1-1.7-0.3-3.3-0.7-4.6c-0.4-1.3-0.9-2.5-1.6-3.4c-0.7-0.9-1.5-1.6-2.6-2.1s-2.3-0.7-3.7-0.7c-1.9,0-3.5,0.5-4.6,1.6
				c-1.2,1.1-2,2.5-2.5,4.4s-0.8,4-0.8,6.3V240z M1030.2,199.7h12.2v61.5h-10.9l-1.2-9.6V199.7z"/>
		</g>
		<polygon class="st7" points="963.3,288.1 963.3,279 974.4,279 974.4,276.2 963.3,276.2 963.3,268 976,268 976,265.2 963.3,265.2 
			962.7,265.2 959.9,265.2 959.9,290.8 962.7,290.8 963.3,290.8 976.2,290.8 976.2,288.1 		"/>
		<path class="st7" d="M987.2,288.5c0.7,0,1.5-0.2,2.2-0.5c0.6-0.3,1.2-0.8,1.6-1.3c0.4-0.6,0.7-1.2,0.7-1.9h3.1
			c-0.1,1.1-0.5,2.2-1.2,3.1c-1.5,2-3.9,3.2-6.5,3.2c-1.7,0.1-3.3-0.4-4.7-1.3c-1.3-0.9-2.2-2.1-2.8-3.5c-0.6-1.5-0.9-3.1-0.9-4.7
			v-0.7c0-1.6,0.3-3.2,0.9-4.7c0.6-1.4,1.6-2.6,2.8-3.5c1.4-0.9,3.1-1.4,4.7-1.3c1.4,0,2.7,0.3,3.9,0.9c1.1,0.6,2,1.4,2.6,2.5
			c0.6,1.1,1,2.3,1,3.5h-3.1c-0.1-0.8-0.3-1.5-0.7-2.1c-0.4-0.6-0.9-1.2-1.5-1.5c-0.7-0.4-1.5-0.6-2.3-0.6c-1.1-0.1-2.2,0.3-3.1,1
			c-0.8,0.7-1.3,1.6-1.6,2.6c-0.3,1.1-0.5,2.1-0.5,3.2v0.7c0,1.1,0.1,2.2,0.5,3.3c0.3,1,0.8,1.9,1.6,2.6
			C984.9,288.2,986,288.6,987.2,288.5z"/>
		<path class="st7" d="M997.6,281.1c0-1.7,0.3-3.4,1.1-4.9c0.7-1.4,1.7-2.6,3-3.5c1.4-0.9,3-1.3,4.6-1.3c1.6,0,3.3,0.4,4.6,1.3
			c1.3,0.9,2.3,2,3,3.5c0.7,1.5,1,3.2,1,4.9v0.4c0,1.7-0.3,3.4-1,4.9c-2,4.2-6.9,6-11.1,4.1c-1.8-0.8-3.2-2.3-4.1-4.1
			c-0.7-1.5-1.1-3.2-1.1-4.9L997.6,281.1z M1000.8,281.5c0,1.2,0.2,2.4,0.6,3.5c0.3,1,1,1.9,1.8,2.6c1.8,1.3,4.2,1.3,6,0
			c0.8-0.7,1.4-1.6,1.8-2.6c0.4-1.1,0.6-2.3,0.6-3.5v-0.4c0-1.2-0.2-2.4-0.6-3.5c-0.4-1-1-1.9-1.8-2.6c-0.9-0.7-1.9-1-3-1
			c-1.1,0-2.2,0.3-3,1c-0.8,0.7-1.4,1.6-1.8,2.6c-0.4,1.1-0.6,2.3-0.6,3.5L1000.8,281.5z"/>
		<polygon class="st6" points="1033.2,290.8 1039.7,290.8 1030.6,276.6 1039.5,265.2 1032.7,265.2 1026.5,273.5 1024.2,276.6 
			1024.2,265.2 1018.7,265.2 1018.7,290.8 1024.2,290.8 1024.2,283.6 1026.9,280.8 		"/>
		<path class="st4" d="M1041.2,266.9c0-0.8,0.3-1.5,0.8-2c0.6-0.5,1.4-0.8,2.2-0.8c0.8,0,1.6,0.2,2.2,0.8c1.1,1.1,1.1,2.8,0,3.9
			c-0.6,0.5-1.4,0.8-2.2,0.8c-0.8,0-1.6-0.2-2.2-0.8C1041.5,268.3,1041.2,267.6,1041.2,266.9z M1046.9,290.8h-5.3v-19h5.3V290.8z"/>
		<path class="st7" d="M1062.1,263.8v9.6c-0.2-0.3-0.5-0.5-0.7-0.7c-1-0.9-2.4-1.3-3.7-1.3c-1.4,0-2.8,0.4-4,1.2
			c-1.2,0.9-2,2.1-2.5,3.4c-0.6,1.6-0.9,3.4-0.9,5.1v0.4c0,1.7,0.3,3.4,0.9,4.9c0.5,1.4,1.4,2.5,2.5,3.4c1.2,0.8,2.6,1.3,4,1.3
			c1.4,0,2.7-0.4,3.8-1.3c0.4-0.3,0.7-0.7,1-1.1l0.3,2h4.8v-27L1062.1,263.8z M1061,286.3c-0.6,0.4-1.3,0.6-2.1,0.6
			c-0.7,0-1.4-0.2-2-0.7c-0.5-0.5-0.9-1.2-1.1-1.9c-0.2-0.9-0.3-1.8-0.3-2.7v-0.4c0-0.9,0.1-1.9,0.3-2.8c0.2-0.7,0.6-1.4,1.1-1.9
			c0.6-0.5,1.3-0.7,2-0.7c0.6,0,1.1,0.1,1.6,0.3c0.5,0.2,0.8,0.5,1.1,0.9c0.1,0.2,0.3,0.4,0.4,0.6v7.3
			C1061.9,285.5,1061.5,285.9,1061,286.3z"/>
		<path class="st5" d="M1081.4,285.5c0-0.3-0.1-0.7-0.3-0.9c-0.3-0.3-0.7-0.6-1.1-0.7c-0.8-0.3-1.6-0.5-2.4-0.7
			c-1.2-0.3-2.3-0.6-3.4-1.1c-0.9-0.4-1.8-1.1-2.4-1.9c-0.6-0.8-0.9-1.8-0.9-2.8c0-1.1,0.3-2.1,0.9-3c0.7-1,1.6-1.7,2.6-2.2
			c1.3-0.6,2.7-0.9,4.1-0.8c1.5,0,2.9,0.2,4.3,0.8c1.1,0.5,2.1,1.2,2.8,2.2c0.7,0.9,1,2,1,3.2h-5.3c0-0.6-0.2-1.3-0.7-1.8
			c-0.6-0.5-1.3-0.7-2.1-0.7c-0.5,0-0.9,0.1-1.3,0.3c-0.4,0.2-0.7,0.4-0.9,0.7c-0.2,0.3-0.3,0.6-0.3,1c0,0.3,0.1,0.7,0.3,0.9
			c0.3,0.3,0.7,0.6,1.1,0.7c0.6,0.2,1.3,0.4,2,0.5c1.3,0.2,2.5,0.6,3.7,1.1c1,0.4,1.9,1,2.6,1.9c0.7,0.9,1,2,1,3.1
			c0,1.1-0.3,2.1-1,3c-0.7,0.9-1.7,1.7-2.8,2.1c-1.4,0.5-2.8,0.8-4.3,0.8c-1.6,0-3.1-0.3-4.5-1c-1.1-0.6-2.1-1.4-2.8-2.5
			c-0.6-0.9-1-1.9-1-3h5c0,0.6,0.2,1.1,0.5,1.5c0.3,0.4,0.7,0.7,1.2,0.9c0.5,0.2,1.1,0.3,1.6,0.3c0.5,0,1-0.1,1.5-0.2
			c0.4-0.1,0.7-0.4,0.9-0.7C1081.3,286.2,1081.4,285.8,1081.4,285.5z"/>
		<path class="st7" d="M1082.1,269.8c-0.6-4.9,7.5-11.1,12.3-9.8c0,0-0.7,11.4-10.1,9.1c-2.1-0.5,3.5-4.6,3.5-4.6
			C1085.1,264.7,1082,269.3,1082.1,269.8z"/>
		<g class="st0">
			<path class="st1" d="M1069.7,191c2.6,0,5.2,0.7,7.6,2c2.4,1.3,4.3,3.2,5.7,5.7c1.4,2.5,2.1,5.1,2.1,7.7c0,2.7-0.7,5.2-2,7.7
				s-3.3,4.3-5.7,5.7s-5,2-7.7,2s-5.2-0.7-7.7-2c-2.4-1.4-4.3-3.3-5.7-5.7s-2-5-2-7.7c0-2.7,0.7-5.3,2.1-7.7
				c1.4-2.5,3.3-4.4,5.7-5.7C1064.5,191.7,1067,191,1069.7,191z M1069.7,194c-2.1,0-4.2,0.5-6.1,1.6c-1.9,1.1-3.5,2.6-4.6,4.6
				s-1.7,4.1-1.7,6.2c0,2.2,0.5,4.2,1.6,6.2c1.1,2,2.6,3.5,4.6,4.6c2,1.1,4,1.7,6.2,1.7c2.2,0,4.2-0.5,6.2-1.7
				c2-1.1,3.5-2.6,4.6-4.6c1.1-2,1.7-4,1.7-6.2c0-2.2-0.6-4.3-1.7-6.2s-2.7-3.5-4.6-4.6C1073.8,194.6,1071.8,194,1069.7,194z
				 M1062.7,214.7v-16.4h3.3c3.1,0,4.9,0,5.2,0c1.1,0.1,2,0.3,2.6,0.7c0.6,0.3,1.1,0.9,1.5,1.6c0.4,0.7,0.6,1.5,0.6,2.3
				c0,1.2-0.4,2.2-1.2,3c-0.8,0.8-1.9,1.4-3.3,1.6c0.5,0.2,0.9,0.4,1.1,0.6c0.3,0.2,0.6,0.6,1.1,1.3c0.1,0.2,0.5,0.8,1.2,2l1.9,3.3
				h-4.1l-1.4-2.7c-0.9-1.8-1.7-2.9-2.3-3.4s-1.4-0.7-2.3-0.7h-0.9v6.7H1062.7z M1066,205.4h1.3c1.9,0,3.1-0.1,3.6-0.2
				c0.5-0.1,0.8-0.4,1.1-0.8c0.3-0.4,0.4-0.8,0.4-1.3c0-0.5-0.1-0.9-0.4-1.2s-0.6-0.6-1.1-0.8c-0.5-0.2-1.7-0.2-3.6-0.2h-1.3V205.4z
				"/>
		</g>
	</g>
	<g id="teachers">
		<path class="st3" d="M70.4,537.2h44.5"/>
		<path class="st3" d="M92.7,497.9l22.2,38.7"/>
		<path class="st3" d="M137.1,497.9l-22.2,38.7"/>
		<path class="st3" d="M159.4,537.2h-44.5"/>
		<path class="st3" d="M137.1,575.2l-22.2-38.7"/>
		<path class="st3" d="M92.7,575.2l22.2-38.7"/>
		<path class="st4" d="M114.9,559.5c12.7,0.1,23.1-10.2,23.1-22.9s-10.2-23.1-22.9-23.1S92.1,523.7,92,536.4c0,0,0,0.1,0,0.1v0.1
			C92,549.2,102.3,559.5,114.9,559.5z"/>
		<path class="st5" d="M70.4,549.3c7,0,12.8-5.7,12.8-12.7s-5.7-12.8-12.7-12.8c-7,0-12.8,5.7-12.8,12.7c0,0,0,0,0,0l0,0
			C57.7,543.6,63.4,549.3,70.4,549.3C70.4,549.3,70.4,549.3,70.4,549.3z"/>
		<path class="st6" d="M92.7,510.7c7,0,12.8-5.7,12.8-12.8c0-7-5.7-12.8-12.8-12.8c-7,0-12.8,5.7-12.8,12.8l0,0l0,0
			C79.9,504.9,85.6,510.6,92.7,510.7L92.7,510.7z"/>
		<path class="st5" d="M137.1,510.7c7,0,12.8-5.7,12.8-12.7c0-7-5.7-12.8-12.7-12.8s-12.8,5.7-12.8,12.7c0,0,0,0,0,0l0,0
			C124.4,504.9,130.1,510.6,137.1,510.7L137.1,510.7z"/>
		<path class="st7" d="M159.4,549.3c7,0,12.8-5.7,12.8-12.7s-5.7-12.8-12.7-12.8s-12.8,5.7-12.8,12.7c0,0,0,0,0,0l0,0
			C146.6,543.5,152.3,549.3,159.4,549.3C159.3,549.3,159.4,549.3,159.4,549.3z"/>
		<path class="st5" d="M137.1,588c7,0,12.8-5.7,12.8-12.7s-5.7-12.8-12.7-12.8s-12.8,5.7-12.8,12.7c0,0,0,0,0,0v0
			C124.4,582.3,130.1,588,137.1,588L137.1,588z"/>
		<path class="st5" d="M92.7,588c7,0,12.8-5.7,12.8-12.8c0-7-5.7-12.8-12.8-12.8s-12.8,5.7-12.8,12.8C79.9,582.3,85.6,588,92.7,588
			C92.7,588,92.7,588,92.7,588z"/>
		<g class="st0">
			<path class="st1" d="M534.4,494.4c2.6,0,5.2,0.7,7.6,2c2.4,1.3,4.3,3.2,5.7,5.7c1.4,2.5,2.1,5.1,2.1,7.7c0,2.7-0.7,5.2-2,7.7
				s-3.3,4.3-5.7,5.7s-5,2-7.7,2s-5.2-0.7-7.7-2c-2.4-1.4-4.3-3.3-5.7-5.7s-2-5-2-7.7c0-2.7,0.7-5.3,2.1-7.7
				c1.4-2.5,3.3-4.4,5.7-5.7C529.2,495.1,531.8,494.4,534.4,494.4z M534.4,497.4c-2.1,0-4.2,0.5-6.1,1.6c-1.9,1.1-3.5,2.6-4.6,4.6
				s-1.7,4.1-1.7,6.2c0,2.2,0.5,4.2,1.6,6.2c1.1,2,2.6,3.5,4.6,4.6c2,1.1,4,1.7,6.2,1.7c2.2,0,4.2-0.5,6.2-1.7
				c2-1.1,3.5-2.6,4.6-4.6c1.1-2,1.7-4,1.7-6.2c0-2.2-0.6-4.3-1.7-6.2s-2.7-3.5-4.6-4.6C538.6,498,536.6,497.4,534.4,497.4z
				 M527.5,518.1v-16.4h3.3c3.1,0,4.9,0,5.2,0c1.1,0.1,2,0.3,2.6,0.7c0.6,0.3,1.1,0.9,1.5,1.6c0.4,0.7,0.6,1.5,0.6,2.3
				c0,1.2-0.4,2.2-1.2,3c-0.8,0.8-1.9,1.4-3.3,1.6c0.5,0.2,0.9,0.4,1.1,0.6c0.3,0.2,0.6,0.6,1.1,1.3c0.1,0.2,0.5,0.8,1.2,2l1.9,3.3
				h-4.1l-1.4-2.7c-0.9-1.8-1.7-2.9-2.3-3.4s-1.4-0.7-2.3-0.7h-0.9v6.7H527.5z M530.8,508.8h1.3c1.9,0,3.1-0.1,3.6-0.2
				c0.5-0.1,0.8-0.4,1.1-0.8c0.3-0.4,0.4-0.8,0.4-1.3c0-0.5-0.1-0.9-0.4-1.2s-0.6-0.6-1.1-0.8c-0.5-0.2-1.7-0.2-3.6-0.2h-1.3V508.8z
				"/>
		</g>
		<g class="st0">
			<path class="st2" d="M213.6,548.7c0-1.8-0.4-3.4-1.2-4.7c-0.8-1.3-2.2-2.4-4.2-3.5s-4.8-2.1-8.5-3.2c-2.9-0.8-5.5-1.8-7.8-2.8
				c-2.3-1.1-4.3-2.3-5.9-3.6c-1.7-1.4-2.9-2.9-3.8-4.7s-1.3-3.8-1.3-6c0-3,0.8-5.8,2.5-8.1c1.6-2.4,3.9-4.3,6.9-5.6
				s6.4-2.1,10.4-2.1c4.4,0,8.1,0.8,11.2,2.5c3.1,1.7,5.4,3.8,7,6.5c1.6,2.7,2.4,5.5,2.4,8.6h-7.8c0-2.2-0.5-4.1-1.4-5.8
				c-0.9-1.7-2.3-3-4.2-4c-1.9-1-4.3-1.5-7.2-1.5c-2.7,0-5,0.4-6.7,1.2c-1.8,0.8-3.1,1.9-3.9,3.4c-0.9,1.4-1.3,3-1.3,4.8
				c0,1.6,0.5,3.1,1.4,4.3c0.9,1.3,2.4,2.4,4.4,3.4c2,1,4.6,2,7.8,2.9c4.4,1.2,8,2.7,10.9,4.3c2.8,1.6,4.9,3.6,6.3,5.8
				c1.3,2.2,2,4.8,2,7.8c0,3.2-0.8,5.9-2.5,8.2c-1.7,2.3-4,4.2-7.1,5.4s-6.6,1.9-10.7,1.9c-2.7,0-5.3-0.4-7.9-1.1s-5-1.9-7.1-3.4
				c-2.1-1.5-3.8-3.3-5.1-5.5c-1.3-2.2-1.9-4.8-1.9-7.7h7.8c0,2,0.4,3.7,1.2,5.2c0.8,1.4,1.8,2.6,3.2,3.6c1.3,0.9,2.9,1.6,4.6,2.1
				c1.7,0.4,3.5,0.7,5.4,0.7c2.7,0,5-0.4,6.8-1.1c1.9-0.8,3.3-1.8,4.2-3.2C213.1,552.2,213.6,550.6,213.6,548.7z"/>
			<path class="st2" d="M247.5,558.2c1.8,0,3.4-0.4,4.9-1.1c1.5-0.7,2.7-1.7,3.7-3s1.5-2.7,1.6-4.4h7.1c-0.1,2.6-1,4.9-2.6,7.1
				c-1.6,2.2-3.7,4-6.2,5.3c-2.6,1.3-5.4,2-8.4,2c-4.4,0-8-1-10.8-3c-2.9-2-5-4.6-6.4-7.9s-2.1-6.9-2.1-10.7v-1.7
				c0-3.9,0.7-7.5,2.1-10.8c1.4-3.3,3.5-5.9,6.4-7.9c2.9-2,6.4-3,10.8-3c3.4,0,6.4,0.7,8.9,2.1c2.5,1.4,4.6,3.2,6,5.6
				c1.5,2.4,2.2,5,2.4,8h-7.1c-0.1-1.8-0.6-3.4-1.5-4.9c-0.9-1.5-2-2.6-3.5-3.5c-1.5-0.9-3.2-1.3-5.2-1.3c-3,0-5.4,0.8-7.1,2.3
				c-1.7,1.5-2.9,3.5-3.6,5.9c-0.7,2.4-1.1,4.9-1.1,7.4v1.7c0,2.5,0.3,5,1,7.4c0.7,2.4,1.9,4.4,3.6,5.9
				C242.1,557.4,244.5,558.2,247.5,558.2z"/>
			<path class="st2" d="M273.2,508.6c0-1.2,0.4-2.2,1.1-3c0.7-0.8,1.8-1.2,3.3-1.2s2.5,0.4,3.3,1.2c0.8,0.8,1.1,1.8,1.1,3
				c0,1.1-0.4,2.1-1.1,2.9s-1.9,1.2-3.3,1.2s-2.5-0.4-3.3-1.2C273.5,510.7,273.2,509.7,273.2,508.6z M281.2,563.4h-7.5v-43.3h7.5
				V563.4z"/>
			<path class="st2" d="M311.1,564.2c-4,0-7.5-0.9-10.5-2.7c-3-1.8-5.3-4.3-6.9-7.4c-1.6-3.1-2.5-6.8-2.5-10.8v-1.7
				c0-4.7,0.9-8.7,2.7-12c1.8-3.3,4.2-5.9,7-7.6c2.9-1.7,6-2.6,9.2-2.6c4.2,0,7.6,0.9,10.2,2.8c2.6,1.9,4.6,4.4,5.8,7.6
				c1.2,3.2,1.9,6.8,1.9,10.8v3.3h-32.4v-6h24.9v-0.6c-0.1-1.9-0.5-3.8-1.2-5.6c-0.7-1.8-1.7-3.3-3.2-4.5c-1.5-1.2-3.5-1.8-6-1.8
				c-2.2,0-4.2,0.6-5.9,1.9s-3.1,3.1-4,5.5c-1,2.4-1.5,5.4-1.5,8.8v1.7c0,2.8,0.5,5.3,1.5,7.5c1,2.3,2.5,4.1,4.4,5.4s4.2,2,6.9,2
				c2.6,0,4.8-0.5,6.6-1.6c1.8-1.1,3.4-2.5,4.8-4.3l4.5,3.5c-1.4,2.1-3.4,4.1-6,5.8C318.8,563.4,315.3,564.2,311.1,564.2z"/>
			<path class="st2" d="M344,563.4h-7.5v-43.3h7.1l0.4,9.2V563.4z M339.2,540c0.1-4,0.8-7.5,2.3-10.6c1.5-3.1,3.5-5.6,6.1-7.4
				c2.6-1.8,5.7-2.7,9.2-2.7c2.9,0,5.3,0.5,7.4,1.6c2.1,1.1,3.7,2.7,4.8,5c1.1,2.3,1.7,5.3,1.7,9.1v28.4h-7.5V535
				c0-2.3-0.3-4.1-1-5.5c-0.7-1.4-1.6-2.4-2.9-3c-1.3-0.6-2.9-0.9-4.7-0.9c-1.8,0-3.5,0.4-5,1.2c-1.5,0.8-2.8,1.8-3.9,3.2
				c-1.1,1.4-1.9,2.9-2.5,4.7c-0.6,1.7-0.9,3.6-0.9,5.5L339.2,540z"/>
			<path class="st2" d="M399.2,558.2c1.8,0,3.4-0.4,4.9-1.1c1.5-0.7,2.7-1.7,3.7-3s1.5-2.7,1.6-4.4h7.1c-0.1,2.6-1,4.9-2.6,7.1
				c-1.6,2.2-3.7,4-6.2,5.3c-2.6,1.3-5.4,2-8.4,2c-4.4,0-8-1-10.8-3c-2.9-2-5-4.6-6.4-7.9s-2.1-6.9-2.1-10.7v-1.7
				c0-3.9,0.7-7.5,2.1-10.8c1.4-3.3,3.5-5.9,6.4-7.9c2.9-2,6.4-3,10.8-3c3.4,0,6.4,0.7,8.9,2.1c2.5,1.4,4.6,3.2,6,5.6
				c1.5,2.4,2.2,5,2.4,8h-7.1c-0.1-1.8-0.6-3.4-1.5-4.9c-0.9-1.5-2-2.6-3.5-3.5c-1.5-0.9-3.2-1.3-5.2-1.3c-3,0-5.4,0.8-7.1,2.3
				c-1.7,1.5-2.9,3.5-3.6,5.9c-0.7,2.4-1.1,4.9-1.1,7.4v1.7c0,2.5,0.3,5,1,7.4c0.7,2.4,1.9,4.4,3.6,5.9
				C393.8,557.4,396.2,558.2,399.2,558.2z"/>
		</g>
		<g class="st0">
			<path class="st2" d="M436.8,563.4h-12.6v-58.3h12.6V563.4z M463.5,515.3h-30.8v-10.2h30.8V515.3z M459.6,538.4h-26.8v-9.8h26.8
				V538.4z M463.6,563.4h-30.8v-10.1h30.8V563.4z"/>
			<path class="st2" d="M467.8,541.4c0-4.4,0.7-8.3,2-11.6c1.3-3.3,3.2-5.9,5.8-7.8s5.6-2.8,9.2-2.8c3.4,0,6.2,1,8.5,2.9
				c2.3,1.9,4.1,4.6,5.4,7.9c1.3,3.4,2.2,7.1,2.7,11.4v1c-0.5,4-1.4,7.7-2.7,11s-3.1,5.9-5.4,7.8s-5.1,2.9-8.6,2.9
				c-3.6,0-6.6-1-9.1-2.9c-2.5-1.9-4.4-4.5-5.8-7.8c-1.3-3.3-2-7.1-2-11.3V541.4z M479.9,542.3c0,2.2,0.3,4.3,0.8,6.1
				c0.5,1.8,1.3,3.3,2.5,4.4c1.1,1.1,2.7,1.6,4.6,1.6c1.9,0,3.5-0.4,4.7-1.3c1.2-0.9,2.2-2.1,2.8-3.6c0.6-1.5,1-3.3,1.1-5.4V540
				c-0.1-1.7-0.3-3.3-0.7-4.6c-0.4-1.3-0.9-2.5-1.6-3.4c-0.7-0.9-1.5-1.6-2.6-2.1s-2.3-0.7-3.7-0.7c-1.9,0-3.5,0.5-4.6,1.6
				c-1.2,1.1-2,2.5-2.5,4.4s-0.8,4-0.8,6.3V542.3z M495,501.9h12.2v61.5h-10.9l-1.2-9.6V501.9z"/>
		</g>
		<g class="st0">
			<path class="st2" d="M445.7,575.4h-21.5v-4.6h21.5V575.4z M437.8,597.1h-5.7v-26.3h5.7V597.1z"/>
			<path class="st2" d="M457.5,597.5c-2.1,0-3.8-0.4-5.3-1.3c-1.5-0.9-2.6-2-3.4-3.4c-0.8-1.4-1.2-3-1.2-4.8v-0.7
				c0-2,0.4-3.7,1.1-5.2c0.7-1.5,1.8-2.7,3.2-3.6s3-1.3,4.9-1.3c1.9,0,3.5,0.4,4.8,1.2c1.3,0.8,2.3,1.9,2.9,3.4c0.7,1.4,1,3.1,1,5.1
				v2.3H450v-3.7h10.2V585c0-0.7-0.1-1.3-0.4-1.8c-0.2-0.5-0.6-0.9-1.1-1.2c-0.5-0.3-1.1-0.4-1.9-0.4c-0.9,0-1.6,0.3-2.1,0.8
				s-0.9,1.2-1.2,2c-0.2,0.9-0.4,1.8-0.4,2.9v0.7c0,1,0.2,1.9,0.6,2.6c0.4,0.8,0.9,1.4,1.6,1.8c0.7,0.4,1.5,0.6,2.5,0.6
				c0.9,0,1.8-0.2,2.6-0.5c0.8-0.3,1.5-0.9,2.1-1.6l2.6,3c-0.6,0.9-1.6,1.7-2.8,2.4C461,597.1,459.5,597.5,457.5,597.5z"/>
			<path class="st2" d="M479.7,588.3h-2.8c-1.3,0-2.3,0.3-2.9,0.9c-0.6,0.6-0.9,1.3-0.9,2.1c0,0.6,0.2,1.1,0.7,1.5s1,0.6,1.8,0.6
				c0.8,0,1.4-0.1,2-0.4c0.5-0.3,1-0.7,1.3-1.1c0.3-0.4,0.4-0.8,0.4-1.1l1.4,2.3c-0.2,0.5-0.4,1-0.8,1.5c-0.3,0.5-0.7,1-1.2,1.4
				c-0.5,0.4-1.1,0.8-1.8,1.1c-0.7,0.3-1.5,0.4-2.5,0.4c-1.2,0-2.3-0.3-3.4-0.8c-1-0.5-1.8-1.2-2.4-2.1c-0.6-0.9-0.9-1.9-0.9-3
				c0-2,0.8-3.6,2.3-4.8s3.8-1.7,6.8-1.7h2.9L479.7,588.3z M478.9,584.1c0-0.9-0.2-1.6-0.7-2.1c-0.4-0.5-1.1-0.8-2.1-0.8
				c-0.5,0-1,0.1-1.4,0.3c-0.4,0.2-0.7,0.4-0.9,0.8c-0.2,0.3-0.3,0.7-0.3,1.2h-5.5c0-1.2,0.3-2.2,1-3.2c0.7-0.9,1.7-1.7,2.9-2.3
				c1.3-0.6,2.7-0.8,4.4-0.8c1.5,0,2.9,0.3,4.1,0.8c1.2,0.5,2.1,1.3,2.8,2.3s1,2.3,1,3.8v8.2c0,1.2,0.1,2.1,0.2,2.7
				c0.1,0.7,0.3,1.3,0.6,1.8v0.3h-5.5c-0.3-0.6-0.5-1.2-0.6-2.1c-0.1-0.8-0.2-1.7-0.2-2.5V584.1z"/>
			<path class="st2" d="M496.5,593.1c0.6,0,1.2-0.1,1.6-0.3s0.8-0.6,1.1-1c0.3-0.4,0.4-0.9,0.4-1.5h5.1c0,1.4-0.4,2.7-1.1,3.7
				s-1.7,1.9-2.9,2.5c-1.2,0.6-2.6,0.9-4.1,0.9c-2,0-3.7-0.4-5-1.3c-1.3-0.9-2.3-2.1-3-3.6c-0.7-1.5-1-3.2-1-5v-0.5
				c0-1.9,0.3-3.5,1-5c0.7-1.5,1.7-2.7,3-3.6c1.3-0.9,3-1.3,5-1.3c1.6,0,3,0.3,4.3,0.9c1.2,0.6,2.2,1.5,2.9,2.7
				c0.7,1.2,1,2.5,1.1,4.1h-5.1c0-0.6-0.1-1.2-0.4-1.7c-0.2-0.5-0.6-0.9-1.1-1.2s-1-0.5-1.7-0.5c-1,0-1.7,0.3-2.2,0.8
				c-0.5,0.5-0.8,1.2-1,2c-0.2,0.8-0.3,1.7-0.3,2.7v0.5c0,1,0.1,1.9,0.3,2.7c0.2,0.8,0.5,1.5,1,2
				C494.7,592.8,495.5,593.1,496.5,593.1z"/>
			<path class="st2" d="M512.9,597.1h-5.5v-27.8h5.5V597.1z M510.7,586.7c0-1.9,0.3-3.5,0.9-4.9c0.6-1.4,1.5-2.6,2.6-3.4
				c1.1-0.8,2.4-1.2,3.9-1.2c1.3,0,2.4,0.3,3.4,0.8c1,0.5,1.7,1.3,2.3,2.4c0.5,1.1,0.8,2.6,0.8,4.5v12.3h-5.5v-12.3
				c0-0.8-0.1-1.5-0.4-1.9c-0.2-0.5-0.6-0.8-1-1c-0.5-0.2-1-0.3-1.7-0.3c-0.7,0-1.3,0.1-1.8,0.4c-0.5,0.2-0.9,0.6-1.2,1.1
				c-0.3,0.5-0.5,1-0.7,1.6c-0.1,0.6-0.2,1.3-0.2,2L510.7,586.7z"/>
			<path class="st2" d="M537.5,597.5c-2.1,0-3.8-0.4-5.3-1.3c-1.5-0.9-2.6-2-3.4-3.4c-0.8-1.4-1.2-3-1.2-4.8v-0.7
				c0-2,0.4-3.7,1.1-5.2c0.7-1.5,1.8-2.7,3.2-3.6s3-1.3,4.9-1.3c1.9,0,3.5,0.4,4.8,1.2c1.3,0.8,2.3,1.9,2.9,3.4c0.7,1.4,1,3.1,1,5.1
				v2.3H530v-3.7h10.2V585c0-0.7-0.1-1.3-0.4-1.8c-0.2-0.5-0.6-0.9-1.1-1.2c-0.5-0.3-1.1-0.4-1.9-0.4c-0.9,0-1.6,0.3-2.1,0.8
				s-0.9,1.2-1.2,2c-0.2,0.9-0.4,1.8-0.4,2.9v0.7c0,1,0.2,1.9,0.6,2.6c0.4,0.8,0.9,1.4,1.6,1.8c0.7,0.4,1.5,0.6,2.5,0.6
				c0.9,0,1.8-0.2,2.6-0.5c0.8-0.3,1.5-0.9,2.1-1.6l2.6,3c-0.6,0.9-1.6,1.7-2.8,2.4C541,597.1,539.4,597.5,537.5,597.5z"/>
			<path class="st2" d="M553.9,597.1h-5.5v-19.5h5.1l0.3,4.5V597.1z M559.6,582.7c-0.3,0-0.6-0.1-0.9-0.1c-0.4,0-0.7,0-1,0
				c-1,0-1.7,0.1-2.3,0.4c-0.6,0.3-1.1,0.7-1.4,1.3c-0.3,0.6-0.5,1.3-0.5,2.1l-1.1-0.5c0-1.7,0.2-3.2,0.7-4.5
				c0.4-1.3,1.1-2.4,1.9-3.1c0.8-0.8,1.9-1.1,3.1-1.1c0.3,0,0.6,0,0.9,0.1c0.3,0,0.6,0.1,0.8,0.2L559.6,582.7z"/>
			<path class="st2" d="M572.5,591.6c0-0.4-0.1-0.7-0.3-0.9s-0.6-0.5-1.2-0.7c-0.6-0.2-1.4-0.5-2.5-0.7c-1.3-0.3-2.5-0.7-3.5-1.2
				c-1.1-0.5-1.9-1.1-2.5-1.9c-0.6-0.8-0.9-1.7-0.9-2.9c0-1.1,0.3-2.1,0.9-3c0.6-0.9,1.5-1.7,2.7-2.2c1.2-0.6,2.6-0.8,4.2-0.8
				c1.7,0,3.2,0.3,4.4,0.8c1.2,0.5,2.2,1.3,2.9,2.2c0.7,1,1,2,1,3.3h-5.5c0-0.7-0.2-1.3-0.7-1.8c-0.5-0.5-1.2-0.7-2.2-0.7
				c-0.5,0-1,0.1-1.4,0.3c-0.4,0.2-0.7,0.4-0.9,0.7c-0.2,0.3-0.3,0.6-0.3,1c0,0.4,0.1,0.7,0.3,1c0.2,0.3,0.6,0.5,1.1,0.7
				c0.5,0.2,1.2,0.4,2.1,0.5c1.4,0.3,2.6,0.6,3.8,1.1c1.1,0.5,2,1.1,2.7,1.9c0.7,0.8,1,1.9,1,3.2c0,1.2-0.3,2.2-1,3.1
				c-0.7,0.9-1.6,1.6-2.9,2.1c-1.2,0.5-2.7,0.8-4.4,0.8c-1.8,0-3.4-0.3-4.7-1c-1.3-0.7-2.2-1.5-2.9-2.5s-1-2.1-1-3.1h5.2
				c0,0.7,0.2,1.2,0.5,1.6c0.3,0.4,0.7,0.7,1.2,0.9c0.5,0.2,1.1,0.3,1.7,0.3c0.6,0,1.2-0.1,1.6-0.2c0.4-0.2,0.8-0.4,1-0.7
				S572.5,592,572.5,591.6z"/>
		</g>
	</g>
	<g id="sciencebite">
		<g id="flower-2">
			<path class="st3" d="M338.6,425.2h19"/>
			<path class="st3" d="M348.1,408.4l9.5,16.5"/>
			<path class="st3" d="M367.1,408.4l-9.5,16.5"/>
			<path class="st3" d="M376.6,425.2h-19"/>
			<path class="st3" d="M367.1,441.4l-9.5-16.5"/>
			<path class="st3" d="M348.1,441.4l9.5-16.5"/>
			<path class="st4" d="M357.6,434.7c5.4,0,9.8-4.4,9.8-9.8c0-5.4-4.4-9.8-9.8-9.8s-9.8,4.4-9.8,9.8c0,0,0,0,0,0
				C347.8,430.3,352.2,434.7,357.6,434.7z"/>
			<path class="st5" d="M338.6,430.3c3,0,5.5-2.4,5.5-5.4c0-3-2.4-5.5-5.4-5.5c-3,0-5.5,2.4-5.5,5.4c0,0,0,0,0,0
				C333.2,427.9,335.6,430.3,338.6,430.3L338.6,430.3z"/>
			<path class="st6" d="M348.1,413.8c3,0,5.5-2.4,5.5-5.4c0-3-2.4-5.5-5.4-5.5c-3,0-5.5,2.4-5.5,5.4c0,0,0,0,0,0
				C342.7,411.4,345.1,413.8,348.1,413.8L348.1,413.8z"/>
			<path class="st5" d="M367.1,413.8c3,0,5.5-2.4,5.5-5.4c0-3-2.4-5.5-5.4-5.5c-3,0-5.5,2.4-5.5,5.4c0,0,0,0,0,0
				C361.7,411.4,364.1,413.8,367.1,413.8L367.1,413.8z"/>
			<path class="st7" d="M376.6,430.3c3,0,5.5-2.4,5.5-5.4c0-3-2.4-5.5-5.4-5.5c-3,0-5.5,2.4-5.5,5.4c0,0,0,0,0,0
				C371.2,427.9,373.6,430.3,376.6,430.3z"/>
			<path class="st5" d="M367.1,446.9c3,0,5.5-2.4,5.5-5.4c0-3-2.4-5.5-5.4-5.5c-3,0-5.5,2.4-5.5,5.4c0,0,0,0,0,0
				C361.7,444.4,364.1,446.8,367.1,446.9L367.1,446.9z"/>
			<path class="st5" d="M348.1,446.9c3,0,5.5-2.4,5.5-5.4c0-3-2.4-5.5-5.4-5.5c-3,0-5.5,2.4-5.5,5.4c0,0,0,0,0,0
				C342.7,444.4,345.1,446.8,348.1,446.9L348.1,446.9z"/>
		</g>
		<g class="st0">
			<path class="st2" d="M400.6,430.6c0-0.8-0.2-1.5-0.5-2c-0.3-0.5-0.9-1-1.8-1.5c-0.9-0.4-2.1-0.9-3.6-1.3
				c-1.2-0.4-2.3-0.8-3.3-1.2c-1-0.4-1.8-1-2.5-1.5c-0.7-0.6-1.2-1.2-1.6-2c-0.4-0.8-0.6-1.6-0.6-2.6c0-1.3,0.3-2.5,1-3.5
				c0.7-1,1.7-1.8,2.9-2.4c1.3-0.6,2.7-0.9,4.4-0.9c1.9,0,3.5,0.4,4.8,1.1s2.3,1.6,3,2.8s1,2.4,1,3.7h-3.3c0-0.9-0.2-1.8-0.6-2.5
				s-1-1.3-1.8-1.7c-0.8-0.4-1.8-0.6-3.1-0.6c-1.2,0-2.1,0.2-2.9,0.5s-1.3,0.8-1.7,1.4c-0.4,0.6-0.5,1.3-0.5,2.1
				c0,0.7,0.2,1.3,0.6,1.9c0.4,0.5,1,1,1.9,1.5c0.9,0.4,2,0.8,3.3,1.2c1.9,0.5,3.4,1.1,4.6,1.8c1.2,0.7,2.1,1.5,2.7,2.5
				c0.6,0.9,0.9,2.1,0.9,3.3c0,1.3-0.4,2.5-1.1,3.5c-0.7,1-1.7,1.8-3,2.3c-1.3,0.5-2.8,0.8-4.6,0.8c-1.2,0-2.3-0.2-3.4-0.5
				s-2.1-0.8-3-1.4c-0.9-0.6-1.6-1.4-2.2-2.4c-0.5-0.9-0.8-2-0.8-3.3h3.3c0,0.9,0.2,1.6,0.5,2.2c0.3,0.6,0.8,1.1,1.3,1.5
				c0.6,0.4,1.2,0.7,1.9,0.9c0.7,0.2,1.5,0.3,2.3,0.3c1.1,0,2.1-0.2,2.9-0.5c0.8-0.3,1.4-0.8,1.8-1.4
				C400.4,432.1,400.6,431.4,400.6,430.6z"/>
			<path class="st2" d="M415.1,434.7c0.8,0,1.4-0.2,2.1-0.5c0.6-0.3,1.2-0.7,1.6-1.3c0.4-0.5,0.6-1.2,0.7-1.9h3
				c-0.1,1.1-0.4,2.1-1.1,3s-1.6,1.7-2.7,2.3s-2.3,0.9-3.6,0.9c-1.9,0-3.4-0.4-4.6-1.3c-1.2-0.8-2.1-2-2.7-3.4s-0.9-2.9-0.9-4.6
				v-0.7c0-1.7,0.3-3.2,0.9-4.6c0.6-1.4,1.5-2.5,2.7-3.4c1.2-0.8,2.7-1.3,4.6-1.3c1.4,0,2.7,0.3,3.8,0.9c1.1,0.6,1.9,1.4,2.6,2.4
				c0.6,1,1,2.1,1,3.4h-3c-0.1-0.8-0.3-1.5-0.6-2.1c-0.4-0.6-0.9-1.1-1.5-1.5c-0.6-0.4-1.4-0.6-2.2-0.6c-1.3,0-2.3,0.3-3,1
				s-1.3,1.5-1.6,2.5s-0.5,2.1-0.5,3.1v0.7c0,1.1,0.1,2.1,0.4,3.2c0.3,1,0.8,1.9,1.5,2.5C412.8,434.3,413.8,434.7,415.1,434.7z"/>
			<path class="st2" d="M426,413.5c0-0.5,0.2-0.9,0.5-1.3c0.3-0.4,0.8-0.5,1.4-0.5c0.6,0,1.1,0.2,1.4,0.5c0.3,0.4,0.5,0.8,0.5,1.3
				c0,0.5-0.2,0.9-0.5,1.3c-0.3,0.3-0.8,0.5-1.4,0.5c-0.6,0-1.1-0.2-1.4-0.5C426.2,414.4,426,414,426,413.5z M429.5,436.9h-3.2
				v-18.5h3.2V436.9z"/>
			<path class="st2" d="M442.2,437.2c-1.7,0-3.2-0.4-4.5-1.2c-1.3-0.8-2.3-1.8-3-3.2c-0.7-1.3-1-2.9-1-4.6v-0.7c0-2,0.4-3.7,1.2-5.1
				c0.8-1.4,1.8-2.5,3-3.2c1.2-0.7,2.5-1.1,3.9-1.1c1.8,0,3.2,0.4,4.3,1.2s1.9,1.9,2.5,3.2c0.5,1.4,0.8,2.9,0.8,4.6v1.4h-13.8V426
				h10.6v-0.2c0-0.8-0.2-1.6-0.5-2.4c-0.3-0.8-0.7-1.4-1.4-1.9c-0.6-0.5-1.5-0.8-2.6-0.8c-1,0-1.8,0.3-2.5,0.8
				c-0.7,0.5-1.3,1.3-1.7,2.4c-0.4,1-0.6,2.3-0.6,3.8v0.7c0,1.2,0.2,2.2,0.6,3.2s1.1,1.7,1.9,2.3s1.8,0.9,2.9,0.9
				c1.1,0,2.1-0.2,2.8-0.7c0.8-0.5,1.5-1.1,2-1.8l1.9,1.5c-0.6,0.9-1.4,1.7-2.6,2.5C445.5,436.9,444,437.2,442.2,437.2z"/>
			<path class="st2" d="M456.2,436.9H453v-18.5h3l0.2,3.9V436.9z M454.2,426.9c0-1.7,0.3-3.2,1-4.5c0.6-1.3,1.5-2.4,2.6-3.1
				s2.4-1.2,3.9-1.2c1.2,0,2.3,0.2,3.1,0.7c0.9,0.4,1.6,1.2,2,2.1c0.5,1,0.7,2.3,0.7,3.9v12.1h-3.2v-12.1c0-1-0.1-1.7-0.4-2.3
				c-0.3-0.6-0.7-1-1.2-1.3c-0.5-0.3-1.2-0.4-2-0.4c-0.8,0-1.5,0.2-2.1,0.5c-0.6,0.3-1.2,0.8-1.7,1.4c-0.5,0.6-0.8,1.2-1.1,2
				c-0.3,0.7-0.4,1.5-0.4,2.4L454.2,426.9z"/>
			<path class="st2" d="M479.8,434.7c0.8,0,1.4-0.2,2.1-0.5c0.6-0.3,1.2-0.7,1.6-1.3c0.4-0.5,0.6-1.2,0.7-1.9h3
				c-0.1,1.1-0.4,2.1-1.1,3s-1.6,1.7-2.7,2.3s-2.3,0.9-3.6,0.9c-1.9,0-3.4-0.4-4.6-1.3c-1.2-0.8-2.1-2-2.7-3.4s-0.9-2.9-0.9-4.6
				v-0.7c0-1.7,0.3-3.2,0.9-4.6c0.6-1.4,1.5-2.5,2.7-3.4c1.2-0.8,2.7-1.3,4.6-1.3c1.4,0,2.7,0.3,3.8,0.9c1.1,0.6,1.9,1.4,2.6,2.4
				c0.6,1,1,2.1,1,3.4h-3c-0.1-0.8-0.3-1.5-0.6-2.1c-0.4-0.6-0.9-1.1-1.5-1.5c-0.6-0.4-1.4-0.6-2.2-0.6c-1.3,0-2.3,0.3-3,1
				s-1.3,1.5-1.6,2.5s-0.5,2.1-0.5,3.1v0.7c0,1.1,0.1,2.1,0.4,3.2c0.3,1,0.8,1.9,1.5,2.5C477.5,434.3,478.5,434.7,479.8,434.7z"/>
		</g>
		<g class="st0">
			<path class="st2" d="M495.8,436.9h-5.4V412h5.4V436.9z M507.2,416.4h-13.1V412h13.1V416.4z M505.5,426.2h-11.4V422h11.4V426.2z
				 M507.2,436.9h-13.1v-4.3h13.1V436.9z"/>
			<path class="st2" d="M509,427.5c0-1.9,0.3-3.5,0.8-4.9s1.4-2.5,2.5-3.3s2.4-1.2,3.9-1.2c1.4,0,2.7,0.4,3.6,1.2
				c1,0.8,1.7,2,2.3,3.4c0.6,1.4,1,3,1.2,4.9v0.4c-0.2,1.7-0.6,3.3-1.2,4.7s-1.3,2.5-2.3,3.3c-1,0.8-2.2,1.2-3.7,1.2
				c-1.5,0-2.8-0.4-3.9-1.2s-1.9-1.9-2.5-3.3c-0.6-1.4-0.8-3-0.8-4.8V427.5z M514.2,427.9c0,1,0.1,1.8,0.3,2.6
				c0.2,0.8,0.6,1.4,1.1,1.9s1.1,0.7,2,0.7c0.8,0,1.5-0.2,2-0.6s0.9-0.9,1.2-1.5c0.3-0.7,0.4-1.4,0.5-2.3v-1.8c0-0.7-0.1-1.4-0.3-2
				c-0.2-0.6-0.4-1.1-0.7-1.5s-0.7-0.7-1.1-0.9c-0.5-0.2-1-0.3-1.6-0.3c-0.8,0-1.5,0.2-2,0.7s-0.9,1.1-1.1,1.9
				c-0.2,0.8-0.3,1.7-0.3,2.7V427.9z M520.6,410.7h5.2v26.2h-4.7l-0.5-4.1V410.7z"/>
		</g>
		<path class="st8" d="M356.1,393.5c12.3,0,22.3-9.9,22.4-22.2c0-12.3-9.9-22.3-22.2-22.4c-12.3,0-22.3,9.9-22.4,22.2
			c0,0,0,0.1,0,0.1C333.8,383.5,343.8,393.5,356.1,393.5z"/>
		<path class="st5" d="M77.2,379.5c0-1.6-0.4-3.3-1.2-4.7c-1-1.5-2.5-2.7-4.2-3.5c-2.7-1.3-5.6-2.4-8.5-3.2
			c-2.7-0.7-5.3-1.7-7.8-2.8c-2.1-0.9-4.1-2.2-5.9-3.6c-1.6-1.3-2.9-2.9-3.8-4.7c-0.9-1.9-1.3-4-1.3-6.1c0-2.9,0.8-5.7,2.5-8.1
			c1.8-2.5,4.1-4.4,6.9-5.6c3.3-1.4,6.8-2.1,10.4-2.1c3.9-0.1,7.7,0.7,11.2,2.5c2.9,1.5,5.3,3.8,7,6.5c1.6,2.6,2.4,5.6,2.4,8.6h-7.8
			c0-2-0.5-4-1.4-5.8c-1-1.7-2.4-3.1-4.2-4c-2.3-1.1-4.7-1.6-7.2-1.5c-2.3-0.1-4.6,0.3-6.8,1.2c-1.6,0.7-3,1.9-3.9,3.4
			c-0.9,1.5-1.3,3.1-1.3,4.8c0,1.6,0.5,3.1,1.4,4.4c1.2,1.5,2.7,2.6,4.4,3.4c2.5,1.2,5.1,2.2,7.8,2.9c3.8,1,7.4,2.4,10.8,4.3
			c2.5,1.3,4.7,3.3,6.3,5.7c1.4,2.4,2.1,5.1,2,7.9c0.1,2.9-0.8,5.8-2.5,8.3c-1.8,2.4-4.3,4.3-7.1,5.5c-3.4,1.3-7.1,2-10.7,1.9
			c-2.7,0-5.4-0.4-8-1.1c-2.5-0.7-4.9-1.9-7.1-3.4c-2.1-1.4-3.8-3.3-5.1-5.5c-1.3-2.3-2-5-1.9-7.7h7.8c-0.1,1.8,0.3,3.6,1.2,5.2
			c0.8,1.4,1.8,2.6,3.2,3.6c1.4,1,2.9,1.7,4.6,2.1c1.8,0.4,3.6,0.7,5.4,0.7c2.3,0.1,4.6-0.3,6.8-1.1c1.7-0.6,3.2-1.8,4.2-3.2
			C76.7,383.1,77.2,381.3,77.2,379.5z"/>
		<path class="st5" d="M111.1,389.1c1.7,0,3.4-0.3,4.9-1.1c1.4-0.7,2.7-1.7,3.7-3c1-1.3,1.5-2.8,1.7-4.4h7.1c-0.1,2.6-1,5.1-2.6,7.1
			c-3.4,4.7-8.9,7.4-14.7,7.4c-3.8,0.1-7.6-0.9-10.8-3c-2.8-2-5.1-4.7-6.4-7.9c-1.4-3.4-2.1-7-2.1-10.7v-1.7
			c-0.1-3.7,0.6-7.4,2.1-10.8c1.3-3.2,3.6-5.9,6.4-7.9c3.2-2.1,7-3.1,10.8-3c3.1-0.1,6.2,0.6,8.9,2.1c2.5,1.3,4.5,3.2,6,5.6
			c1.5,2.4,2.3,5.2,2.4,8h-7.1c-0.1-1.7-0.6-3.4-1.5-4.9c-0.9-1.4-2.1-2.7-3.5-3.5c-1.6-0.9-3.4-1.3-5.2-1.3
			c-2.6-0.2-5.1,0.7-7.1,2.3c-1.7,1.6-3,3.6-3.6,5.9c-0.7,2.4-1.1,4.9-1.1,7.4v1.7c0,2.5,0.3,5,1,7.4c0.6,2.3,1.9,4.3,3.6,5.9
			C105.9,388.4,108.5,389.2,111.1,389.1z"/>
		<path class="st5" d="M136.7,339.4c0-1.1,0.4-2.2,1.1-3c0.9-0.9,2.1-1.3,3.3-1.2c2.3-0.2,4.2,1.5,4.4,3.7c0,0.2,0,0.3,0,0.5
			c0,1.1-0.4,2.2-1.1,3c-0.9,0.9-2.1,1.3-3.3,1.2c-1.2,0.1-2.4-0.4-3.3-1.2C137.1,341.6,136.7,340.5,136.7,339.4z M144.8,394.3h-7.5
			V351h7.5V394.3z"/>
		<path class="st5" d="M191.5,371.3c0.1-3.7-0.6-7.4-1.9-10.8c-1.1-3-3.1-5.7-5.8-7.6c-3-2-6.6-2.9-10.2-2.8c-3.2,0-6.4,0.9-9.2,2.6
			c-3,1.8-5.4,4.5-7.1,7.6c-1.9,3.7-2.8,7.8-2.7,12v1.7c-0.1,3.8,0.8,7.5,2.5,10.9c1.6,3.1,4,5.6,6.9,7.4c3.2,1.9,6.8,2.8,10.5,2.7
			c4.3,0,7.8-0.9,10.4-2.6c2.4-1.5,4.4-3.5,6-5.8l-4.5-3.5c-1.3,1.7-2.9,3.2-4.8,4.3c-2,1.1-4.3,1.7-6.6,1.6c-2.4,0.1-4.9-0.6-6.9-2
			c-1.9-1.4-3.5-3.2-4.4-5.4c-1-2.2-1.5-4.6-1.5-7h29.3V371.3z M184,368.6h-21.6c0.2-1.7,0.6-3.4,1.2-5.1c0.8-2.2,2.2-4.1,4-5.5
			c1.7-1.3,3.8-1.9,6-1.9c2.1-0.1,4.3,0.5,6,1.8c1.5,1.2,2.6,2.8,3.2,4.5c0.7,1.8,1,3.7,1.2,5.6L184,368.6z"/>
		<path class="st5" d="M232.5,356.8c-1-2.2-2.7-3.9-4.8-5c-2.3-1.1-4.8-1.7-7.4-1.6c-3.3-0.1-6.5,0.9-9.2,2.7
			c-1.4,1-2.6,2.1-3.7,3.5l-0.2-5.3h-7.1v43.3h7.5v-31c0.5-0.9,1-1.8,1.6-2.6c1.1-1.3,2.4-2.4,3.9-3.2c3.1-1.5,6.6-1.5,9.7-0.2
			c1.3,0.6,2.3,1.7,2.9,3c0.7,1.7,1.1,3.6,1,5.5v28.5h7.5v-28.4C234.4,362.8,233.8,359.6,232.5,356.8z"/>
		<path class="st5" d="M262.8,389.1c1.7,0,3.4-0.4,4.9-1.1c1.4-0.7,2.7-1.7,3.7-3c1-1.3,1.5-2.8,1.6-4.4h7.1c-0.1,2.6-1,5.1-2.6,7.1
			c-3.4,4.7-8.9,7.4-14.7,7.4c-3.8,0.1-7.6-0.9-10.8-3c-2.8-2-5.1-4.7-6.4-7.9c-1.4-3.4-2.1-7-2.1-10.7v-1.7c0-3.7,0.7-7.4,2.1-10.8
			c1.3-3.2,3.6-5.9,6.4-7.9c6-3.6,13.4-4,19.7-0.9c2.5,1.3,4.5,3.2,6,5.6c1.5,2.4,2.3,5.2,2.4,8H273c-0.1-1.7-0.6-3.4-1.5-4.9
			c-0.9-1.5-2.1-2.7-3.5-3.5c-1.6-0.9-3.4-1.3-5.2-1.3c-2.6-0.2-5.1,0.7-7.1,2.3c-1.7,1.6-3,3.6-3.6,5.9c-0.7,2.4-1.1,4.9-1.1,7.4
			v1.7c0,2.5,0.3,5,1,7.4c0.6,2.3,1.9,4.3,3.6,5.9C257.6,388.4,260.2,389.2,262.8,389.1z"/>
		<path class="st5" d="M323.3,371.3c0.1-3.7-0.6-7.4-1.9-10.8c-1.1-3-3.2-5.7-5.8-7.6c-3-2-6.6-2.9-10.2-2.8c-3.2,0-6.4,0.9-9.2,2.6
			c-3,1.8-5.4,4.5-7,7.6c-1.9,3.7-2.8,7.8-2.7,12v1.7c-0.1,3.8,0.8,7.5,2.5,10.9c1.6,3.1,4,5.6,6.9,7.4c3.2,1.9,6.8,2.8,10.5,2.7
			c4.3,0,7.7-0.9,10.4-2.6c2.4-1.5,4.4-3.5,6-5.8l-4.5-3.5c-1.3,1.7-2.9,3.2-4.8,4.3c-2,1.1-4.3,1.7-6.6,1.6c-2.4,0.1-4.9-0.6-6.9-2
			c-1.9-1.4-3.5-3.2-4.4-5.4c-1-2.2-1.5-4.6-1.5-7h29.3L323.3,371.3z M315.8,368.6h-21.6c0.2-1.7,0.6-3.4,1.2-5.1
			c0.8-2.2,2.2-4.1,4-5.5c1.7-1.3,3.8-1.9,6-1.9c2.1-0.1,4.3,0.5,6,1.8c1.5,1.2,2.6,2.8,3.2,4.5c0.7,1.8,1.1,3.7,1.2,5.6
			L315.8,368.6z"/>
		<g class="st0">
			<path class="st2" d="M400.3,332.8v53.1l-0.6,8.4h-6.8v-61.5H400.3z M429.5,373.1c0,4.2-0.7,8-2,11.3c-1.3,3.3-3.2,5.9-5.7,7.8
				c-2.5,1.9-5.6,2.9-9.1,2.9c-3.7,0-6.8-0.8-9.2-2.5c-2.5-1.7-4.4-4-5.7-7.1c-1.4-3.1-2.3-6.7-2.7-10.9v-3.9
				c0.4-4.2,1.3-7.9,2.7-11c1.4-3.1,3.3-5.4,5.7-7.1c2.4-1.7,5.5-2.5,9.1-2.5c3.6,0,6.7,0.9,9.2,2.8c2.5,1.8,4.4,4.4,5.7,7.7
				c1.3,3.3,2,7.2,2,11.6V373.1z M422,372.3c0-2.9-0.4-5.5-1.1-7.9s-1.9-4.3-3.5-5.8s-3.9-2.2-6.7-2.2c-1.8,0-3.5,0.3-4.8,1
				c-1.4,0.6-2.5,1.5-3.5,2.6c-1,1.1-1.7,2.3-2.3,3.7s-1,2.8-1.3,4.3v9.7c0.4,1.9,1.1,3.7,2.1,5.4c1,1.7,2.3,3.1,3.9,4.2
				c1.6,1.1,3.7,1.6,6.1,1.6c2.7,0,4.8-0.7,6.5-2.1c1.6-1.4,2.8-3.3,3.6-5.7c0.8-2.4,1.1-5,1.1-7.9V372.3z"/>
			<path class="st2" d="M438.9,339.4c0-1.2,0.4-2.2,1.1-3c0.7-0.8,1.8-1.2,3.3-1.2s2.5,0.4,3.3,1.2c0.8,0.8,1.1,1.8,1.1,3
				c0,1.1-0.4,2.1-1.1,2.9s-1.9,1.2-3.3,1.2s-2.5-0.4-3.3-1.2C439.3,341.6,438.9,340.6,438.9,339.4z M446.9,394.3h-7.5V351h7.5
				V394.3z"/>
			<path class="st2" d="M477,356.6h-23.5V351H477V356.6z M468.9,340.4v43.1c0,1.5,0.2,2.6,0.7,3.4c0.5,0.7,1,1.2,1.8,1.5
				s1.5,0.4,2.3,0.4c0.6,0,1.3-0.1,1.9-0.2c0.7-0.1,1.2-0.2,1.5-0.3l0,6c-0.6,0.2-1.4,0.4-2.3,0.5c-0.9,0.2-2.1,0.3-3.4,0.3
				c-1.8,0-3.5-0.4-5-1.1s-2.7-1.9-3.6-3.6c-0.9-1.7-1.4-4-1.4-6.9v-43.1H468.9z"/>
			<path class="st2" d="M503.6,395.1c-4,0-7.5-0.9-10.5-2.7c-3-1.8-5.3-4.3-6.9-7.4c-1.6-3.1-2.5-6.8-2.5-10.8v-1.7
				c0-4.7,0.9-8.7,2.7-12c1.8-3.3,4.2-5.9,7-7.6c2.9-1.7,6-2.6,9.2-2.6c4.2,0,7.6,0.9,10.2,2.8c2.6,1.9,4.6,4.4,5.8,7.6
				c1.2,3.2,1.9,6.8,1.9,10.8v3.3h-32.4v-6H513v-0.6c-0.1-1.9-0.5-3.8-1.2-5.6c-0.7-1.8-1.7-3.3-3.2-4.5c-1.5-1.2-3.5-1.8-6-1.8
				c-2.2,0-4.2,0.6-5.9,1.9s-3.1,3.1-4,5.5c-1,2.4-1.5,5.4-1.5,8.8v1.7c0,2.8,0.5,5.3,1.5,7.5c1,2.3,2.5,4.1,4.4,5.4s4.2,2,6.9,2
				c2.6,0,4.8-0.5,6.6-1.6c1.8-1.1,3.4-2.5,4.8-4.3l4.5,3.5c-1.4,2.1-3.4,4.1-6,5.8C511.3,394.2,507.9,395.1,503.6,395.1z"/>
		</g>
		<g class="st0">
			<path class="st1" d="M537.3,406.9c1.1,0,2.2,0.3,3.3,0.9s1.9,1.4,2.5,2.4s0.9,2.2,0.9,3.3c0,1.2-0.3,2.3-0.9,3.3
				c-0.6,1-1.4,1.9-2.4,2.4c-1,0.6-2.1,0.9-3.3,0.9s-2.3-0.3-3.3-0.9c-1-0.6-1.9-1.4-2.4-2.4c-0.6-1-0.9-2.1-0.9-3.3
				c0-1.2,0.3-2.3,0.9-3.3c0.6-1.1,1.4-1.9,2.5-2.4C535.1,407.2,536.2,406.9,537.3,406.9z M537.4,408.2c-0.9,0-1.8,0.2-2.6,0.7
				c-0.8,0.5-1.5,1.1-2,2c-0.5,0.9-0.7,1.7-0.7,2.7c0,0.9,0.2,1.8,0.7,2.7s1.1,1.5,2,2c0.8,0.5,1.7,0.7,2.6,0.7
				c0.9,0,1.8-0.2,2.6-0.7c0.8-0.5,1.5-1.1,2-2s0.7-1.7,0.7-2.7c0-0.9-0.2-1.8-0.7-2.7c-0.5-0.9-1.1-1.5-2-2
				C539.1,408.4,538.3,408.2,537.4,408.2z M534.4,417v-7h1.4c1.3,0,2.1,0,2.2,0c0.5,0,0.8,0.1,1.1,0.3c0.3,0.1,0.5,0.4,0.7,0.7
				c0.2,0.3,0.3,0.6,0.3,1c0,0.5-0.2,0.9-0.5,1.3c-0.3,0.4-0.8,0.6-1.4,0.7c0.2,0.1,0.4,0.2,0.5,0.3c0.1,0.1,0.3,0.3,0.5,0.5
				c0.1,0.1,0.2,0.4,0.5,0.9l0.8,1.4h-1.8l-0.6-1.1c-0.4-0.8-0.7-1.2-1-1.4c-0.3-0.2-0.6-0.3-1-0.3h-0.4v2.9H534.4z M535.8,413h0.6
				c0.8,0,1.3,0,1.5-0.1s0.4-0.2,0.5-0.3c0.1-0.2,0.2-0.3,0.2-0.5c0-0.2-0.1-0.4-0.2-0.5c-0.1-0.2-0.3-0.3-0.5-0.3
				c-0.2-0.1-0.7-0.1-1.5-0.1h-0.6V413z"/>
		</g>
	</g>
	<g id="kids">
		<g id="flower-3">
			<path class="st3" d="M70.4,232.6H115"/>
			<path class="st3" d="M92.7,193.2l22.3,38.7"/>
			<path class="st3" d="M137.3,193.2L115,231.9"/>
			<path class="st3" d="M159.6,232.6H115"/>
			<path class="st3" d="M137.3,270.6L115,231.9"/>
			<path class="st3" d="M92.7,270.6l22.3-38.7"/>
			<path class="st4" d="M115,254.9c12.7,0,23-10.2,23.1-22.9s-10.2-23-22.9-23.1c-12.7,0-23,10.2-23.1,22.9c0,0,0,0.1,0,0.1
				C92.1,244.6,102.3,254.9,115,254.9z"/>
			<path class="st5" d="M70.4,244.7c7.1,0,12.8-5.7,12.8-12.7c0-7.1-5.7-12.8-12.7-12.8c-7.1,0-12.8,5.7-12.8,12.7c0,0,0,0,0,0
				C57.7,239,63.4,244.7,70.4,244.7C70.4,244.7,70.4,244.7,70.4,244.7z"/>
			<path class="st6" d="M92.7,206c7.1,0,12.8-5.7,12.8-12.7c0-7.1-5.7-12.8-12.7-12.8c-7.1,0-12.8,5.7-12.8,12.7c0,0,0,0,0,0
				C80,200.2,85.6,206,92.7,206C92.7,206,92.7,206,92.7,206z"/>
			<path class="st5" d="M137.3,206c7.1,0,12.8-5.7,12.8-12.7c0-7.1-5.7-12.8-12.7-12.8c-7.1,0-12.8,5.7-12.8,12.7c0,0,0,0,0,0
				C124.5,200.3,130.2,206,137.3,206C137.3,206,137.3,206,137.3,206z"/>
			<path class="st7" d="M159.6,244.7c7.1,0,12.8-5.7,12.8-12.7s-5.7-12.8-12.7-12.8s-12.8,5.7-12.8,12.7c0,0,0,0,0,0
				C146.8,239,152.5,244.7,159.6,244.7C159.6,244.7,159.6,244.7,159.6,244.7z"/>
			<path class="st5" d="M137.3,283.4c7.1,0,12.8-5.7,12.8-12.7c0-7.1-5.7-12.8-12.7-12.8c-7.1,0-12.8,5.7-12.8,12.7c0,0,0,0,0,0
				C124.5,277.7,130.2,283.4,137.3,283.4z"/>
			<path class="st5" d="M92.7,283.4c7.1,0,12.8-5.7,12.8-12.7c0-7.1-5.7-12.8-12.7-12.8c-7.1,0-12.8,5.7-12.8,12.7c0,0,0,0,0,0
				C80,277.7,85.7,283.4,92.7,283.4C92.7,283.4,92.7,283.4,92.7,283.4z"/>
		</g>
		<g class="st0">
			<path class="st2" d="M213.6,245.3c0-1.8-0.4-3.4-1.2-4.7c-0.8-1.3-2.2-2.4-4.2-3.5s-4.8-2.1-8.5-3.2c-2.9-0.8-5.5-1.8-7.8-2.8
				c-2.3-1.1-4.3-2.3-5.9-3.6c-1.7-1.4-2.9-2.9-3.8-4.7s-1.3-3.8-1.3-6c0-3,0.8-5.8,2.5-8.1c1.6-2.4,3.9-4.3,6.9-5.6
				s6.4-2.1,10.4-2.1c4.4,0,8.1,0.8,11.2,2.5c3.1,1.7,5.4,3.8,7,6.5c1.6,2.7,2.4,5.5,2.4,8.6h-7.8c0-2.2-0.5-4.1-1.4-5.8
				c-0.9-1.7-2.3-3-4.2-4c-1.9-1-4.3-1.5-7.2-1.5c-2.7,0-5,0.4-6.7,1.2c-1.8,0.8-3.1,1.9-3.9,3.4c-0.9,1.4-1.3,3-1.3,4.8
				c0,1.6,0.5,3.1,1.4,4.3c0.9,1.3,2.4,2.4,4.4,3.4c2,1,4.6,2,7.8,2.9c4.4,1.2,8,2.7,10.9,4.3c2.8,1.6,4.9,3.6,6.3,5.8
				c1.3,2.2,2,4.8,2,7.8c0,3.2-0.8,5.9-2.5,8.2c-1.7,2.3-4,4.2-7.1,5.4s-6.6,1.9-10.7,1.9c-2.7,0-5.3-0.4-7.9-1.1s-5-1.9-7.1-3.4
				c-2.1-1.5-3.8-3.3-5.1-5.5c-1.3-2.2-1.9-4.8-1.9-7.7h7.8c0,2,0.4,3.7,1.2,5.2c0.8,1.4,1.8,2.6,3.2,3.6c1.3,0.9,2.9,1.6,4.6,2.1
				c1.7,0.4,3.5,0.7,5.4,0.7c2.7,0,5-0.4,6.8-1.1c1.9-0.8,3.3-1.8,4.2-3.2C213.1,248.8,213.6,247.2,213.6,245.3z"/>
			<path class="st2" d="M247.5,254.8c1.8,0,3.4-0.4,4.9-1.1c1.5-0.7,2.7-1.7,3.7-3s1.5-2.7,1.6-4.4h7.1c-0.1,2.6-1,4.9-2.6,7.1
				c-1.6,2.2-3.7,4-6.2,5.3c-2.6,1.3-5.4,2-8.4,2c-4.4,0-8-1-10.8-3c-2.9-2-5-4.6-6.4-7.9s-2.1-6.9-2.1-10.7v-1.7
				c0-3.9,0.7-7.5,2.1-10.8c1.4-3.3,3.5-5.9,6.4-7.9c2.9-2,6.4-3,10.8-3c3.4,0,6.4,0.7,8.9,2.1c2.5,1.4,4.6,3.2,6,5.6
				c1.5,2.4,2.2,5,2.4,8h-7.1c-0.1-1.8-0.6-3.4-1.5-4.9c-0.9-1.5-2-2.6-3.5-3.5c-1.5-0.9-3.2-1.3-5.2-1.3c-3,0-5.4,0.8-7.1,2.3
				c-1.7,1.5-2.9,3.5-3.6,5.9c-0.7,2.4-1.1,4.9-1.1,7.4v1.7c0,2.5,0.3,5,1,7.4c0.7,2.4,1.9,4.4,3.6,5.9
				C242.1,254.1,244.5,254.8,247.5,254.8z"/>
			<path class="st2" d="M273.2,205.2c0-1.2,0.4-2.2,1.1-3c0.7-0.8,1.8-1.2,3.3-1.2s2.5,0.4,3.3,1.2c0.8,0.8,1.1,1.8,1.1,3
				c0,1.1-0.4,2.1-1.1,2.9s-1.9,1.2-3.3,1.2s-2.5-0.4-3.3-1.2C273.5,207.3,273.2,206.3,273.2,205.2z M281.2,260h-7.5v-43.3h7.5V260z
				"/>
			<path class="st2" d="M311.1,260.8c-4,0-7.5-0.9-10.5-2.7c-3-1.8-5.3-4.3-6.9-7.4c-1.6-3.1-2.5-6.8-2.5-10.8v-1.7
				c0-4.7,0.9-8.7,2.7-12c1.8-3.3,4.2-5.9,7-7.6c2.9-1.7,6-2.6,9.2-2.6c4.2,0,7.6,0.9,10.2,2.8c2.6,1.9,4.6,4.4,5.8,7.6
				c1.2,3.2,1.9,6.8,1.9,10.8v3.3h-32.4v-6h24.9v-0.6c-0.1-1.9-0.5-3.8-1.2-5.6c-0.7-1.8-1.7-3.3-3.2-4.5c-1.5-1.2-3.5-1.8-6-1.8
				c-2.2,0-4.2,0.6-5.9,1.9s-3.1,3.1-4,5.5c-1,2.4-1.5,5.4-1.5,8.8v1.7c0,2.8,0.5,5.3,1.5,7.5c1,2.3,2.5,4.1,4.4,5.4s4.2,2,6.9,2
				c2.6,0,4.8-0.5,6.6-1.6c1.8-1.1,3.4-2.5,4.8-4.3l4.5,3.5c-1.4,2.1-3.4,4.1-6,5.8C318.8,260,315.3,260.8,311.1,260.8z"/>
			<path class="st2" d="M344,260h-7.5v-43.3h7.1l0.4,9.2V260z M339.2,236.6c0.1-4,0.8-7.5,2.3-10.6c1.5-3.1,3.5-5.6,6.1-7.4
				c2.6-1.8,5.7-2.7,9.2-2.7c2.9,0,5.3,0.5,7.4,1.6c2.1,1.1,3.7,2.7,4.8,5c1.1,2.3,1.7,5.3,1.7,9.1V260h-7.5v-28.5
				c0-2.3-0.3-4.1-1-5.5c-0.7-1.4-1.6-2.4-2.9-3c-1.3-0.6-2.9-0.9-4.7-0.9c-1.8,0-3.5,0.4-5,1.2c-1.5,0.8-2.8,1.8-3.9,3.2
				c-1.1,1.4-1.9,2.9-2.5,4.7c-0.6,1.7-0.9,3.6-0.9,5.5L339.2,236.6z"/>
			<path class="st2" d="M399.2,254.8c1.8,0,3.4-0.4,4.9-1.1c1.5-0.7,2.7-1.7,3.7-3s1.5-2.7,1.6-4.4h7.1c-0.1,2.6-1,4.9-2.6,7.1
				c-1.6,2.2-3.7,4-6.2,5.3c-2.6,1.3-5.4,2-8.4,2c-4.4,0-8-1-10.8-3c-2.9-2-5-4.6-6.4-7.9s-2.1-6.9-2.1-10.7v-1.7
				c0-3.9,0.7-7.5,2.1-10.8c1.4-3.3,3.5-5.9,6.4-7.9c2.9-2,6.4-3,10.8-3c3.4,0,6.4,0.7,8.9,2.1c2.5,1.4,4.6,3.2,6,5.6
				c1.5,2.4,2.2,5,2.4,8h-7.1c-0.1-1.8-0.6-3.4-1.5-4.9c-0.9-1.5-2-2.6-3.5-3.5c-1.5-0.9-3.2-1.3-5.2-1.3c-3,0-5.4,0.8-7.1,2.3
				c-1.7,1.5-2.9,3.5-3.6,5.9c-0.7,2.4-1.1,4.9-1.1,7.4v1.7c0,2.5,0.3,5,1,7.4c0.7,2.4,1.9,4.4,3.6,5.9
				C393.8,254.1,396.2,254.8,399.2,254.8z"/>
		</g>
		<g class="st0">
			<path class="st2" d="M436.8,260h-12.6v-58.3h12.6V260z M463.5,211.9h-30.8v-10.2h30.8V211.9z M459.6,235h-26.8v-9.8h26.8V235z
				 M463.6,260h-30.8v-10.1h30.8V260z"/>
			<path class="st2" d="M467.8,238.1c0-4.4,0.7-8.3,2-11.6c1.3-3.3,3.2-5.9,5.8-7.8s5.6-2.8,9.2-2.8c3.4,0,6.2,1,8.5,2.9
				c2.3,1.9,4.1,4.6,5.4,7.9c1.3,3.4,2.2,7.1,2.7,11.4v1c-0.5,4-1.4,7.7-2.7,11s-3.1,5.9-5.4,7.8s-5.1,2.9-8.6,2.9
				c-3.6,0-6.6-1-9.1-2.9c-2.5-1.9-4.4-4.5-5.8-7.8c-1.3-3.3-2-7.1-2-11.3V238.1z M479.9,238.9c0,2.2,0.3,4.3,0.8,6.1
				c0.5,1.8,1.3,3.3,2.5,4.4c1.1,1.1,2.7,1.6,4.6,1.6c1.9,0,3.5-0.4,4.7-1.3c1.2-0.9,2.2-2.1,2.8-3.6c0.6-1.5,1-3.3,1.1-5.4v-4.2
				c-0.1-1.7-0.3-3.3-0.7-4.6c-0.4-1.3-0.9-2.5-1.6-3.4c-0.7-0.9-1.5-1.6-2.6-2.1s-2.3-0.7-3.7-0.7c-1.9,0-3.5,0.5-4.6,1.6
				c-1.2,1.1-2,2.5-2.5,4.4s-0.8,4-0.8,6.3V238.9z M495,198.5h12.2V260h-10.9l-1.2-9.6V198.5z"/>
		</g>
		<g class="st0">
			<path class="st9" d="M485.1,295.9l-5.5,1.5l-6.9-25.6l5.5-1.5L485.1,295.9z M486.8,281.7l-4.2,8l-2.4-5.1l2.4-6.6l4.1-10l6.8-1.8
				L486.8,281.7z M483.6,283.8l3.2-4.6l13.8,12.5l-6.6,1.8L483.6,283.8z"/>
		</g>
		<g class="st0">
			<path class="st10" d="M485.1,295.9l-5.5,1.5l-6.9-25.6l5.5-1.5L485.1,295.9z M486.8,281.7l-4.2,8l-2.4-5.1l2.4-6.6l4.1-10
				l6.8-1.8L486.8,281.7z M483.6,283.8l3.2-4.6l13.8,12.5l-6.6,1.8L483.6,283.8z"/>
		</g>
		<g class="st0">
			<path class="st11" d="M495.6,267.4c-0.2-0.8-0.1-1.5,0.3-2.2c0.4-0.7,1.1-1.1,2-1.3c0.9-0.2,1.7-0.2,2.4,0.2
				c0.7,0.4,1.1,1,1.3,1.7c0.2,0.8,0.1,1.5-0.3,2.2c-0.4,0.7-1,1.1-1.9,1.4c-0.9,0.2-1.7,0.2-2.4-0.2
				C496.3,268.8,495.9,268.2,495.6,267.4z M507.7,289.8l-5.3,1.4l-5.1-19l5.3-1.4L507.7,289.8z"/>
		</g>
		<g class="st0">
			<path class="st12" d="M495.6,267.4c-0.2-0.8-0.1-1.5,0.3-2.2c0.4-0.7,1.1-1.1,2-1.3c0.9-0.2,1.7-0.2,2.4,0.2
				c0.7,0.4,1.1,1,1.3,1.7c0.2,0.8,0.1,1.5-0.3,2.2c-0.4,0.7-1,1.1-1.9,1.4c-0.9,0.2-1.7,0.2-2.4-0.2
				C496.3,268.8,495.9,268.2,495.6,267.4z M507.7,289.8l-5.3,1.4l-5.1-19l5.3-1.4L507.7,289.8z"/>
		</g>
		<g class="st0">
			<path class="st13" d="M508.4,279.3c-0.5-1.9-0.7-3.7-0.5-5.3c0.2-1.6,0.7-3,1.6-4.1c0.9-1.1,2.1-1.9,3.7-2.3
				c1.5-0.4,2.9-0.3,4.1,0.3c1.2,0.6,2.3,1.5,3.3,2.8c1,1.3,1.8,2.9,2.5,4.7l0.1,0.4c0.3,1.8,0.3,3.5,0.1,5.1
				c-0.2,1.6-0.7,3-1.5,4.1c-0.8,1.1-1.9,1.9-3.4,2.3c-1.6,0.4-3,0.4-4.4-0.2c-1.3-0.5-2.5-1.5-3.5-2.8c-1-1.3-1.7-2.9-2.2-4.7
				L508.4,279.3z M513.8,278.3c0.3,1,0.6,1.9,1.1,2.6c0.4,0.8,1,1.3,1.6,1.6s1.4,0.4,2.2,0.2c0.8-0.2,1.5-0.6,1.9-1.1
				c0.4-0.5,0.7-1.2,0.8-1.9c0.1-0.8,0.1-1.6-0.1-2.5l-0.5-1.8c-0.2-0.8-0.5-1.4-0.8-2c-0.3-0.5-0.7-1-1.1-1.3
				c-0.4-0.3-0.9-0.5-1.4-0.6c-0.5-0.1-1.1,0-1.7,0.1c-0.8,0.2-1.5,0.6-1.9,1.3c-0.4,0.6-0.6,1.4-0.6,2.2c0,0.9,0.1,1.8,0.4,2.9
				L513.8,278.3z M515.7,258.7l5.4-1.4l7.2,27l-4.8,1.3l-1.7-4.1L515.7,258.7z"/>
		</g>
		<g class="st0">
			<path class="st14" d="M508.4,279.3c-0.5-1.9-0.7-3.7-0.5-5.3c0.2-1.6,0.7-3,1.6-4.1c0.9-1.1,2.1-1.9,3.7-2.3
				c1.5-0.4,2.9-0.3,4.1,0.3c1.2,0.6,2.3,1.5,3.3,2.8c1,1.3,1.8,2.9,2.5,4.7l0.1,0.4c0.3,1.8,0.3,3.5,0.1,5.1
				c-0.2,1.6-0.7,3-1.5,4.1c-0.8,1.1-1.9,1.9-3.4,2.3c-1.6,0.4-3,0.4-4.4-0.2c-1.3-0.5-2.5-1.5-3.5-2.8c-1-1.3-1.7-2.9-2.2-4.7
				L508.4,279.3z M513.8,278.3c0.3,1,0.6,1.9,1.1,2.6c0.4,0.8,1,1.3,1.6,1.6s1.4,0.4,2.2,0.2c0.8-0.2,1.5-0.6,1.9-1.1
				c0.4-0.5,0.7-1.2,0.8-1.9c0.1-0.8,0.1-1.6-0.1-2.5l-0.5-1.8c-0.2-0.8-0.5-1.4-0.8-2c-0.3-0.5-0.7-1-1.1-1.3
				c-0.4-0.3-0.9-0.5-1.4-0.6c-0.5-0.1-1.1,0-1.7,0.1c-0.8,0.2-1.5,0.6-1.9,1.3c-0.4,0.6-0.6,1.4-0.6,2.2c0,0.9,0.1,1.8,0.4,2.9
				L513.8,278.3z M515.7,258.7l5.4-1.4l7.2,27l-4.8,1.3l-1.7-4.1L515.7,258.7z"/>
		</g>
		<g class="st0">
			<path class="st15" d="M540.9,275.3c-0.1-0.4-0.3-0.6-0.6-0.8c-0.3-0.2-0.7-0.3-1.3-0.4c-0.6-0.1-1.5-0.1-2.6,0
				c-1.4,0.1-2.6,0-3.8-0.2c-1.2-0.2-2.1-0.6-2.9-1.2c-0.8-0.6-1.3-1.5-1.6-2.6c-0.3-1.1-0.2-2.1,0.1-3.2s1.1-2,2-2.9
				c1-0.9,2.3-1.5,3.9-1.9c1.7-0.4,3.2-0.6,4.5-0.4c1.4,0.2,2.5,0.7,3.4,1.4c0.9,0.8,1.5,1.7,1.8,2.9l-5.3,1.4
				c-0.2-0.7-0.6-1.2-1.1-1.6c-0.6-0.3-1.3-0.4-2.3-0.1c-0.5,0.1-0.9,0.3-1.3,0.6c-0.3,0.3-0.6,0.6-0.7,0.9c-0.1,0.3-0.1,0.7,0,1.1
				c0.1,0.4,0.3,0.6,0.6,0.8c0.3,0.2,0.7,0.3,1.3,0.4c0.6,0.1,1.3,0.1,2.2,0c1.4-0.1,2.7-0.1,3.9,0.1c1.2,0.2,2.2,0.5,3.1,1.2
				c0.9,0.6,1.5,1.6,1.8,2.8c0.3,1.1,0.2,2.2-0.2,3.3c-0.4,1.1-1.2,2-2.3,2.8c-1.1,0.8-2.4,1.5-4.1,1.9c-1.8,0.5-3.4,0.6-4.8,0.2
				c-1.4-0.3-2.6-0.9-3.5-1.7s-1.5-1.7-1.8-2.8l5-1.3c0.2,0.6,0.5,1.1,0.9,1.4c0.4,0.3,0.9,0.5,1.5,0.6c0.5,0.1,1.1,0,1.7-0.2
				c0.6-0.2,1.1-0.4,1.5-0.7c0.4-0.3,0.6-0.6,0.8-0.9C541,276,541,275.6,540.9,275.3z"/>
		</g>
		<g class="st0">
			<path class="st16" d="M540.9,275.3c-0.1-0.4-0.3-0.6-0.6-0.8c-0.3-0.2-0.7-0.3-1.3-0.4c-0.6-0.1-1.5-0.1-2.6,0
				c-1.4,0.1-2.6,0-3.8-0.2c-1.2-0.2-2.1-0.6-2.9-1.2c-0.8-0.6-1.3-1.5-1.6-2.6c-0.3-1.1-0.2-2.1,0.1-3.2s1.1-2,2-2.9
				c1-0.9,2.3-1.5,3.9-1.9c1.7-0.4,3.2-0.6,4.5-0.4c1.4,0.2,2.5,0.7,3.4,1.4c0.9,0.8,1.5,1.7,1.8,2.9l-5.3,1.4
				c-0.2-0.7-0.6-1.2-1.1-1.6c-0.6-0.3-1.3-0.4-2.3-0.1c-0.5,0.1-0.9,0.3-1.3,0.6c-0.3,0.3-0.6,0.6-0.7,0.9c-0.1,0.3-0.1,0.7,0,1.1
				c0.1,0.4,0.3,0.6,0.6,0.8c0.3,0.2,0.7,0.3,1.3,0.4c0.6,0.1,1.3,0.1,2.2,0c1.4-0.1,2.7-0.1,3.9,0.1c1.2,0.2,2.2,0.5,3.1,1.2
				c0.9,0.6,1.5,1.6,1.8,2.8c0.3,1.1,0.2,2.2-0.2,3.3c-0.4,1.1-1.2,2-2.3,2.8c-1.1,0.8-2.4,1.5-4.1,1.9c-1.8,0.5-3.4,0.6-4.8,0.2
				c-1.4-0.3-2.6-0.9-3.5-1.7s-1.5-1.7-1.8-2.8l5-1.3c0.2,0.6,0.5,1.1,0.9,1.4c0.4,0.3,0.9,0.5,1.5,0.6c0.5,0.1,1.1,0,1.7-0.2
				c0.6-0.2,1.1-0.4,1.5-0.7c0.4-0.3,0.6-0.6,0.8-0.9C541,276,541,275.6,540.9,275.3z"/>
		</g>
		<polygon class="st6" points="493.9,293.5 500.4,291.8 487.5,280 493.4,266.3 486.6,268.1 482.6,278 481.2,281.8 478.1,270.4 
			472.6,271.9 479.5,297.4 485,295.9 483.1,288.8 485,285.1 		"/>
		<path class="st4" d="M495.5,267.5c-0.2-0.7-0.1-1.5,0.3-2.2c0.5-0.7,1.2-1.2,2-1.3c0.8-0.3,1.6-0.2,2.4,0.2c0.7,0.4,1.1,1,1.3,1.7
			c0.2,0.7,0.1,1.5-0.3,2.2c-1,1.4-2.8,1.8-4.3,1.1C496.2,268.9,495.7,268.2,495.5,267.5z M507.5,289.9l-5.3,1.4l-5.1-19l5.3-1.4
			L507.5,289.9z"/>
		<path class="st7" d="M528,284.4l-7.2-26.9l-5.3,1.4l2.6,9.6c-0.3-0.2-0.6-0.4-0.9-0.5c-1.3-0.6-2.7-0.7-4.1-0.3
			c-1.5,0.3-2.8,1.2-3.7,2.3c-0.9,1.2-1.5,2.6-1.6,4.1c-0.2,1.8,0,3.6,0.5,5.3l0.1,0.4c0.4,1.7,1.2,3.3,2.2,4.7
			c0.9,1.2,2.1,2.2,3.5,2.8c1.4,0.5,2.9,0.6,4.3,0.2c1.4-0.3,2.6-1.1,3.4-2.3c0.3-0.4,0.5-0.9,0.7-1.4l0.8,2L528,284.4z
			 M520.4,281.6c-0.5,0.6-1.2,1-1.9,1.1c-0.7,0.2-1.5,0.2-2.2-0.2c-0.7-0.4-1.2-0.9-1.6-1.6c-0.5-0.8-0.8-1.7-1-2.6l-0.1-0.4
			c-0.3-0.9-0.4-1.9-0.4-2.9c0-0.8,0.2-1.6,0.6-2.2c0.4-0.6,1.1-1.1,1.8-1.3c0.6-0.2,1.1-0.2,1.7-0.1c0.5,0.1,1,0.3,1.4,0.6
			c0.2,0.2,0.4,0.3,0.5,0.5l2,7.4C521.1,280.6,520.8,281.1,520.4,281.6L520.4,281.6z"/>
		<path class="st5" d="M540.6,275.3c-0.1-0.3-0.3-0.6-0.5-0.8c-0.4-0.2-0.9-0.4-1.3-0.4c-0.9-0.1-1.7-0.1-2.6,0
			c-1.3,0.1-2.5,0-3.8-0.2c-1.1-0.2-2.1-0.6-2.9-1.2c-0.8-0.6-1.4-1.5-1.6-2.5c-0.3-1.1-0.2-2.2,0.1-3.2c0.4-1.1,1.1-2.1,2-2.9
			c1.1-0.9,2.4-1.6,3.9-1.9c1.5-0.4,3-0.6,4.5-0.4c1.2,0.2,2.4,0.7,3.3,1.4c0.9,0.8,1.5,1.8,1.8,2.9l-5.3,1.4
			c-0.1-0.7-0.6-1.2-1.1-1.6c-0.7-0.3-1.5-0.4-2.3-0.1c-0.5,0.1-0.9,0.3-1.3,0.6c-0.3,0.2-0.6,0.6-0.7,0.9c-0.1,0.4-0.1,0.7,0,1.1
			c0.1,0.3,0.3,0.6,0.6,0.8c0.4,0.2,0.8,0.4,1.3,0.4c0.7,0.1,1.4,0.1,2.2,0c1.3-0.1,2.6-0.1,3.9,0.1c1.1,0.1,2.2,0.5,3.1,1.1
			c0.9,0.7,1.6,1.7,1.8,2.8c0.3,1.1,0.2,2.2-0.2,3.3c-0.5,1.1-1.3,2.1-2.3,2.8c-1.2,0.9-2.6,1.5-4.1,1.9c-1.6,0.5-3.2,0.5-4.8,0.2
			c-1.3-0.2-2.5-0.8-3.4-1.7c-0.8-0.7-1.5-1.7-1.8-2.8l5-1.3c0.3,1.1,1.2,1.9,2.4,2c0.6,0,1.2,0,1.7-0.2c0.5-0.1,1-0.3,1.5-0.6
			c0.3-0.2,0.6-0.5,0.8-0.9C540.7,276.1,540.7,275.7,540.6,275.3z"/>
		<g class="st0">
			<path class="st1" d="M534.4,189.9c2.6,0,5.2,0.7,7.6,2c2.4,1.3,4.3,3.2,5.7,5.7c1.4,2.5,2.1,5.1,2.1,7.7c0,2.7-0.7,5.2-2,7.7
				s-3.3,4.3-5.7,5.7s-5,2-7.7,2s-5.2-0.7-7.7-2c-2.4-1.4-4.3-3.3-5.7-5.7s-2-5-2-7.7c0-2.7,0.7-5.3,2.1-7.7
				c1.4-2.5,3.3-4.4,5.7-5.7C529.2,190.6,531.8,189.9,534.4,189.9z M534.4,192.9c-2.1,0-4.2,0.5-6.1,1.6c-1.9,1.1-3.5,2.6-4.6,4.6
				s-1.7,4.1-1.7,6.2c0,2.2,0.5,4.2,1.6,6.2c1.1,2,2.6,3.5,4.6,4.6c2,1.1,4,1.7,6.2,1.7c2.2,0,4.2-0.5,6.2-1.7
				c2-1.1,3.5-2.6,4.6-4.6c1.1-2,1.7-4,1.7-6.2c0-2.2-0.6-4.3-1.7-6.2s-2.7-3.5-4.6-4.6C538.6,193.5,536.6,192.9,534.4,192.9z
				 M527.5,213.6v-16.4h3.3c3.1,0,4.9,0,5.2,0c1.1,0.1,2,0.3,2.6,0.7c0.6,0.3,1.1,0.9,1.5,1.6c0.4,0.7,0.6,1.5,0.6,2.3
				c0,1.2-0.4,2.2-1.2,3c-0.8,0.8-1.9,1.4-3.3,1.6c0.5,0.2,0.9,0.4,1.1,0.6c0.3,0.2,0.6,0.6,1.1,1.3c0.1,0.2,0.5,0.8,1.2,2l1.9,3.3
				h-4.1l-1.4-2.7c-0.9-1.8-1.7-2.9-2.3-3.4s-1.4-0.7-2.3-0.7h-0.9v6.7H527.5z M530.8,204.3h1.3c1.9,0,3.1-0.1,3.6-0.2
				c0.5-0.1,0.8-0.4,1.1-0.8c0.3-0.4,0.4-0.8,0.4-1.3c0-0.5-0.1-0.9-0.4-1.2s-0.6-0.6-1.1-0.8c-0.5-0.2-1.7-0.2-3.6-0.2h-1.3V204.3z
				"/>
		</g>
	</g>
	<g id="standard-3">
		<g class="st0">
			<path class="st1" d="M531.2,42.4c2.6,0,5.2,0.7,7.6,2c2.4,1.3,4.3,3.2,5.7,5.7c1.4,2.5,2.1,5.1,2.1,7.7c0,2.7-0.7,5.2-2,7.7
				s-3.3,4.3-5.7,5.7s-5,2-7.7,2s-5.2-0.7-7.7-2c-2.4-1.4-4.3-3.3-5.7-5.7s-2-5-2-7.7c0-2.7,0.7-5.3,2.1-7.7
				c1.4-2.5,3.3-4.4,5.7-5.7C526,43,528.5,42.4,531.2,42.4z M531.2,45.4c-2.1,0-4.2,0.5-6.1,1.6c-1.9,1.1-3.5,2.6-4.6,4.6
				s-1.7,4.1-1.7,6.2c0,2.2,0.5,4.2,1.6,6.2c1.1,2,2.6,3.5,4.6,4.6c2,1.1,4,1.7,6.2,1.7c2.2,0,4.2-0.5,6.2-1.7
				c2-1.1,3.5-2.6,4.6-4.6c1.1-2,1.7-4,1.7-6.2c0-2.2-0.6-4.3-1.7-6.2s-2.7-3.5-4.6-4.6C535.3,45.9,533.3,45.4,531.2,45.4z
				 M524.2,66V49.7h3.3c3.1,0,4.9,0,5.2,0c1.1,0.1,2,0.3,2.6,0.7c0.6,0.3,1.1,0.9,1.5,1.6c0.4,0.7,0.6,1.5,0.6,2.3
				c0,1.2-0.4,2.2-1.2,3c-0.8,0.8-1.9,1.4-3.3,1.6c0.5,0.2,0.9,0.4,1.1,0.6c0.3,0.2,0.6,0.6,1.1,1.3c0.1,0.2,0.5,0.8,1.2,2l1.9,3.3
				h-4.1l-1.4-2.7c-0.9-1.8-1.7-2.9-2.3-3.4s-1.4-0.7-2.3-0.7h-0.9V66H524.2z M527.5,56.7h1.3c1.9,0,3.1-0.1,3.6-0.2
				c0.5-0.1,0.8-0.4,1.1-0.8c0.3-0.4,0.4-0.8,0.4-1.3c0-0.5-0.1-0.9-0.4-1.2s-0.6-0.6-1.1-0.8c-0.5-0.2-1.7-0.2-3.6-0.2h-1.3V56.7z"
				/>
		</g>
		<g class="st0">
			<path class="st2" d="M210.4,97.4c0-1.8-0.4-3.4-1.2-4.7c-0.8-1.3-2.2-2.4-4.2-3.5s-4.8-2.1-8.5-3.2c-2.9-0.8-5.5-1.8-7.8-2.8
				c-2.3-1.1-4.3-2.3-5.9-3.6c-1.7-1.4-2.9-2.9-3.8-4.7s-1.3-3.8-1.3-6c0-3,0.8-5.8,2.5-8.1c1.6-2.4,3.9-4.3,6.9-5.6
				s6.4-2.1,10.4-2.1c4.4,0,8.1,0.8,11.2,2.5c3.1,1.7,5.4,3.8,7,6.5c1.6,2.7,2.4,5.5,2.4,8.6h-7.8c0-2.2-0.5-4.1-1.4-5.8
				c-0.9-1.7-2.3-3-4.2-4c-1.9-1-4.3-1.5-7.2-1.5c-2.7,0-5,0.4-6.7,1.2c-1.8,0.8-3.1,1.9-3.9,3.4c-0.9,1.4-1.3,3-1.3,4.8
				c0,1.6,0.5,3.1,1.4,4.3c0.9,1.3,2.4,2.4,4.4,3.4c2,1,4.6,2,7.8,2.9c4.4,1.2,8,2.7,10.9,4.3c2.8,1.6,4.9,3.6,6.3,5.8
				c1.3,2.2,2,4.8,2,7.8c0,3.2-0.8,5.9-2.5,8.2c-1.7,2.3-4,4.2-7.1,5.4s-6.6,1.9-10.7,1.9c-2.7,0-5.3-0.4-7.9-1.1s-5-1.9-7.1-3.4
				c-2.1-1.5-3.8-3.3-5.1-5.5c-1.3-2.2-1.9-4.8-1.9-7.7h7.8c0,2,0.4,3.7,1.2,5.2c0.8,1.4,1.8,2.6,3.2,3.6c1.3,0.9,2.9,1.6,4.6,2.1
				c1.7,0.4,3.5,0.7,5.4,0.7c2.7,0,5-0.4,6.8-1.1c1.9-0.8,3.3-1.8,4.2-3.2C209.9,101,210.4,99.3,210.4,97.4z"/>
			<path class="st2" d="M244.3,107c1.8,0,3.4-0.4,4.9-1.1c1.5-0.7,2.7-1.7,3.7-3s1.5-2.7,1.6-4.4h7.1c-0.1,2.6-1,4.9-2.6,7.1
				c-1.6,2.2-3.7,4-6.2,5.3c-2.6,1.3-5.4,2-8.4,2c-4.4,0-8-1-10.8-3c-2.9-2-5-4.6-6.4-7.9s-2.1-6.9-2.1-10.7v-1.7
				c0-3.9,0.7-7.5,2.1-10.8c1.4-3.3,3.5-5.9,6.4-7.9c2.9-2,6.4-3,10.8-3c3.4,0,6.4,0.7,8.9,2.1c2.5,1.4,4.6,3.2,6,5.6
				c1.5,2.4,2.2,5,2.4,8h-7.1c-0.1-1.8-0.6-3.4-1.5-4.9c-0.9-1.5-2-2.6-3.5-3.5c-1.5-0.9-3.2-1.3-5.2-1.3c-3,0-5.4,0.8-7.1,2.3
				c-1.7,1.5-2.9,3.5-3.6,5.9c-0.7,2.4-1.1,4.9-1.1,7.4v1.7c0,2.5,0.3,5,1,7.4c0.7,2.4,1.9,4.4,3.6,5.9
				C238.8,106.2,241.2,107,244.3,107z"/>
			<path class="st2" d="M269.9,57.3c0-1.2,0.4-2.2,1.1-3c0.7-0.8,1.8-1.2,3.3-1.2s2.5,0.4,3.3,1.2c0.8,0.8,1.1,1.8,1.1,3
				c0,1.1-0.4,2.1-1.1,2.9s-1.9,1.2-3.3,1.2s-2.5-0.4-3.3-1.2C270.3,59.4,269.9,58.5,269.9,57.3z M278,112.2h-7.5V68.8h7.5V112.2z"
				/>
			<path class="st2" d="M307.8,113c-4,0-7.5-0.9-10.5-2.7c-3-1.8-5.3-4.3-6.9-7.4c-1.6-3.1-2.5-6.8-2.5-10.8v-1.7
				c0-4.7,0.9-8.7,2.7-12c1.8-3.3,4.2-5.9,7-7.6c2.9-1.7,6-2.6,9.2-2.6c4.2,0,7.6,0.9,10.2,2.8c2.6,1.9,4.6,4.4,5.8,7.6
				c1.2,3.2,1.9,6.8,1.9,10.8v3.3h-32.4v-6h24.9V86c-0.1-1.9-0.5-3.8-1.2-5.6c-0.7-1.8-1.7-3.3-3.2-4.5c-1.5-1.2-3.5-1.8-6-1.8
				c-2.2,0-4.2,0.6-5.9,1.9s-3.1,3.1-4,5.5c-1,2.4-1.5,5.4-1.5,8.8V92c0,2.8,0.5,5.3,1.5,7.5c1,2.3,2.5,4.1,4.4,5.4s4.2,2,6.9,2
				c2.6,0,4.8-0.5,6.6-1.6c1.8-1.1,3.4-2.5,4.8-4.3l4.5,3.5c-1.4,2.1-3.4,4.1-6,5.8C315.6,112.1,312.1,113,307.8,113z"/>
			<path class="st2" d="M340.8,112.2h-7.5V68.8h7.1l0.4,9.2V112.2z M335.9,88.7c0.1-4,0.8-7.5,2.3-10.6c1.5-3.1,3.5-5.6,6.1-7.4
				c2.6-1.8,5.7-2.7,9.2-2.7c2.9,0,5.3,0.5,7.4,1.6c2.1,1.1,3.7,2.7,4.8,5c1.1,2.3,1.7,5.3,1.7,9.1v28.4h-7.5V83.7
				c0-2.3-0.3-4.1-1-5.5c-0.7-1.4-1.6-2.4-2.9-3c-1.3-0.6-2.9-0.9-4.7-0.9c-1.8,0-3.5,0.4-5,1.2c-1.5,0.8-2.8,1.8-3.9,3.2
				c-1.1,1.4-1.9,2.9-2.5,4.7c-0.6,1.7-0.9,3.6-0.9,5.5L335.9,88.7z"/>
			<path class="st2" d="M396,107c1.8,0,3.4-0.4,4.9-1.1c1.5-0.7,2.7-1.7,3.7-3s1.5-2.7,1.6-4.4h7.1c-0.1,2.6-1,4.9-2.6,7.1
				c-1.6,2.2-3.7,4-6.2,5.3c-2.6,1.3-5.4,2-8.4,2c-4.4,0-8-1-10.8-3c-2.9-2-5-4.6-6.4-7.9s-2.1-6.9-2.1-10.7v-1.7
				c0-3.9,0.7-7.5,2.1-10.8c1.4-3.3,3.5-5.9,6.4-7.9c2.9-2,6.4-3,10.8-3c3.4,0,6.4,0.7,8.9,2.1c2.5,1.4,4.6,3.2,6,5.6
				c1.5,2.4,2.2,5,2.4,8h-7.1c-0.1-1.8-0.6-3.4-1.5-4.9c-0.9-1.5-2-2.6-3.5-3.5c-1.5-0.9-3.2-1.3-5.2-1.3c-3,0-5.4,0.8-7.1,2.3
				c-1.7,1.5-2.9,3.5-3.6,5.9c-0.7,2.4-1.1,4.9-1.1,7.4v1.7c0,2.5,0.3,5,1,7.4c0.7,2.4,1.9,4.4,3.6,5.9
				C390.6,106.2,392.9,107,396,107z"/>
		</g>
		<g class="st0">
			<path class="st2" d="M433.6,112.2H421V53.9h12.6V112.2z M460.3,64h-30.8V53.9h30.8V64z M456.3,87.1h-26.8v-9.8h26.8V87.1z
				 M460.3,112.2h-30.8V102h30.8V112.2z"/>
			<path class="st2" d="M464.6,90.2c0-4.4,0.7-8.3,2-11.6c1.3-3.3,3.2-5.9,5.8-7.8s5.6-2.8,9.2-2.8c3.4,0,6.2,1,8.5,2.9
				c2.3,1.9,4.1,4.6,5.4,7.9c1.3,3.4,2.2,7.1,2.7,11.4v1c-0.5,4-1.4,7.7-2.7,11s-3.1,5.9-5.4,7.8s-5.1,2.9-8.6,2.9
				c-3.6,0-6.6-1-9.1-2.9c-2.5-1.9-4.4-4.5-5.8-7.8c-1.3-3.3-2-7.1-2-11.3V90.2z M476.7,91c0,2.2,0.3,4.3,0.8,6.1
				c0.5,1.8,1.3,3.3,2.5,4.4c1.1,1.1,2.7,1.6,4.6,1.6c1.9,0,3.5-0.4,4.7-1.3c1.2-0.9,2.2-2.1,2.8-3.6c0.6-1.5,1-3.3,1.1-5.4v-4.2
				c-0.1-1.7-0.3-3.3-0.7-4.6c-0.4-1.3-0.9-2.5-1.6-3.4c-0.7-0.9-1.5-1.6-2.6-2.1c-1.1-0.5-2.3-0.7-3.7-0.7c-1.9,0-3.5,0.5-4.6,1.6
				c-1.2,1.1-2,2.5-2.5,4.4s-0.8,4-0.8,6.3V91z M491.8,50.7h12.2v61.5H493l-1.2-9.6V50.7z"/>
		</g>
		<path class="st3" d="M67.3,85.4h44.5"/>
		<path class="st3" d="M89.5,46l22.3,38.7"/>
		<path class="st3" d="M134,46l-22.2,38.7"/>
		<path class="st3" d="M156.3,85.4h-44.5"/>
		<path class="st3" d="M134,123.4l-22.2-38.7"/>
		<path class="st3" d="M89.5,123.4l22.3-38.7"/>
		<path class="st4" d="M111.8,107.7c12.7,0.1,23-10.2,23.1-22.9c0.1-12.7-10.2-23-22.9-23.1s-23,10.2-23.1,22.9c0,0,0,0.1,0,0.1
			C88.8,97.3,99.1,107.6,111.8,107.7C111.7,107.7,111.8,107.7,111.8,107.7z"/>
		<path class="st5" d="M67.3,97.5c7,0,12.8-5.7,12.8-12.7S74.4,72,67.4,72s-12.8,5.7-12.8,12.7c0,0,0,0,0,0
			C54.5,91.7,60.2,97.5,67.3,97.5C67.3,97.5,67.3,97.5,67.3,97.5z"/>
		<path class="st6" d="M89.5,58.8c7,0,12.8-5.7,12.8-12.7c0-7-5.7-12.8-12.7-12.8S76.8,38.9,76.8,46c0,0,0,0,0,0
			C76.8,53,82.4,58.8,89.5,58.8C89.5,58.8,89.5,58.8,89.5,58.8z"/>
		<path class="st5" d="M134,58.8c7,0,12.8-5.7,12.8-12.7c0-7-5.7-12.8-12.7-12.8s-12.8,5.7-12.8,12.7c0,0,0,0,0,0
			C121.3,53,126.9,58.8,134,58.8C134,58.8,134,58.8,134,58.8z"/>
		<path class="st7" d="M156.3,97.5c7,0,12.8-5.7,12.8-12.7c0-7-5.7-12.8-12.7-12.8c-7,0-12.8,5.7-12.8,12.7c0,0,0,0,0,0
			C143.5,91.7,149.2,97.5,156.3,97.5C156.3,97.5,156.3,97.5,156.3,97.5z"/>
		<path class="st5" d="M134,136.1c7,0,12.8-5.7,12.8-12.7c0-7-5.7-12.8-12.7-12.8c-7,0-12.8,5.7-12.8,12.7c0,0,0,0,0,0
			C121.3,130.4,127,136.1,134,136.1C134,136.1,134,136.1,134,136.1z"/>
		<path class="st5" d="M89.5,136.1c7,0,12.8-5.7,12.8-12.7c0-7-5.7-12.8-12.7-12.8s-12.8,5.7-12.8,12.7c0,0,0,0,0,0
			C76.8,130.4,82.5,136.1,89.5,136.1C89.5,136.1,89.5,136.1,89.5,136.1z"/>
	</g>
</g>
</svg>
