<svg xmlns="http://www.w3.org/2000/svg" viewBox="0 0 1125.33 630.54"><defs><style>.cls-1{font-size:41.21px;}.cls-1,.cls-30{fill:#231f20;font-family:Arial-BoldMT, Arial;}.cls-1,.cls-11,.cls-27,.cls-3,.cls-30,.cls-31{font-weight:700;}.cls-2{font-size:82px;}.cls-10,.cls-11,.cls-2,.cls-27,.cls-28{fill:#333;}.cls-2,.cls-28{font-family:Heebo-Regular, Heebo;}.cls-11,.cls-27,.cls-3,.cls-31{font-family:Heebo-Bold, Heebo;}.cls-12,.cls-22,.cls-4{fill:none;stroke:#a7a6a6;}.cls-12,.cls-14,.cls-15,.cls-16,.cls-17,.cls-18,.cls-20,.cls-21,.cls-22,.cls-24,.cls-25,.cls-26,.cls-31,.cls-4,.cls-6,.cls-7,.cls-8,.cls-9{stroke-miterlimit:10;}.cls-4,.cls-5,.cls-6,.cls-7,.cls-8{stroke-width:0.96px;}.cls-13,.cls-19,.cls-23,.cls-29,.cls-32,.cls-5{fill:#ffcd05;stroke:#cca42c;}.cls-14,.cls-20,.cls-24,.cls-34,.cls-6{fill:#28baed;stroke:#0b89b2;}.cls-15,.cls-18,.cls-25,.cls-31,.cls-7{fill:#ed1c6c;stroke:#cc1d59;}.cls-16,.cls-17,.cls-21,.cls-26,.cls-33,.cls-8,.cls-9{fill:#6bb545;stroke:#50883e;}.cls-9{stroke-width:0.96px;}.cls-11,.cls-27{font-size:37px;}.cls-11{letter-spacing:0em;}.cls-12,.cls-13,.cls-14,.cls-15,.cls-16{stroke-width:0.96px;}.cls-17,.cls-18,.cls-19,.cls-20{stroke-width:0.96px;}.cls-21{stroke-width:0.96px;}.cls-22,.cls-23,.cls-24,.cls-25,.cls-26{stroke-width:0.96px;}.cls-28{font-size:34.96px;}.cls-29{stroke-width:0.64px;}.cls-30{font-size:17.69px;}.cls-31{font-size:37.16px;stroke-width:0.96px;}.cls-32{letter-spacing:0em;stroke-miterlimit:4;}.cls-33{letter-spacing:0em;}</style></defs><title>sciencedlogos_1</title><g id="heebo"><g id="Green_Stem" data-name="Green Stem"><g id="standard"><text class="cls-1" transform="translate(1054.42 474.69)">®</text><text class="cls-2" transform="translate(711.09 514.39)">Scienc<tspan class="cls-3" x="243.36" y="0">Ed</tspan></text><path class="cls-4" d="M605.76,487.59h44.5"/><path class="cls-4" d="M628,448.25l22.25,38.68"/><path class="cls-4" d="M672.51,448.25l-22.25,38.68"/><path class="cls-4" d="M694.76,487.59h-44.5"/><path class="cls-4" d="M672.51,525.6l-22.25-38.67"/><path class="cls-4" d="M628,525.6l22.25-38.67"/><path class="cls-5" d="M650.26,509.9a23,23,0,1,0-22.89-23A22.93,22.93,0,0,0,650.26,509.9Z"/><path class="cls-6" d="M605.76,499.69A12.76,12.76,0,1,0,593,486.93,12.74,12.74,0,0,0,605.76,499.69Z"/><path class="cls-7" d="M628,461a12.76,12.76,0,1,0-12.72-12.76A12.73,12.73,0,0,0,628,461Z"/><path class="cls-6" d="M672.51,461a12.76,12.76,0,1,0-12.72-12.76A12.74,12.74,0,0,0,672.51,461Z"/><path class="cls-8" d="M694.76,499.69A12.77,12.77,0,1,0,682,486.93,12.74,12.74,0,0,0,694.76,499.69Z"/><path class="cls-6" d="M672.51,538.36a12.76,12.76,0,1,0-12.72-12.76A12.73,12.73,0,0,0,672.51,538.36Z"/><path class="cls-6" d="M628,538.36A12.76,12.76,0,1,0,615.3,525.6,12.73,12.73,0,0,0,628,538.36Z"/></g><path class="cls-9" d="M859.25,545.06a9.15,9.15,0,0,1-1.93,1.6,12.73,12.73,0,0,1-3.32,1.47,17.18,17.18,0,0,1-4.92.62,11.82,11.82,0,0,1-6-1.49,10.22,10.22,0,0,1-4-4.35,15.22,15.22,0,0,1-1.44-6.92v-1.5a15.8,15.8,0,0,1,1.38-6.93,10.08,10.08,0,0,1,3.88-4.36,11.06,11.06,0,0,1,5.82-1.5,12.67,12.67,0,0,1,5.71,1.13,7.94,7.94,0,0,1,3.38,3.12,11.17,11.17,0,0,1,1.44,4.57h-5.51a6.07,6.07,0,0,0-.73-2.27,3.7,3.7,0,0,0-1.55-1.46,5.5,5.5,0,0,0-2.58-.52,4.85,4.85,0,0,0-3,.92,5.71,5.71,0,0,0-1.87,2.74,13.68,13.68,0,0,0-.64,4.53V536a13.12,13.12,0,0,0,.68,4.52,5.62,5.62,0,0,0,2,2.75,5.76,5.76,0,0,0,3.33.92,8.88,8.88,0,0,0,2-.2,5.25,5.25,0,0,0,1.32-.48,4,4,0,0,0,.78-.53v-4.38h-4.77v-4.13h10.46Z"/><path class="cls-9" d="M873.71,528.53c-.31,0-.6,0-.87,0a4.44,4.44,0,0,0-3.08,1.13,5.92,5.92,0,0,0-1.23,1.58l-.17-2.35h-5.14v19.55h5.46V535.78c0-.06,0-.14.07-.2a2.88,2.88,0,0,1,1.38-1.31,5.3,5.3,0,0,1,2.34-.45c.29,0,.62,0,1,0s.67.06.94.1l.07-5.26A2.94,2.94,0,0,0,873.71,528.53Z"/><path class="cls-9" d="M894.12,538.09a12.07,12.07,0,0,0-1-5.07,7.55,7.55,0,0,0-2.93-3.35,10,10,0,0,0-9.68.11,8.54,8.54,0,0,0-3.17,3.58,11.68,11.68,0,0,0-1.12,5.22v.7A9.75,9.75,0,0,0,877.4,544a8.72,8.72,0,0,0,3.36,3.43,10.25,10.25,0,0,0,5.28,1.29,9.57,9.57,0,0,0,4.8-1.1,8.79,8.79,0,0,0,2.85-2.43l-2.64-3a5.09,5.09,0,0,1-2.06,1.61,6.46,6.46,0,0,1-2.6.52,4.73,4.73,0,0,1-2.53-.64,4.21,4.21,0,0,1-1.61-1.78,5,5,0,0,1-.46-1.52h12.33Zm-5.37-1.36h-6.91a8.64,8.64,0,0,1,.22-1.06,4.36,4.36,0,0,1,1.18-2,3,3,0,0,1,2.15-.76,3.7,3.7,0,0,1,1.91.43,2.67,2.67,0,0,1,1.09,1.21,4.24,4.24,0,0,1,.36,1.79Z"/><path class="cls-9" d="M914.25,538.09a11.91,11.91,0,0,0-1-5.07,7.53,7.53,0,0,0-2.92-3.35,8.89,8.89,0,0,0-4.77-1.19,9,9,0,0,0-4.92,1.3,8.61,8.61,0,0,0-3.17,3.58,11.81,11.81,0,0,0-1.11,5.22v.7a9.75,9.75,0,0,0,1.17,4.75,8.59,8.59,0,0,0,3.36,3.43,10.23,10.23,0,0,0,5.28,1.29,9.57,9.57,0,0,0,4.8-1.1,8.64,8.64,0,0,0,2.84-2.43l-2.63-3a5.16,5.16,0,0,1-2.06,1.61,6.51,6.51,0,0,1-2.61.52,4.7,4.7,0,0,1-2.52-.64,4.21,4.21,0,0,1-1.61-1.78,5.29,5.29,0,0,1-.47-1.52h12.34Zm-5.37-1.36H902a8.64,8.64,0,0,1,.22-1.06,4.28,4.28,0,0,1,1.18-2,3,3,0,0,1,2.15-.76,3.73,3.73,0,0,1,1.91.43,2.72,2.72,0,0,1,1.09,1.21,4.24,4.24,0,0,1,.36,1.79Z"/><path class="cls-9" d="M933.34,531.56a5,5,0,0,0-2.17-2.36,6.9,6.9,0,0,0-3.23-.72,7.11,7.11,0,0,0-4,1.15,7.27,7.27,0,0,0-1.56,1.43l-.17-2.22h-5.13v19.55h5.46V534.67a3.65,3.65,0,0,1,.18-.34,3.32,3.32,0,0,1,1.21-1.06,3.9,3.9,0,0,1,1.73-.37,4.45,4.45,0,0,1,1.65.27,1.94,1.94,0,0,1,1,.92,4.09,4.09,0,0,1,.35,1.87v12.43h5.47V536A10.44,10.44,0,0,0,933.34,531.56Z"/><path class="cls-10" d="M961.24,541.45a3,3,0,0,0-.38-1.54,3.61,3.61,0,0,0-1.45-1.23,18.6,18.6,0,0,0-3.17-1.26,32.77,32.77,0,0,1-3.37-1.31A13.73,13.73,0,0,1,950,534.4a7.42,7.42,0,0,1-1.93-2.27,6.29,6.29,0,0,1-.71-3,6.2,6.2,0,0,1,1.27-3.87,8.21,8.21,0,0,1,3.48-2.58,13.12,13.12,0,0,1,5.06-.92,11.85,11.85,0,0,1,5.12,1,8.08,8.08,0,0,1,3.38,2.86,7.52,7.52,0,0,1,1.21,4.24h-5.66a3.88,3.88,0,0,0-.45-1.89,3.1,3.1,0,0,0-1.37-1.28,5.07,5.07,0,0,0-2.32-.46,5.58,5.58,0,0,0-2.26.4,3,3,0,0,0-1.34,1,2.54,2.54,0,0,0-.44,1.47,2.12,2.12,0,0,0,.59,1.48,5.65,5.65,0,0,0,1.74,1.16,20.49,20.49,0,0,0,2.76,1,21.24,21.24,0,0,1,4.83,2.05,8.43,8.43,0,0,1,2.93,2.77,7,7,0,0,1,1,3.78,6.61,6.61,0,0,1-1.19,4,7.38,7.38,0,0,1-3.33,2.51,13.43,13.43,0,0,1-5.06.87,14.59,14.59,0,0,1-3.89-.52,10.88,10.88,0,0,1-3.45-1.59,8,8,0,0,1-2.47-2.72,7.87,7.87,0,0,1-.92-3.9h5.69a5,5,0,0,0,.35,2,3.3,3.3,0,0,0,1,1.31,4.16,4.16,0,0,0,1.59.73,8.92,8.92,0,0,0,2.09.23,5.75,5.75,0,0,0,2.21-.37,2.83,2.83,0,0,0,1.28-1A2.66,2.66,0,0,0,961.24,541.45Z"/><path class="cls-10" d="M990.55,526.67H969v-4.59h21.54Zm-8,21.72h-5.67V522.08h5.67Z"/><path class="cls-10" d="M999.29,548.39H993.6V522.08h5.69Zm12.06-21.72H997.47v-4.59h13.88Zm-1.79,10.41H997.47v-4.43h12.09Zm1.8,11.31H997.47v-4.57h13.89Z"/><path class="cls-10" d="M1019.28,522.08l.88,19.5v6.81h-5.69V522.08Zm2.62,0,6.52,18.77,6.5-18.77h4.79l-9.38,26.31h-3.86l-9.36-26.31Zm20.45,0v26.31h-5.69v-6.81l.86-19.5Z"/></g><g id="stem-2" data-name="stem"><g id="standard-2" data-name="standard"><text class="cls-1" transform="translate(1054.42 351.38)">®</text><text class="cls-2" transform="translate(711.09 391.08)">Scienc<tspan class="cls-3" x="243.36" y="0">Ed</tspan></text><path class="cls-4" d="M605.76,364.28h44.5"/><path class="cls-4" d="M628,324.94l22.25,38.68"/><path class="cls-4" d="M672.51,324.94l-22.25,38.68"/><path class="cls-4" d="M694.76,364.28h-44.5"/><path class="cls-4" d="M672.51,402.3l-22.25-38.68"/><path class="cls-4" d="M628,402.29l22.25-38.67"/><path class="cls-5" d="M650.26,386.59a23,23,0,1,0-22.89-23A22.93,22.93,0,0,0,650.26,386.59Z"/><path class="cls-6" d="M605.76,376.38A12.76,12.76,0,1,0,593,363.62,12.73,12.73,0,0,0,605.76,376.38Z"/><path class="cls-7" d="M628,337.7a12.76,12.76,0,1,0-12.72-12.76A12.73,12.73,0,0,0,628,337.7Z"/><path class="cls-6" d="M672.51,337.7a12.76,12.76,0,1,0-12.72-12.76A12.73,12.73,0,0,0,672.51,337.7Z"/><path class="cls-8" d="M694.76,376.38A12.76,12.76,0,1,0,682,363.62,12.74,12.74,0,0,0,694.76,376.38Z"/><path class="cls-6" d="M672.51,415.05a12.76,12.76,0,1,0-12.72-12.76A12.73,12.73,0,0,0,672.51,415.05Z"/><path class="cls-6" d="M628,415.05a12.76,12.76,0,1,0-12.71-12.76A12.73,12.73,0,0,0,628,415.05Z"/></g><text class="cls-11" transform="translate(945.33 425.08)">STEM</text></g><g id="ecokids"><text class="cls-1" transform="translate(1054.42 221.63)">®</text><g id="flower"><path class="cls-12" d="M605.69,233.69h44.57"/><path class="cls-12" d="M628,194.29,650.26,233"/><path class="cls-12" d="M672.54,194.29,650.26,233"/><path class="cls-12" d="M694.82,233.69H650.26"/><path class="cls-12" d="M672.54,271.76,650.26,233"/><path class="cls-12" d="M628,271.76,650.26,233"/><path class="cls-13" d="M650.26,256a23,23,0,1,0-22.92-23A23,23,0,0,0,650.26,256Z"/><path class="cls-14" d="M605.7,245.8A12.78,12.78,0,1,0,593,233,12.75,12.75,0,0,0,605.7,245.8Z"/><path class="cls-15" d="M628,207.07a12.78,12.78,0,1,0-12.74-12.78A12.75,12.75,0,0,0,628,207.07Z"/><path class="cls-14" d="M672.54,207.07a12.78,12.78,0,1,0-12.73-12.78A12.75,12.75,0,0,0,672.54,207.07Z"/><path class="cls-16" d="M694.82,245.8A12.78,12.78,0,1,0,682.09,233,12.75,12.75,0,0,0,694.82,245.8Z"/><path class="cls-14" d="M672.54,284.53a12.78,12.78,0,1,0-12.73-12.77A12.75,12.75,0,0,0,672.54,284.53Z"/><path class="cls-14" d="M628,284.53a12.78,12.78,0,1,0-12.73-12.77A12.75,12.75,0,0,0,628,284.53Z"/></g><text class="cls-2" transform="translate(711.09 261.16)">Scienc<tspan class="cls-3" x="243.36" y="0">Ed</tspan></text><polygon class="cls-17" points="963.34 288.06 963.34 278.96 974.39 278.96 974.39 276.21 963.34 276.21 963.34 267.97 976.01 267.97 976.01 265.21 963.34 265.21 962.67 265.21 959.93 265.21 959.93 290.8 962.67 290.8 963.34 290.8 976.19 290.8 976.19 288.06 963.34 288.06"/><path class="cls-17" d="M987.17,288.52a4.72,4.72,0,0,0,2.15-.49,4.42,4.42,0,0,0,1.61-1.32,3.57,3.57,0,0,0,.73-1.92h3.11a5.73,5.73,0,0,1-1.15,3.14,7.9,7.9,0,0,1-6.45,3.22,8,8,0,0,1-4.74-1.31,7.92,7.92,0,0,1-2.81-3.47,12,12,0,0,1-.92-4.71v-.74a11.8,11.8,0,0,1,.93-4.72,8,8,0,0,1,2.81-3.46,8.12,8.12,0,0,1,4.73-1.31,8,8,0,0,1,3.91.91,6.81,6.81,0,0,1,2.64,2.46,7.19,7.19,0,0,1,1,3.52h-3.11a4.88,4.88,0,0,0-.66-2.14,4.24,4.24,0,0,0-1.55-1.54,4.44,4.44,0,0,0-2.28-.57,4.51,4.51,0,0,0-3.12,1,5.54,5.54,0,0,0-1.6,2.59,11.38,11.38,0,0,0-.46,3.24v.74a11.75,11.75,0,0,0,.45,3.25,5.44,5.44,0,0,0,1.6,2.6A4.55,4.55,0,0,0,987.17,288.52Z"/><path class="cls-17" d="M997.56,281.1a11.1,11.1,0,0,1,1.06-4.94,8.49,8.49,0,0,1,3-3.45,8.15,8.15,0,0,1,4.59-1.28,8.28,8.28,0,0,1,4.64,1.28,8.39,8.39,0,0,1,3,3.45,11.23,11.23,0,0,1,1,4.94v.4a11.22,11.22,0,0,1-1,4.93,8.39,8.39,0,0,1-15.21,0,11.08,11.08,0,0,1-1.06-4.93Zm3.29.4a9.78,9.78,0,0,0,.6,3.48,5.78,5.78,0,0,0,1.78,2.57,5.09,5.09,0,0,0,6,0A5.86,5.86,0,0,0,1011,285a9.78,9.78,0,0,0,.6-3.48v-.4a9.86,9.86,0,0,0-.6-3.48,5.89,5.89,0,0,0-1.79-2.58,4.61,4.61,0,0,0-3-1,4.55,4.55,0,0,0-3,1,5.87,5.87,0,0,0-1.78,2.58,10.09,10.09,0,0,0-.59,3.48Z"/><polygon class="cls-18" points="1033.17 290.8 1039.73 290.8 1030.58 276.57 1039.52 265.21 1032.74 265.21 1026.46 273.47 1024.23 276.63 1024.23 265.21 1018.69 265.21 1018.69 290.8 1024.23 290.8 1024.23 283.65 1026.91 280.75 1033.17 290.8"/><path class="cls-19" d="M1041.23,266.88a2.6,2.6,0,0,1,.8-2,3,3,0,0,1,2.17-.77,3,3,0,0,1,2.15.77,2.79,2.79,0,0,1,0,3.91,2.94,2.94,0,0,1-2.15.77,3,3,0,0,1-2.17-.77A2.62,2.62,0,0,1,1041.23,266.88Zm5.64,23.92h-5.33v-19h5.33Z"/><path class="cls-17" d="M1062.07,263.8v9.65a6.46,6.46,0,0,0-.74-.74,5.6,5.6,0,0,0-3.74-1.28,6.69,6.69,0,0,0-4,1.22,7.59,7.59,0,0,0-2.53,3.41,13.74,13.74,0,0,0-.87,5.09v.37a13.22,13.22,0,0,0,.87,4.94,7.85,7.85,0,0,0,2.53,3.44,6.53,6.53,0,0,0,4,1.25,5.64,5.64,0,0,0,3.77-1.27,8.32,8.32,0,0,0,1-1.1l.26,2h4.8v-27ZM1061,286.28a3.51,3.51,0,0,1-2.07.57,2.86,2.86,0,0,1-2-.71,4.1,4.1,0,0,1-1.09-1.93,10.22,10.22,0,0,1-.33-2.69v-.37a10.25,10.25,0,0,1,.34-2.77,4,4,0,0,1,1.12-1.93,2.89,2.89,0,0,1,2-.71,3.73,3.73,0,0,1,1.63.32,2.84,2.84,0,0,1,1.14.92,3.06,3.06,0,0,1,.36.61v7.34A3.47,3.47,0,0,1,1061,286.28Z"/><path class="cls-20" d="M1081.43,285.49a1.45,1.45,0,0,0-.31-.91,2.75,2.75,0,0,0-1.13-.72,15.42,15.42,0,0,0-2.4-.67,16.62,16.62,0,0,1-3.45-1.14,6.52,6.52,0,0,1-2.42-1.87,4.51,4.51,0,0,1-.88-2.79,5.15,5.15,0,0,1,.92-2.95,6.44,6.44,0,0,1,2.63-2.18,9.37,9.37,0,0,1,4.1-.83,10.84,10.84,0,0,1,4.31.79,6.49,6.49,0,0,1,2.78,2.18,5.48,5.48,0,0,1,1,3.18h-5.31a2.42,2.42,0,0,0-.66-1.75,2.82,2.82,0,0,0-2.1-.67,3.35,3.35,0,0,0-1.35.26,2.19,2.19,0,0,0-.89.7,1.7,1.7,0,0,0-.3,1,1.43,1.43,0,0,0,.33.93,2.6,2.6,0,0,0,1.09.7,10.68,10.68,0,0,0,2,.53,19,19,0,0,1,3.66,1.06,6.57,6.57,0,0,1,2.6,1.85,4.73,4.73,0,0,1,1,3.1,4.88,4.88,0,0,1-1,3,6.48,6.48,0,0,1-2.81,2.09,11.17,11.17,0,0,1-4.28.75,9.77,9.77,0,0,1-4.54-1,7.11,7.11,0,0,1-2.79-2.46,5.59,5.59,0,0,1-1-3h5a2.66,2.66,0,0,0,.52,1.55,2.7,2.7,0,0,0,1.21.88,4.55,4.55,0,0,0,1.64.28,4.33,4.33,0,0,0,1.54-.24,2,2,0,0,0,.94-.67A1.65,1.65,0,0,0,1081.43,285.49Z"/><path class="cls-21" d="M1082.07,269.81c-.58-4.94,7.51-11.1,12.33-9.81,0,0-.72,11.37-10.07,9.08-2.09-.51,3.52-4.57,3.52-4.57C1085.07,264.7,1082,269.27,1082.07,269.81Z"/><text class="cls-1" transform="translate(1054.42 221.13)">®</text></g><g id="teachers"><path class="cls-22" d="M70.42,537.22H114.9"/><path class="cls-22" d="M92.66,497.9l22.24,38.66"/><path class="cls-22" d="M137.13,497.9,114.9,536.56"/><path class="cls-22" d="M159.37,537.22H114.9"/><path class="cls-22" d="M137.13,575.21,114.9,536.56"/><path class="cls-22" d="M92.66,575.21l22.24-38.65"/><path class="cls-23" d="M114.9,559.52a23,23,0,1,0-22.87-23v.09A22.92,22.92,0,0,0,114.9,559.52Z"/><path class="cls-24" d="M70.43,549.32a12.76,12.76,0,1,0-12.71-12.8v0A12.75,12.75,0,0,0,70.43,549.32Z"/><path class="cls-25" d="M92.66,510.66a12.76,12.76,0,1,0-12.75-12.77h0a12.74,12.74,0,0,0,12.7,12.76Z"/><path class="cls-24" d="M137.13,510.66a12.76,12.76,0,1,0-12.7-12.81v0a12.73,12.73,0,0,0,12.69,12.76Z"/><path class="cls-26" d="M159.37,549.32a12.76,12.76,0,1,0-12.7-12.81v0A12.74,12.74,0,0,0,159.37,549.32Z"/><path class="cls-24" d="M137.13,588a12.76,12.76,0,1,0-12.7-12.81v.05A12.73,12.73,0,0,0,137.12,588Z"/><path class="cls-24" d="M92.67,588a12.76,12.76,0,1,0-12.76-12.76A12.75,12.75,0,0,0,92.67,588Z"/><text class="cls-1" transform="translate(519.18 524.51)">®</text><text class="cls-2" transform="translate(175.84 563.42)">Scienc<tspan class="cls-3" x="243.36" y="0">Ed</tspan></text><text class="cls-27" transform="translate(423.48 597.09)">Teachers</text></g><g id="sciencebite"><g id="flower-2" data-name="flower"><path class="cls-12" d="M338.6,425.17h19"/><path class="cls-12" d="M348.1,408.37l9.5,16.52"/><path class="cls-12" d="M367.1,408.37l-9.5,16.52"/><path class="cls-12" d="M376.6,425.17h-19"/><path class="cls-12" d="M367.1,441.4l-9.5-16.51"/><path class="cls-12" d="M348.1,441.4l9.5-16.51"/><path class="cls-13" d="M357.6,434.69a9.81,9.81,0,1,0-9.77-9.8A9.79,9.79,0,0,0,357.6,434.69Z"/><path class="cls-14" d="M338.6,430.34a5.45,5.45,0,1,0-5.43-5.45A5.44,5.44,0,0,0,338.6,430.34Z"/><path class="cls-15" d="M348.1,413.82a5.45,5.45,0,1,0-5.43-5.45A5.44,5.44,0,0,0,348.1,413.82Z"/><path class="cls-14" d="M367.1,413.82a5.45,5.45,0,1,0-5.43-5.45A5.44,5.44,0,0,0,367.1,413.82Z"/><path class="cls-16" d="M376.6,430.33a5.45,5.45,0,1,0-5.43-5.44A5.44,5.44,0,0,0,376.6,430.33Z"/><path class="cls-14" d="M367.1,446.85a5.45,5.45,0,1,0-5.43-5.45A5.44,5.44,0,0,0,367.1,446.85Z"/><path class="cls-14" d="M348.1,446.85a5.45,5.45,0,1,0-5.43-5.45A5.44,5.44,0,0,0,348.1,446.85Z"/></g><text class="cls-28" transform="translate(384.53 436.88)">Scienc<tspan class="cls-3" x="103.75" y="0">Ed</tspan></text><path class="cls-29" d="M356.06,393.52a22.29,22.29,0,1,0-22.2-22.29A22.25,22.25,0,0,0,356.06,393.52Z"/><path class="cls-20" d="M77.19,379.54A8.83,8.83,0,0,0,76,374.86a10.23,10.23,0,0,0-4.16-3.49,48.91,48.91,0,0,0-8.53-3.16,57,57,0,0,1-7.79-2.82,27,27,0,0,1-5.94-3.62,14.45,14.45,0,0,1-3.81-4.69A13.36,13.36,0,0,1,44.48,351a14,14,0,0,1,2.46-8.14,16.77,16.77,0,0,1,6.91-5.65,24.57,24.57,0,0,1,10.41-2.06,23.19,23.19,0,0,1,11.21,2.5,17.88,17.88,0,0,1,7,6.53,16.47,16.47,0,0,1,2.4,8.59H77.07A12.15,12.15,0,0,0,75.69,347a9.62,9.62,0,0,0-4.22-4,15.66,15.66,0,0,0-7.21-1.46,16,16,0,0,0-6.75,1.24,8.72,8.72,0,0,0-3.94,3.36,9.21,9.21,0,0,0-1.28,4.84,7.18,7.18,0,0,0,1.4,4.35,12.07,12.07,0,0,0,4.4,3.42,44.83,44.83,0,0,0,7.77,2.89,47,47,0,0,1,10.85,4.28A17.12,17.12,0,0,1,83,371.61a14.82,14.82,0,0,1,2,7.85,13.82,13.82,0,0,1-2.52,8.25,16.26,16.26,0,0,1-7.09,5.45,27.53,27.53,0,0,1-10.73,1.92A29,29,0,0,1,56.71,394a23.36,23.36,0,0,1-7.08-3.37,17.15,17.15,0,0,1-5.09-5.54,15.07,15.07,0,0,1-1.9-7.67h7.77a10.75,10.75,0,0,0,1.16,5.17,10.2,10.2,0,0,0,3.16,3.56,14.1,14.1,0,0,0,4.57,2.06,21.33,21.33,0,0,0,5.36.66,18.06,18.06,0,0,0,6.83-1.14,9.31,9.31,0,0,0,4.24-3.22A8.32,8.32,0,0,0,77.19,379.54Z"/><path class="cls-20" d="M111.07,389.07A10.82,10.82,0,0,0,116,388a10,10,0,0,0,3.68-3,8.25,8.25,0,0,0,1.65-4.37h7.08a13.07,13.07,0,0,1-2.6,7.15,18.09,18.09,0,0,1-14.69,7.35,18.44,18.44,0,0,1-10.81-3,18,18,0,0,1-6.39-7.9,27.09,27.09,0,0,1-2.1-10.73v-1.69A26.72,26.72,0,0,1,93.89,361a18.16,18.16,0,0,1,6.41-7.88,18.37,18.37,0,0,1,10.77-3,18.37,18.37,0,0,1,8.9,2.07,15.53,15.53,0,0,1,6,5.6,16.35,16.35,0,0,1,2.38,8h-7.08a11.29,11.29,0,0,0-1.5-4.89,9.87,9.87,0,0,0-3.53-3.5,10,10,0,0,0-5.18-1.3,10.23,10.23,0,0,0-7.11,2.32,12.51,12.51,0,0,0-3.64,5.91,25.78,25.78,0,0,0-1.07,7.38v1.69a26.31,26.31,0,0,0,1,7.4,12.26,12.26,0,0,0,3.62,5.91A10.38,10.38,0,0,0,111.07,389.07Z"/><path class="cls-20" d="M136.73,339.42a4.39,4.39,0,0,1,1.1-3,4.14,4.14,0,0,1,3.27-1.24,4.09,4.09,0,0,1,4.44,4.24,4.18,4.18,0,0,1-1.14,2.95,4.31,4.31,0,0,1-3.3,1.22,4.2,4.2,0,0,1-3.27-1.22A4.28,4.28,0,0,1,136.73,339.42Zm8.05,54.86h-7.49V351h7.49Z"/><path class="cls-20" d="M191.5,371.33a29.71,29.71,0,0,0-1.86-10.83,16.13,16.13,0,0,0-5.8-7.56,17.26,17.26,0,0,0-10.19-2.79,17.48,17.48,0,0,0-9.19,2.63,19.38,19.38,0,0,0-7.05,7.6,25,25,0,0,0-2.7,12v1.72A23.09,23.09,0,0,0,157.17,385a18.52,18.52,0,0,0,6.93,7.43,19.9,19.9,0,0,0,10.51,2.7q6.45,0,10.35-2.58a20.36,20.36,0,0,0,6-5.79l-4.52-3.52a16.63,16.63,0,0,1-4.76,4.28,12.92,12.92,0,0,1-6.65,1.6,11.68,11.68,0,0,1-6.89-2,12.9,12.9,0,0,1-4.4-5.41,17.86,17.86,0,0,1-1.5-7H191.5ZM184,368.65H162.44a20,20,0,0,1,1.22-5.06,12.38,12.38,0,0,1,4-5.53,9.76,9.76,0,0,1,6-1.9,9.27,9.27,0,0,1,6,1.78,10.24,10.24,0,0,1,3.21,4.53,19.75,19.75,0,0,1,1.16,5.62Z"/><path class="cls-20" d="M232.53,356.76a10.77,10.77,0,0,0-4.81-5,16,16,0,0,0-7.39-1.59,15.82,15.82,0,0,0-9.19,2.71,17.34,17.34,0,0,0-3.71,3.45L207.2,351h-7.09v43.33h7.49v-31a15.66,15.66,0,0,1,1.64-2.58,12.18,12.18,0,0,1,3.89-3.2,11.82,11.82,0,0,1,9.73-.22,6.22,6.22,0,0,1,2.9,3,13.07,13.07,0,0,1,1,5.49v28.47h7.49V365.89A20.83,20.83,0,0,0,232.53,356.76Z"/><path class="cls-20" d="M262.77,389.07a10.86,10.86,0,0,0,4.89-1.1,10.06,10.06,0,0,0,3.68-3,8.24,8.24,0,0,0,1.64-4.37h7.09a13.07,13.07,0,0,1-2.6,7.15,18.09,18.09,0,0,1-14.7,7.35,18.48,18.48,0,0,1-10.81-3,18,18,0,0,1-6.38-7.9,27.09,27.09,0,0,1-2.1-10.73v-1.69A26.72,26.72,0,0,1,245.6,361a18.21,18.21,0,0,1,6.4-7.88,20.58,20.58,0,0,1,19.68-.92,15.6,15.6,0,0,1,6,5.6,16.45,16.45,0,0,1,2.38,8H273a11,11,0,0,0-1.5-4.89,9.76,9.76,0,0,0-3.52-3.5,10.05,10.05,0,0,0-5.19-1.3,10.22,10.22,0,0,0-7.1,2.32,12.6,12.6,0,0,0-3.65,5.91,26.13,26.13,0,0,0-1.06,7.38v1.69a26.67,26.67,0,0,0,1,7.4,12.35,12.35,0,0,0,3.63,5.91A10.37,10.37,0,0,0,262.77,389.07Z"/><path class="cls-20" d="M323.27,371.33a29.71,29.71,0,0,0-1.86-10.83,16.19,16.19,0,0,0-5.8-7.56,17.26,17.26,0,0,0-10.19-2.79,17.48,17.48,0,0,0-9.19,2.63,19.38,19.38,0,0,0-7.05,7.6,25,25,0,0,0-2.7,12v1.72A23.09,23.09,0,0,0,288.94,385a18.52,18.52,0,0,0,6.93,7.43,19.9,19.9,0,0,0,10.51,2.7q6.44,0,10.35-2.58a20.48,20.48,0,0,0,6-5.79l-4.52-3.52a16.54,16.54,0,0,1-4.77,4.28,12.86,12.86,0,0,1-6.64,1.6,11.68,11.68,0,0,1-6.89-2,12.9,12.9,0,0,1-4.4-5.41,17.86,17.86,0,0,1-1.5-7h29.28Zm-7.48-2.68H294.21a20,20,0,0,1,1.22-5.06,12.38,12.38,0,0,1,4-5.53,9.74,9.74,0,0,1,5.95-1.9,9.27,9.27,0,0,1,6,1.78,10.14,10.14,0,0,1,3.2,4.53,19.42,19.42,0,0,1,1.17,5.62Z"/><text class="cls-2" transform="translate(387.16 394.28)">bite</text><text class="cls-30" transform="translate(530.81 419.79)">®</text></g><g id="kids"><g id="flower-3" data-name="flower"><path class="cls-12" d="M70.45,232.58H115"/><path class="cls-12" d="M92.73,193.17,115,231.91"/><path class="cls-12" d="M137.29,193.17,115,231.91"/><path class="cls-12" d="M159.58,232.58H115"/><path class="cls-12" d="M137.29,270.64,115,231.91"/><path class="cls-12" d="M92.73,270.64,115,231.91"/><path class="cls-13" d="M115,254.91a23,23,0,1,0-22.92-23A23,23,0,0,0,115,254.91Z"/><path class="cls-14" d="M70.45,244.69a12.78,12.78,0,1,0-12.73-12.78A12.75,12.75,0,0,0,70.45,244.69Z"/><path class="cls-15" d="M92.73,206A12.78,12.78,0,1,0,80,193.18,12.75,12.75,0,0,0,92.73,206Z"/><path class="cls-14" d="M137.29,206a12.78,12.78,0,1,0-12.73-12.78A12.75,12.75,0,0,0,137.29,206Z"/><path class="cls-16" d="M159.58,244.69a12.78,12.78,0,1,0-12.74-12.78A12.75,12.75,0,0,0,159.58,244.69Z"/><path class="cls-14" d="M137.29,283.42a12.78,12.78,0,1,0-12.73-12.78A12.76,12.76,0,0,0,137.29,283.42Z"/><path class="cls-14" d="M92.73,283.42A12.78,12.78,0,1,0,80,270.64,12.75,12.75,0,0,0,92.73,283.42Z"/></g><text class="cls-2" transform="translate(175.84 260.04)">Scienc<tspan class="cls-3" x="243.36" y="0">Ed</tspan></text><text class="cls-31" transform="matrix(0.97, -0.26, 0.26, 0.97, 477.31, 298)">K<tspan class="cls-32" x="23.62" y="0">i</tspan><tspan class="cls-33" x="33.58" y="0">d</tspan><tspan class="cls-34" x="54.54" y="0">s</tspan></text><polygon class="cls-18" points="493.9 293.5 500.44 291.75 487.51 280.01 493.39 266.29 486.63 268.11 482.58 278.02 481.2 281.76 478.15 270.38 472.63 271.86 479.46 297.37 484.99 295.89 483.07 288.76 484.97 285.15 493.9 293.5"/><path class="cls-19" d="M495.54,267.5a2.68,2.68,0,0,1,.28-2.17,3.14,3.14,0,0,1,1.95-1.34,3.09,3.09,0,0,1,2.36.19,2.74,2.74,0,0,1,1.32,1.74,2.7,2.7,0,0,1-.28,2.16,3.49,3.49,0,0,1-4.3,1.15A2.64,2.64,0,0,1,495.54,267.5Zm12,22.35-5.31,1.42-5.08-19,5.31-1.43Z"/><path class="cls-17" d="M528,284.36l-7.21-26.92-5.33,1.43,2.58,9.61a9.88,9.88,0,0,0-.94-.54,5.75,5.75,0,0,0-4.07-.27,6.88,6.88,0,0,0-3.71,2.3,7.83,7.83,0,0,0-1.61,4.08,14,14,0,0,0,.49,5.3l.1.37a13.74,13.74,0,0,0,2.18,4.69,8.07,8.07,0,0,0,3.45,2.75,6.66,6.66,0,0,0,4.34.18,5.82,5.82,0,0,0,3.42-2.28,7.44,7.44,0,0,0,.73-1.37l.8,1.95Zm-7.62-2.8a3.59,3.59,0,0,1-1.91,1.13,3,3,0,0,1-2.23-.17,4.18,4.18,0,0,1-1.6-1.63,10.16,10.16,0,0,1-1-2.59l-.1-.37a10.73,10.73,0,0,1-.4-2.85,4.13,4.13,0,0,1,.6-2.22,3,3,0,0,1,1.84-1.26,4.25,4.25,0,0,1,1.71-.12,2.9,2.9,0,0,1,1.38.62,3.62,3.62,0,0,1,.53.51l2,7.36A3.6,3.6,0,0,1,520.42,281.56Z"/><path class="cls-20" d="M540.59,275.32a1.45,1.45,0,0,0-.55-.83,2.81,2.81,0,0,0-1.32-.41,14.71,14.71,0,0,0-2.56,0,16.75,16.75,0,0,1-3.75-.22,6.5,6.5,0,0,1-2.91-1.22,4.57,4.57,0,0,1-1.62-2.54,5.27,5.27,0,0,1,.12-3.19,6.7,6.7,0,0,1,2-2.87,9.51,9.51,0,0,1,3.87-1.92,11,11,0,0,1,4.51-.37,6.61,6.61,0,0,1,3.35,1.44,5.6,5.6,0,0,1,1.81,2.91l-5.29,1.42a2.46,2.46,0,0,0-1.13-1.57,2.9,2.9,0,0,0-2.27-.11,3.19,3.19,0,0,0-1.28.62,2.25,2.25,0,0,0-.7.93,1.76,1.76,0,0,0,0,1.09,1.52,1.52,0,0,0,.58.84,2.72,2.72,0,0,0,1.28.41,12,12,0,0,0,2.16,0,18.82,18.82,0,0,1,3.93.08,6.82,6.82,0,0,1,3.08,1.14,4.92,4.92,0,0,1,1.8,2.84,5.09,5.09,0,0,1-.19,3.27,6.71,6.71,0,0,1-2.25,2.83,11.59,11.59,0,0,1-4.06,1.9,10,10,0,0,1-4.78.24,7.3,7.3,0,0,1-3.44-1.7,5.64,5.64,0,0,1-1.76-2.77l5-1.34a2.63,2.63,0,0,0,2.38,2,4.86,4.86,0,0,0,1.71-.16,4.37,4.37,0,0,0,1.47-.65,2.12,2.12,0,0,0,.76-.92A1.68,1.68,0,0,0,540.59,275.32Z"/><text class="cls-1" transform="translate(519.18 220.01)">®</text></g><g id="standard-3" data-name="standard"><text class="cls-1" transform="translate(515.93 72.47)">®</text><text class="cls-2" transform="translate(172.6 112.17)">Scienc<tspan class="cls-3" x="243.36" y="0">Ed</tspan></text><path class="cls-4" d="M67.27,85.38h44.5"/><path class="cls-4" d="M89.52,46l22.25,38.68"/><path class="cls-4" d="M134,46,111.77,84.71"/><path class="cls-4" d="M156.27,85.38h-44.5"/><path class="cls-4" d="M134,123.39,111.77,84.71"/><path class="cls-4" d="M89.52,123.39l22.25-38.68"/><path class="cls-5" d="M111.77,107.68a23,23,0,1,0-22.89-23A22.92,22.92,0,0,0,111.77,107.68Z"/><path class="cls-6" d="M67.27,97.47A12.76,12.76,0,1,0,54.55,84.71,12.73,12.73,0,0,0,67.27,97.47Z"/><path class="cls-7" d="M89.52,58.79A12.76,12.76,0,1,0,76.8,46,12.73,12.73,0,0,0,89.52,58.79Z"/><path class="cls-6" d="M134,58.79A12.76,12.76,0,1,0,121.3,46,12.73,12.73,0,0,0,134,58.79Z"/><path class="cls-8" d="M156.27,97.47a12.76,12.76,0,1,0-12.72-12.76A12.73,12.73,0,0,0,156.27,97.47Z"/><path class="cls-6" d="M134,136.15a12.76,12.76,0,1,0-12.72-12.76A12.74,12.74,0,0,0,134,136.15Z"/><path class="cls-6" d="M89.52,136.15A12.76,12.76,0,1,0,76.8,123.39,12.74,12.74,0,0,0,89.52,136.15Z"/></g></g></svg>